<?xml version="1.0" encoding="utf-8"?>
<!-- Generator: Adobe Illustrator 24.0.0, SVG Export Plug-In . SVG Version: 6.00 Build 0)  -->
<svg version="1.1" id="Layer_3" xmlns="http://www.w3.org/2000/svg" xmlns:xlink="http://www.w3.org/1999/xlink" x="0px" y="0px"
	 viewBox="0 0 2671.9 290.9" style="enable-background:new 0 0 2671.9 290.9;" xml:space="preserve">
<style type="text/css">
	.st0{opacity:0.5;}
	.st1{fill:url(#SVGID_1_);}
	.st2{fill:#EAEAEA;}
	.st3{fill:#CECECE;}
	.st4{opacity:0.1;fill:url(#SVGID_2_);}
	.st5{opacity:0.1;fill:url(#SVGID_3_);}
	.st6{fill:url(#SVGID_4_);}
	.st7{fill:url(#SVGID_5_);}
	.st8{opacity:0.1;fill:url(#SVGID_6_);}
	.st9{opacity:0.1;fill:url(#SVGID_7_);}
	.st10{fill:none;}
	.st11{opacity:0.1;fill:url(#SVGID_8_);}
	.st12{opacity:0.1;fill:url(#SVGID_9_);}
	.st13{fill:url(#SVGID_10_);}
	.st14{fill:url(#SVGID_11_);}
	.st15{opacity:0.1;fill:url(#SVGID_12_);}
	.st16{opacity:0.1;fill:url(#SVGID_13_);}
	.st17{opacity:0.1;fill:url(#SVGID_14_);}
	.st18{opacity:0.1;fill:url(#SVGID_15_);}
	.st19{fill:url(#SVGID_16_);}
	.st20{fill:url(#SVGID_17_);}
	.st21{opacity:0.1;fill:url(#SVGID_18_);}
	.st22{opacity:0.1;fill:url(#SVGID_19_);}
	.st23{opacity:0.1;fill:url(#SVGID_20_);}
	.st24{opacity:0.1;fill:url(#SVGID_21_);}
	.st25{opacity:0.1;fill:url(#SVGID_22_);}
	.st26{opacity:0.1;fill:url(#SVGID_23_);}
	.st27{opacity:0.1;fill:url(#SVGID_24_);}
	.st28{opacity:0.1;fill:url(#SVGID_25_);}
	.st29{opacity:0.1;fill:url(#SVGID_26_);}
	.st30{opacity:0.1;fill:url(#SVGID_27_);}
	.st31{fill:#A5A5A5;}
</style>
<g class="st0">
	<linearGradient id="SVGID_1_" gradientUnits="userSpaceOnUse" x1="1336.0591" y1="291.9" x2="1336.0591" y2="154.1">
		<stop  offset="0" style="stop-color:#FFFFFF"/>
		<stop  offset="0.1572" style="stop-color:#F8F8F8"/>
		<stop  offset="0.5553" style="stop-color:#EEEEEE"/>
		<stop  offset="1" style="stop-color:#EAEAEA"/>
	</linearGradient>
	<polygon class="st1" points="0,154.3 2672.1,154.1 2672.1,291.9 0,291.9 	"/>
	<g>
		<path class="st2" d="M1602.6,154.8c16.6-1,35.8-10.3,49.9-24.4c7.6-2.5,10-3,11.8-4.1c13.4-3.2,25.1-37.5,38.5-44.9
			c10.7-6.4,29.3-17.4,31.1-14.1c-1.1,8.1,55.2,57,62.3,59.1c19.6,8.5,70.8-5.4,84.5-7.2c23.8-3.1,21.2,4.3,28.9,9.9
			c8.9,9.1,10.3,3.2,16.2,5.5c6.2,6.4,22.6-16.9,28.9-23.3c27.1-27.6,27.4-31.4,45-41.9c11.6,1.1,39.4,48,86.7,48
			c14.8,0,24,21.6,51.1,37.1"/>
		<path class="st3" d="M1602.6,154.8c4.7-0.3,9.4-1.2,13.9-2.6c4.5-1.4,8.9-3.2,13.1-5.3c8.4-4.3,16.2-9.9,22.9-16.5l0,0l0,0l6-1.9
			c1-0.3,2-0.6,3-1c1-0.3,2-0.7,2.8-1.2l0,0l0,0c1.9-0.5,3.6-1.5,5.1-2.7s2.9-2.6,4.2-4.1c2.6-3,4.8-6.3,7-9.6
			c4.3-6.6,8.3-13.5,13.1-19.8c2.4-3.1,5-6.2,8.4-8.4c3.4-2.1,6.8-4.1,10.2-6c3.4-2,6.9-3.9,10.5-5.6c1.8-0.9,3.6-1.7,5.4-2.4
			c0.9-0.4,1.9-0.7,2.9-0.9c0.5-0.1,1-0.2,1.5-0.2s1.2,0.1,1.5,0.7v0.1v0.1c-0.1,0.8,0.3,1.6,0.7,2.4c0.4,0.8,0.9,1.5,1.4,2.3
			c1,1.5,2.2,2.9,3.3,4.3c2.3,2.8,4.8,5.4,7.3,8c5.1,5.2,10.3,10.1,15.7,15c5.4,4.9,10.8,9.6,16.4,14.2c2.8,2.3,5.6,4.6,8.5,6.8
			c1.4,1.1,2.9,2.2,4.4,3.2c0.7,0.5,1.5,1,2.2,1.5c0.8,0.5,1.5,0.9,2.3,1.2l0,0l0,0c4.5,1.9,9.5,2.4,14.4,2.6s9.8-0.1,14.7-0.5
			c9.8-0.9,19.6-2.5,29.2-4.4c4.8-0.9,9.7-1.9,14.5-2.9s9.7-2,14.6-2.5c2.5-0.3,4.9-0.4,7.4-0.4c2.5,0.1,5,0.3,7.4,1.1
			c2.4,0.8,4.5,2.5,6.1,4.4s3.2,3.8,5.1,5.2l0,0l0,0l1.6,1.5c0.6,0.5,1.1,1,1.7,1.4c1.2,0.9,2.4,1.6,3.8,2s2.8,0.1,4.3-0.1
			c1.5-0.2,3.2-0.1,4.6,0.5h0.1l0.1,0.1c0.7,0.7,1.6,1,2.5,1c1,0,1.9-0.4,2.8-0.9c1.8-0.9,3.4-2.3,5-3.6c3.1-2.8,5.9-5.9,8.7-9.1
			c2.8-3.2,5.4-6.5,8.2-9.6l8.8-9.1c5.8-6.1,11.5-12.3,17.3-18.4c2.9-3,6-5.9,9.4-8.5s6.9-4.9,10.6-7l0.1-0.1h0.2
			c1.9,0.2,3.5,1.2,4.9,2.2c1.5,1,2.8,2.1,4.1,3.2c2.6,2.3,5.1,4.7,7.6,7c5,4.7,10.1,9.4,15.4,13.7c2.7,2.2,5.4,4.3,8.3,6.2
			c1.4,1,2.9,1.9,4.3,2.8c1.5,0.9,2.9,1.8,4.4,2.6c3,1.7,6.1,3.2,9.3,4.5s6.4,2.5,9.8,3.3c3.3,0.9,6.7,1.5,10.1,2l2.6,0.2
			c0.9,0.1,1.7,0.2,2.6,0.2c1.7,0.1,3.4,0.1,5.2,0.2c3.5,0.4,6.7,2.1,9.5,4.2c2.8,2,5.4,4.4,7.9,6.8c5,4.8,9.8,9.7,15,14.2
			s10.8,8.5,16.8,12v0.1c-6-3.4-11.7-7.4-17-11.9c-5.3-4.4-10.2-9.3-15.2-14.1c-2.5-2.4-5-4.7-7.8-6.7s-5.9-3.6-9.3-4
			c-1.7-0.2-3.4-0.2-5.1-0.2c-0.9,0-1.7-0.1-2.6-0.2l-2.6-0.2c-3.4-0.5-6.9-1-10.2-2c-3.4-0.8-6.6-2-9.8-3.3
			c-3.2-1.4-6.3-2.8-9.3-4.5c-1.5-0.8-3-1.7-4.5-2.6s-2.9-1.8-4.3-2.8c-2.9-1.9-5.6-4-8.3-6.2c-5.4-4.3-10.5-9-15.6-13.7
			c-2.5-2.4-5-4.7-7.6-7c-1.3-1.1-2.6-2.2-4-3.1s-2.9-1.8-4.5-2l0.3-0.1c-3.6,2.2-7.1,4.4-10.5,7c-3.3,2.5-6.4,5.4-9.3,8.4
			c-5.8,6-11.5,12.3-17.4,18.4l-8.8,9.1c-2.8,3.1-5.4,6.4-8.2,9.6c-2.8,3.2-5.6,6.3-8.8,9.2c-1.6,1.4-3.3,2.8-5.2,3.7
			c-1,0.5-2,0.9-3.2,1c-1.1,0.1-2.4-0.4-3.2-1.2l0.1,0.1c-1.3-0.6-2.8-0.7-4.2-0.5c-1.4,0.2-3.1,0.5-4.6,0c-1.5-0.4-2.9-1.2-4.1-2.2
			c-0.6-0.4-1.2-1-1.8-1.5l-1.6-1.6h0.1c-2.1-1.5-3.7-3.5-5.3-5.3c-1.6-1.9-3.5-3.4-5.7-4.2c-4.6-1.5-9.6-1.2-14.5-0.7
			c-4.9,0.4-9.7,1.5-14.6,2.5c-4.8,1-9.7,2-14.5,2.9c-9.7,1.8-19.5,3.5-29.3,4.3c-4.9,0.4-9.9,0.7-14.8,0.5s-10-0.8-14.6-2.7l0,0
			c-0.9-0.3-1.7-0.8-2.5-1.3s-1.5-1-2.3-1.5c-1.5-1-2.9-2.1-4.4-3.2c-2.9-2.2-5.7-4.5-8.5-6.8c-5.6-4.6-11-9.4-16.4-14.3
			c-5.3-4.9-10.6-9.9-15.7-15c-2.5-2.6-5-5.2-7.3-8c-1.2-1.4-2.3-2.8-3.3-4.3c-0.5-0.8-1-1.5-1.4-2.3s-0.8-1.7-0.8-2.7v0.2
			c-0.2-0.3-0.6-0.5-1.1-0.5s-0.9,0.1-1.4,0.2c-0.9,0.2-1.9,0.5-2.8,0.9c-1.8,0.7-3.6,1.5-5.4,2.4c-3.5,1.7-7,3.6-10.4,5.6
			s-6.8,4-10.2,6c-3.3,2.1-5.9,5.1-8.3,8.2c-4.8,6.3-8.7,13.2-13.1,19.8c-2.2,3.3-4.4,6.6-7,9.6c-1.3,1.5-2.7,2.9-4.2,4.2
			c-1.6,1.2-3.3,2.3-5.3,2.8l0,0c-0.9,0.5-1.9,0.9-2.9,1.2s-2,0.6-3,1l-6,1.9l0,0c-6.7,6.7-14.5,12.2-23,16.5
			c-4.2,2.1-8.6,3.9-13.1,5.3C1612,153.6,1607.3,154.6,1602.6,154.8L1602.6,154.8z"/>
	</g>
	<g>
		<path class="st2" d="M2023.6,180.4c-15.4-7-22.9-20-36.9-48c0,0-33.7-11.8-44.7-24.7c-33.2-64-58.8-80-66-101.3
			c-1.1-3-3.4-6.2-8.7-6c-3.4,0.1-11.2,16.7-20.7,31.1c-15.5,48.4-61.1,60.9-59.6,61.9c-1.5-1-12.8,28.2-64.3,84.4"/>
		<path class="st3" d="M2023.6,180.5c-4.7-2.1-9-5.1-12.7-8.7c-3.7-3.6-6.7-7.8-9.5-12.1s-5.3-8.8-7.7-13.4
			c-2.4-4.6-4.7-9.1-7.1-13.7l0.1,0.1c-4-1.4-8-3-12-4.7c-3.9-1.7-7.8-3.5-11.7-5.4c-3.8-1.9-7.6-4-11.2-6.4s-7.1-4.9-10-8.2l0,0
			l0,0c-6.6-12.6-13.7-24.9-21.4-36.8c-3.8-6-7.9-11.8-12.1-17.5s-8.5-11.3-13-16.9c-4.4-5.6-8.9-11.1-12.9-17c-1-1.4-1.9-3-2.8-4.5
			c-0.5-0.7-0.9-1.6-1.3-2.4l-1.2-2.4c-0.7-1.6-1.3-3.4-2-4.9c-0.7-1.6-1.8-2.9-3.3-3.7c-0.7-0.4-1.6-0.7-2.4-0.8
			c-0.4-0.1-0.8-0.1-1.3-0.1h-0.6h-0.3c-0.1,0-0.1,0-0.2,0c-0.7,0.3-1.3,0.9-1.9,1.5c-0.6,0.7-1.1,1.4-1.6,2.1c-2,2.9-3.8,6-5.6,9
			c-3.6,6.1-7.1,12.3-11,18.2l0.1-0.1c-2.3,7.1-5.3,13.9-9.2,20.3c-3.9,6.4-8.5,12.2-13.8,17.5s-11.1,9.9-17.4,13.9
			c-3.1,2-6.4,3.9-9.7,5.6c-1.7,0.8-3.3,1.7-5,2.4l-2.5,1.2l-1.2,0.6c-0.2,0.1-0.4,0.2-0.6,0.3c-0.1,0.1-0.2,0.1-0.3,0.2
			c0,0-0.1,0.1-0.1,0l0,0c0,0,0,0,0-0.1s0-0.2,0-0.2c0-0.1-0.1-0.1-0.1-0.1l-0.5,0.8c0.1,0.1,0.3,0,0.3,0s0,0-0.1,0.1
			s-0.2,0.2-0.2,0.3c-0.2,0.2-0.3,0.4-0.5,0.6c-0.3,0.4-0.6,0.9-0.9,1.4l-1.7,2.8l-3.5,5.7c-2.3,3.8-4.8,7.5-7.2,11.2
			c-5,7.3-10.2,14.5-15.6,21.5c-10.8,14-22.5,27.5-34.5,40.5l-0.1-0.1c5.9-6.6,11.8-13.2,17.5-20s11.3-13.7,16.6-20.7
			c5.4-7,10.6-14.2,15.5-21.6c2.5-3.7,4.9-7.4,7.2-11.2l3.4-5.7l1.7-2.9c0.3-0.5,0.6-1,0.9-1.4c0.2-0.2,0.3-0.5,0.5-0.7
			c0.1-0.1,0.2-0.2,0.3-0.4c0.1-0.1,0.1-0.1,0.3-0.2c0.1-0.1,0.4-0.1,0.7,0l-0.5,0.8c-0.1-0.1-0.1-0.1-0.2-0.2s-0.1-0.3,0-0.3
			c0-0.1,0.1-0.1,0.1-0.2l0.1-0.1c0.1-0.1,0.1-0.1,0.2-0.2s0.2-0.1,0.3-0.2c0.2-0.1,0.4-0.2,0.6-0.3l1.3-0.6l2.5-1.2
			c1.7-0.8,3.3-1.6,5-2.4c3.3-1.7,6.5-3.5,9.6-5.5c6.2-4,12-8.6,17.2-13.8s9.8-11,13.6-17.3c3.8-6.3,6.9-13,9.1-20.1v-0.1v-0.1
			c3.9-5.9,7.4-12,11.1-18.2c1.8-3.1,3.6-6.1,5.7-9c0.5-0.7,1.1-1.5,1.7-2.1c0.6-0.7,1.2-1.4,2.2-1.8c0.1,0,0.3-0.1,0.4-0.1h0.3h0.7
			c0.5,0,0.9,0.1,1.4,0.1c0.9,0.2,1.8,0.4,2.6,0.9c1.7,0.9,2.9,2.4,3.6,4.1s1.3,3.3,2,5l1.2,2.4c0.4,0.8,0.8,1.6,1.2,2.3
			c0.9,1.5,1.8,3.1,2.8,4.5c3.9,5.9,8.4,11.4,12.8,17s8.7,11.2,12.9,16.9c4.1,5.8,8.2,11.6,12.1,17.6c7.7,11.9,14.8,24.3,21.3,36.9
			l0,0c2.8,3.2,6.3,5.8,9.8,8.1c3.6,2.4,7.3,4.4,11.1,6.4c3.8,1.9,7.7,3.8,11.6,5.4c3.9,1.7,7.9,3.3,11.9,4.7h0.1v0.1
			c2.3,4.6,4.6,9.2,7,13.8c2.4,4.5,4.9,9.1,7.7,13.4c2.8,4.3,5.8,8.5,9.5,12.1C2014.6,175.3,2018.9,178.2,2023.6,180.5L2023.6,180.5
			z"/>
	</g>
	
		<linearGradient id="SVGID_2_" gradientUnits="userSpaceOnUse" x1="1726.5237" y1="238.6733" x2="1914.9691" y2="-279.0763" gradientTransform="matrix(1 0 0 -1 0 291.276)">
		<stop  offset="0" style="stop-color:#BFBFBF"/>
		<stop  offset="5.276039e-03" style="stop-color:#B9B9B9"/>
		<stop  offset="4.496755e-02" style="stop-color:#918F93"/>
		<stop  offset="8.092022e-02" style="stop-color:#747177"/>
		<stop  offset="0.1116" style="stop-color:#625F66"/>
		<stop  offset="0.1333" style="stop-color:#5C5860"/>
		<stop  offset="0.1713" style="stop-color:#48454C"/>
		<stop  offset="0.2346" style="stop-color:#2E2C30"/>
		<stop  offset="0.3033" style="stop-color:#1A191B"/>
		<stop  offset="0.3792" style="stop-color:#0B0B0C"/>
		<stop  offset="0.4678" style="stop-color:#030303"/>
		<stop  offset="0.6" style="stop-color:#000000"/>
	</linearGradient>
	<path class="st4" d="M1867.5,1.9c-0.5,0.1-0.9,0.3-1.2,0.8c0,0-15.6,27.2-19,31c0,0-3.5,13.8-11,23.8c-5.6,7.5-27.8,37.3-38.6,44.3
		c-1.5-2.3,18.5-23.9,21.3-28.1c-14.5,12.5-19.5,17.9-20.4,18.7c-1.5,2.8-16.9,31.3-31.1,46.5c8.5-19.8,14.6-28.6,17.9-35
		c3.6-7,8.1-9.3,13.6-15.5c-3,2.1-9.7,5.9-12.6,8.8c-21.2,42.1-55.7,77.9-92.9,116.3c-6.7,6.9-21,21.4-59.5,23.4
		c26.6,10.5,75.9-24.1,90.5-23.4c-41,75.9-18.4,13.3-23,21.4c-6.6,11.8-13.9,36.4-20.7,47.7c15.8-12.8,36.5-51.7,51.2-66.7
		c15.8-16.1,41.8-42.8,53.9-62.1c-11.4,10.8-39.8,42.7-47,49.5c-6.2,5.9-30.1,10.6-36.9,15.5c5.8-8.9,42.8-39,48-48.2
		c-5,6-44.1,37.8-60.3,50.7c21.1-17.5,37.8-40,45.8-48.6c8.1-8.8,34.9-33.4,44-41c0.3,3.9-26,44.6-32.8,56.8
		c6.9-9.9,43.2-58.2,43.9-59.4c8.2-13.9,42.5-60.8,45.7-62.5c0,0-19.9,38.5-21,43.3c-3.2,14-8.3,35.3-8.3,35.3
		c6.1-19.4,24.2-65,42-98c-7.9,12.4-54.1,72.4-60.8,74.2c11.3-16,46.4-59.1,55.3-72.7c2.7-4.2,7-17.2,13.5-26
		C1860.2,18.6,1867.5,2.7,1867.5,1.9S1867.5,1.1,1867.5,1.9z"/>
	
		<linearGradient id="SVGID_3_" gradientUnits="userSpaceOnUse" x1="1950.9445" y1="104.9859" x2="2010.6306" y2="193.4743" gradientTransform="matrix(1 0 0 -1 0 291.276)">
		<stop  offset="0.2788" style="stop-color:#000000"/>
		<stop  offset="0.415" style="stop-color:#1D1B1E"/>
		<stop  offset="0.6056" style="stop-color:#3F3C42"/>
		<stop  offset="0.7609" style="stop-color:#545158"/>
		<stop  offset="0.8606" style="stop-color:#5C5860"/>
		<stop  offset="0.8774" style="stop-color:#625F66"/>
		<stop  offset="0.9011" style="stop-color:#747177"/>
		<stop  offset="0.9289" style="stop-color:#918F93"/>
		<stop  offset="0.9596" style="stop-color:#B9B9B9"/>
		<stop  offset="0.9636" style="stop-color:#BFBFBF"/>
	</linearGradient>
	<path class="st5" d="M2114.3,224.3c-16.8-3.6-56.4-16.2-68.6-28.2c0,0-0.1-0.1-0.1-0.2c-30.4-14.1-49.1-32.2-60.5-61.6
		c-7-1.7-36-16.9-39-19c5.6,6.2,19.7,20,31.3,23c3.3,8.5,28.7,32.8,28.7,32.8c-20.6-13.4-55.5-42.6-57-45.4
		c-0.9-0.9-23.2-47.8-37.5-65.3c2.8,4.2,20.1,39.1,21.5,43c-26.1-34.3-33.1-51.5-38.4-59.3c-16.7-24.8,1.7-2.7,1.7-2.7
		c-3.4-3.8-24.6-37.3-24.6-37.3c-0.3-0.4-0.8-0.7-1.2-0.8c0,0.8,7.3,16.7,10.5,21c6.5,8.8,15.8,29.3,18.5,33.5
		c8.8,13.6,41.8,68.9,54.5,95.2c-12.1-2.5-57.1-91.8-65-104.2c12,35.2,27.8,75,40,95c0,0-34.8-42-32.4-39.7
		c2.3,2.2,37,78.1,84.9,101.7c-14.2-18.1-13.2-44-24.4-66.9c9.1,7.6,41.6,35.6,51.4,42.5c13,9.3,58.7,34.8,68.6,35.9
		c-8.1-0.9-37.5-5.8-100.5-54c3,5.3,26.2,31.2,42.2,43.7c9.2,5.9,56.7,27.3,95.2,24.2c9.9-0.8-7-0.6,12.8-3.6
		C2125.4,227.6,2115.5,224.5,2114.3,224.3C2111.8,224,2116.6,224.9,2114.3,224.3z"/>
	
		<linearGradient id="SVGID_4_" gradientUnits="userSpaceOnUse" x1="2019.2947" y1="-54.8545" x2="2147.3538" y2="77.7547" gradientTransform="matrix(1 0 0 -1 0 291.276)">
		<stop  offset="0.1879" style="stop-color:#000000"/>
		<stop  offset="0.3142" style="stop-color:#040405"/>
		<stop  offset="0.457" style="stop-color:#121112"/>
		<stop  offset="0.6078" style="stop-color:#272629"/>
		<stop  offset="0.7632" style="stop-color:#454248"/>
		<stop  offset="0.8606" style="stop-color:#5C5860"/>
		<stop  offset="1" style="stop-color:#7A7580"/>
	</linearGradient>
	<path class="st6" d="M2071.6,290.4c1.2,1.1,2.3,2.2,3.5,3.2c-1.2-1.9-2.9-3.8-4.7-5.6C2070.9,288.9,2071.3,289.6,2071.6,290.4z"/>
	
		<linearGradient id="SVGID_5_" gradientUnits="userSpaceOnUse" x1="2036.5006" y1="-71.4651" x2="2164.5593" y2="61.1434" gradientTransform="matrix(1 0 0 -1 0 291.276)">
		<stop  offset="0.1879" style="stop-color:#000000"/>
		<stop  offset="0.3142" style="stop-color:#040405"/>
		<stop  offset="0.457" style="stop-color:#121112"/>
		<stop  offset="0.6078" style="stop-color:#272629"/>
		<stop  offset="0.7632" style="stop-color:#454248"/>
		<stop  offset="0.8606" style="stop-color:#5C5860"/>
		<stop  offset="1" style="stop-color:#7A7580"/>
	</linearGradient>
	<path class="st7" d="M2036.1,360.6c0.7,1.4,1.3,2.5,1.7,3.4C2037.5,363.2,2036.9,362,2036.1,360.6z"/>
	
		<linearGradient id="SVGID_6_" gradientUnits="userSpaceOnUse" x1="2255.5625" y1="139.3" x2="2360.8567" y2="248.3352" gradientTransform="matrix(-1 0 0 -1 4060.8828 291.276)">
		<stop  offset="0.1879" style="stop-color:#000000"/>
		<stop  offset="0.2858" style="stop-color:#040405"/>
		<stop  offset="0.3964" style="stop-color:#121112"/>
		<stop  offset="0.5133" style="stop-color:#272629"/>
		<stop  offset="0.6336" style="stop-color:#454248"/>
		<stop  offset="0.7091" style="stop-color:#5C5860"/>
		<stop  offset="0.9636" style="stop-color:#7A7580"/>
	</linearGradient>
	<path class="st8" d="M1796.6,143.7c-3.3-0.2-8.2-28.2-12.1-28.7c-20.5-2.7-37.1-19.1-26.2-11.8c0.9,0.6,12.3,5,7.9,2.8
		c-5.4-2.8-12.3-10.8-14.2-13.9c-2.9-4.6-3.7-5.4-8.4-9.5c-1.5-1.4-5.1-4.2-11.3-13.9c4.2,6.9,3.8,9.3,4.4,9.8
		c0.9,0.9,7.6,6.3,9.5,9.9c1.1,2.2,4,13.3,4,14.1c0,1.4-5.7-5.7-9.9-11.1c-2.8-3.5-4.9-6.3-4.5-5.5c4.9,8.9,19.1,33.6,31.1,40.3
		c-19.8-23.9-14.8-27.7-15.1-29c3.1,8.6,12.1,14.3,19.6,17.8c6.6,3.1,6.7,2.4,12,7.3c6.8,6.4,8.9,28.3,15.7,34.4L1796.6,143.7z"/>
	
		<linearGradient id="SVGID_7_" gradientUnits="userSpaceOnUse" x1="2881.1831" y1="290.6998" x2="2856.0842" y2="196.4342" gradientTransform="matrix(-0.9845 0.1752 -0.1752 -0.9845 4868.8525 -140.3392)">
		<stop  offset="0" style="stop-color:#7A7580"/>
		<stop  offset="3.580363e-03" style="stop-color:#78737E"/>
		<stop  offset="6.348640e-02" style="stop-color:#58545C"/>
		<stop  offset="0.1289" style="stop-color:#3D3A40"/>
		<stop  offset="0.2025" style="stop-color:#262528"/>
		<stop  offset="0.2864" style="stop-color:#151416"/>
		<stop  offset="0.3864" style="stop-color:#090909"/>
		<stop  offset="0.5188" style="stop-color:#020202"/>
		<stop  offset="0.8121" style="stop-color:#000000"/>
	</linearGradient>
	<path class="st9" d="M2011.5,83.1c6.6,5.6,21.8,24,35.7,35.8c-2.2-3.2-7.7-9.2-12.3-14c-2.1-2.2-4-4.1-5.2-5.5
		c-9.4-9.8-26.1-30.2-29.9-29c-5.4,2.2-30.3,35-40.3,40.7c2.7-4.2,30-31.2,30.8-33.7c-5.2,6.1-19.8,19.3-24.3,24.3
		c-3,3.3-6.4,6.3-13.8,14.3c0.3,0.2,1.5,0.8,1.8,1c0,0,4,2.4,5.2,3.2c5.1-4.9,11.3-15.9,13.4-18c20.5-20.8,22.8-24.7,25.5-26.9
		c1.4-1.1-3,9.5-14.3,29.5c7.9-12,15.6-28,16.8-27.7c1.6,0.3,0.4,9.2-1.2,19.7l-4.4,0.4c-1.9,11.5-9.9,22.3-13.5,26.1
		c6.3-5.9,12.7-16.6,14.3-25.3l4.5-0.2c1.5-8.6,2.8-17.4,2.9-20.4c1.3,1.2,10.7,26.1,2.7,1c-0.6-1.8,32.9,41.6,34.7,43
		C2042.3,123,2009.3,81.1,2011.5,83.1z"/>
	<rect x="1656" y="-61.6" class="st10" width="450" height="450"/>
	<g>
		<path class="st2" d="M1067.5,155.1c16.6-1,35.8-10.3,49.9-24.4c7.6-2.5,10-3,11.8-4.1c13.4-3.2,25.1-37.5,38.5-44.9
			c10.7-6.4,29.3-17.4,31.1-14.1c-1.1,8.1,55.2,57,62.3,59.1c19.6,8.5,70.8-5.4,84.5-7.2c23.8-3.1,21.2,4.3,28.9,9.9
			c8.9,9.1,10.3,3.2,16.2,5.5c6.2,6.4,22.6-16.9,28.9-23.3c27.1-27.6,27.4-31.4,45-41.9c11.6,1.1,39.4,48,86.7,48
			c14.8,0,24,21.6,51.1,37.1"/>
		<path class="st3" d="M1067.5,155c4.7-0.3,9.4-1.2,13.9-2.6c4.5-1.4,8.9-3.2,13.1-5.3c8.4-4.3,16.2-9.9,22.9-16.5l0,0l0,0l6-1.9
			c1-0.3,2-0.6,3-1c1-0.3,2-0.7,2.8-1.2l0,0l0,0c1.9-0.5,3.6-1.5,5.1-2.7s2.9-2.6,4.2-4.1c2.6-3,4.8-6.3,7-9.6
			c4.3-6.6,8.3-13.5,13.1-19.8c2.4-3.1,5-6.2,8.4-8.4c3.4-2.1,6.8-4.1,10.2-6c3.4-2,6.9-3.9,10.5-5.6c1.8-0.9,3.6-1.7,5.4-2.4
			c0.9-0.4,1.9-0.7,2.9-0.9c0.5-0.1,1-0.2,1.5-0.2s1.2,0.1,1.5,0.7v0.1v0.1c-0.1,0.8,0.3,1.6,0.7,2.4s0.9,1.5,1.4,2.3
			c1,1.5,2.2,2.9,3.3,4.3c2.3,2.8,4.8,5.4,7.3,8c5.1,5.2,10.3,10.1,15.7,15s10.8,9.6,16.4,14.2c2.8,2.3,5.6,4.6,8.5,6.8
			c1.4,1.1,2.9,2.2,4.4,3.2c0.7,0.5,1.5,1,2.2,1.5c0.8,0.5,1.5,0.9,2.3,1.2l0,0l0,0c4.5,1.9,9.5,2.4,14.4,2.6s9.8-0.1,14.7-0.5
			c9.8-0.9,19.6-2.5,29.2-4.4c4.8-0.9,9.7-1.9,14.5-2.9c4.8-1,9.7-2,14.6-2.5c2.5-0.3,4.9-0.4,7.4-0.4c2.5,0.1,5,0.3,7.4,1.1
			c2.4,0.8,4.5,2.5,6.1,4.4s3.2,3.8,5.1,5.2l0,0l0,0l1.6,1.5c0.6,0.5,1.1,1,1.7,1.4c1.2,0.9,2.4,1.6,3.8,2c1.4,0.4,2.8,0.1,4.3-0.1
			c1.5-0.2,3.2-0.1,4.6,0.5h0.1l0.1,0.1c0.7,0.7,1.6,1,2.5,1c1,0,1.9-0.4,2.8-0.9c1.8-0.9,3.4-2.3,5-3.6c3.1-2.8,5.9-5.9,8.7-9.1
			c2.8-3.2,5.4-6.5,8.2-9.6l8.8-9.1c5.8-6.1,11.5-12.3,17.3-18.4c2.9-3,6-5.9,9.4-8.5s6.9-4.9,10.6-7l0.1-0.1h0.2
			c1.9,0.2,3.5,1.2,4.9,2.2c1.5,1,2.8,2.1,4.1,3.2c2.6,2.3,5.1,4.7,7.6,7c5,4.7,10.1,9.4,15.4,13.7c2.7,2.2,5.4,4.3,8.3,6.2
			c1.4,1,2.9,1.9,4.3,2.8c1.5,0.9,2.9,1.8,4.4,2.6c3,1.7,6.1,3.2,9.3,4.5c3.2,1.3,6.4,2.5,9.8,3.3c3.3,0.9,6.7,1.5,10.1,2l2.6,0.2
			c0.9,0.1,1.7,0.2,2.6,0.2c1.7,0.1,3.4,0.1,5.2,0.2c3.5,0.4,6.7,2.1,9.5,4.2c2.8,2,5.4,4.4,7.9,6.8c5,4.8,9.8,9.7,15,14.2
			s10.8,8.5,16.8,12v0.1c-6-3.4-11.7-7.4-17-11.9c-5.3-4.4-10.2-9.3-15.2-14.1c-2.5-2.4-5-4.7-7.8-6.7s-5.9-3.6-9.3-4
			c-1.7-0.2-3.4-0.2-5.1-0.2c-0.9,0-1.7-0.1-2.6-0.2l-2.6-0.2c-3.4-0.5-6.9-1-10.2-2c-3.4-0.8-6.6-2-9.8-3.3
			c-3.2-1.4-6.3-2.8-9.3-4.5c-1.5-0.8-3-1.7-4.5-2.6s-2.9-1.8-4.3-2.8c-2.9-1.9-5.6-4-8.3-6.2c-5.4-4.3-10.5-9-15.6-13.7
			c-2.5-2.4-5-4.7-7.6-7c-1.3-1.1-2.6-2.2-4-3.1s-2.9-1.8-4.5-2l0.3-0.1c-3.6,2.2-7.1,4.4-10.5,7c-3.3,2.5-6.4,5.4-9.3,8.4
			c-5.8,6-11.5,12.3-17.4,18.4l-8.8,9.1c-2.8,3.1-5.4,6.4-8.2,9.6c-2.8,3.2-5.6,6.3-8.8,9.2c-1.6,1.4-3.3,2.8-5.2,3.7
			c-1,0.5-2,0.9-3.2,1c-1.1,0.1-2.4-0.4-3.2-1.2l0.1,0.1c-1.3-0.6-2.8-0.7-4.2-0.5s-3.1,0.5-4.6,0c-1.5-0.4-2.9-1.2-4.1-2.2
			c-0.6-0.4-1.2-1-1.8-1.5l-1.6-1.6h0.1c-2.1-1.5-3.7-3.5-5.3-5.3c-1.6-1.9-3.5-3.4-5.7-4.2c-4.6-1.5-9.6-1.2-14.5-0.7
			c-4.9,0.4-9.7,1.5-14.6,2.5c-4.8,1-9.7,2-14.5,2.9c-9.7,1.8-19.5,3.5-29.3,4.3c-4.9,0.4-9.9,0.7-14.8,0.5
			c-4.9-0.2-10-0.8-14.6-2.7l0,0c-0.9-0.3-1.7-0.8-2.5-1.3c-0.8-0.5-1.5-1-2.3-1.5c-1.5-1-2.9-2.1-4.4-3.2c-2.9-2.2-5.7-4.5-8.5-6.8
			c-5.6-4.6-11-9.4-16.4-14.3c-5.3-4.9-10.6-9.9-15.7-15c-2.5-2.6-5-5.2-7.3-8c-1.2-1.4-2.3-2.8-3.3-4.3c-0.5-0.8-1-1.5-1.4-2.3
			s-0.8-1.7-0.8-2.7v0.2c-0.2-0.3-0.6-0.5-1.1-0.5s-0.9,0.1-1.4,0.2c-0.9,0.2-1.9,0.5-2.8,0.9c-1.8,0.7-3.6,1.5-5.4,2.4
			c-3.5,1.7-7,3.6-10.4,5.6s-6.8,4-10.2,6c-3.3,2.1-5.9,5.1-8.3,8.2c-4.8,6.3-8.7,13.2-13.1,19.8c-2.2,3.3-4.4,6.6-7,9.6
			c-1.3,1.5-2.7,2.9-4.2,4.2c-1.6,1.2-3.3,2.3-5.3,2.8l0,0c-0.9,0.5-1.9,0.9-2.9,1.2s-2,0.6-3,1l-6,1.9l0,0
			c-6.7,6.7-14.5,12.2-23,16.5c-4.2,2.1-8.6,3.9-13.1,5.3C1076.9,153.9,1072.3,154.8,1067.5,155L1067.5,155z"/>
	</g>
	<g>
		<path class="st2" d="M1488.6,180.7c-15.4-7-22.9-20-36.9-48c0,0-33.7-11.8-44.7-24.7c-33.2-64-58.8-80-66-101.3
			c-1.1-3-3.4-6.2-8.7-6c-3.4,0.1-11.2,16.7-20.7,31.1c-15.5,48.4-61.1,60.9-59.6,61.9c-1.5-1-12.8,28.2-64.3,84.4"/>
		<path class="st3" d="M1488.5,180.7c-4.7-2.1-9-5.1-12.7-8.7c-3.7-3.6-6.7-7.8-9.5-12.1c-2.8-4.3-5.3-8.8-7.7-13.4
			c-2.4-4.6-4.7-9.1-7.1-13.7l0.1,0.1c-4-1.4-8-3-12-4.7c-3.9-1.7-7.8-3.5-11.7-5.4c-3.8-1.9-7.6-4-11.2-6.4s-7.1-4.9-10-8.2l0,0
			l0,0c-6.6-12.6-13.7-24.9-21.4-36.8c-3.8-6-7.9-11.8-12.1-17.5c-4.2-5.7-8.5-11.3-13-16.9c-4.4-5.6-8.9-11.1-12.9-17
			c-1-1.4-1.9-3-2.8-4.5c-0.5-0.7-0.9-1.6-1.3-2.4l-1.2-2.4c-0.7-1.6-1.3-3.4-2-4.9c-0.7-1.6-1.8-2.9-3.3-3.7
			c-0.7-0.4-1.6-0.7-2.4-0.8c-0.4-0.1-0.8-0.1-1.3-0.1h-0.6h-0.3c-0.1,0-0.1,0-0.2,0c-0.7,0.3-1.3,0.9-1.9,1.5
			c-0.6,0.7-1.1,1.4-1.6,2.1c-2,2.9-3.8,6-5.6,9c-3.6,6.1-7.1,12.3-11,18.2l0.1-0.1c-2.3,7.1-5.3,13.9-9.2,20.3s-8.5,12.2-13.8,17.5
			c-5.3,5.3-11.1,9.9-17.4,13.9c-3.1,2-6.4,3.9-9.7,5.6c-1.7,0.8-3.3,1.7-5,2.4l-2.5,1.2l-1.2,0.6c-0.2,0.1-0.4,0.2-0.6,0.3
			c-0.1,0.1-0.2,0.1-0.3,0.2c0,0-0.1,0.1-0.1,0l0,0c0,0,0,0,0-0.1s0-0.2,0-0.2c0-0.1-0.1-0.1-0.1-0.1l-0.5,0.8c0.1,0.1,0.3,0,0.3,0
			s0,0-0.1,0.1s-0.2,0.2-0.2,0.3c-0.2,0.2-0.3,0.4-0.5,0.6c-0.3,0.4-0.6,0.9-0.9,1.4l-1.7,2.8l-3.5,5.7c-2.3,3.8-4.8,7.5-7.2,11.2
			c-5,7.3-10.2,14.5-15.6,21.5c-10.8,14-22.5,27.5-34.5,40.5l-0.1-0.1c5.9-6.6,11.8-13.2,17.5-20c5.7-6.8,11.3-13.7,16.6-20.7
			c5.4-7,10.6-14.2,15.5-21.6c2.5-3.7,4.9-7.4,7.2-11.2l3.4-5.7l1.7-2.9c0.3-0.5,0.6-1,0.9-1.4c0.2-0.2,0.3-0.5,0.5-0.7
			c0.1-0.1,0.2-0.2,0.3-0.4c0.1-0.1,0.1-0.1,0.3-0.2c0.1-0.1,0.4-0.1,0.7,0l-0.5,0.8c-0.1-0.1-0.1-0.1-0.2-0.2s-0.1-0.3,0-0.3
			c0-0.1,0.1-0.1,0.1-0.2l0.1-0.1c0.1-0.1,0.1-0.1,0.2-0.2s0.2-0.1,0.3-0.2c0.2-0.1,0.4-0.2,0.6-0.3l1.3-0.6l2.5-1.2
			c1.7-0.8,3.3-1.6,5-2.4c3.3-1.7,6.5-3.5,9.6-5.5c6.2-4,12-8.6,17.2-13.8c5.2-5.2,9.8-11,13.6-17.3c3.8-6.3,6.9-13,9.1-20.1v-0.1
			v-0.1c3.9-5.9,7.4-12,11.1-18.2c1.8-3.1,3.6-6.1,5.7-9c0.5-0.7,1.1-1.5,1.7-2.1c0.6-0.7,1.2-1.4,2.2-1.8c0.1,0,0.3-0.1,0.4-0.1
			h0.3h0.7c0.5,0,0.9,0.1,1.4,0.1c0.9,0.2,1.8,0.4,2.6,0.9c1.7,0.9,2.9,2.4,3.6,4.1c0.7,1.7,1.3,3.3,2,5l1.2,2.4
			c0.4,0.8,0.8,1.6,1.2,2.3c0.9,1.5,1.8,3.1,2.8,4.5c3.9,5.9,8.4,11.4,12.8,17c4.4,5.6,8.7,11.2,12.9,16.9
			c4.1,5.8,8.2,11.6,12.1,17.6c7.7,11.9,14.8,24.3,21.3,36.9l0,0c2.8,3.2,6.3,5.8,9.8,8.1c3.6,2.4,7.3,4.4,11.1,6.4
			c3.8,1.9,7.7,3.8,11.6,5.4c3.9,1.7,7.9,3.3,11.9,4.7h0.1v0.1c2.3,4.6,4.6,9.2,7,13.8c2.4,4.5,4.9,9.1,7.7,13.4
			c2.8,4.3,5.8,8.5,9.5,12.1C1479.6,175.5,1483.9,178.5,1488.5,180.7L1488.5,180.7z"/>
	</g>
	
		<linearGradient id="SVGID_8_" gradientUnits="userSpaceOnUse" x1="1191.5076" y1="238.4674" x2="1379.953" y2="-279.2821" gradientTransform="matrix(1 0 0 -1 0 291.276)">
		<stop  offset="0" style="stop-color:#BFBFBF"/>
		<stop  offset="5.276039e-03" style="stop-color:#B9B9B9"/>
		<stop  offset="4.496755e-02" style="stop-color:#918F93"/>
		<stop  offset="8.092022e-02" style="stop-color:#747177"/>
		<stop  offset="0.1116" style="stop-color:#625F66"/>
		<stop  offset="0.1333" style="stop-color:#5C5860"/>
		<stop  offset="0.1713" style="stop-color:#48454C"/>
		<stop  offset="0.2346" style="stop-color:#2E2C30"/>
		<stop  offset="0.3033" style="stop-color:#1A191B"/>
		<stop  offset="0.3792" style="stop-color:#0B0B0C"/>
		<stop  offset="0.4678" style="stop-color:#030303"/>
		<stop  offset="0.6" style="stop-color:#000000"/>
	</linearGradient>
	<path class="st11" d="M1332.5,2.1c-0.5,0.1-0.9,0.3-1.2,0.8c0,0-15.6,27.2-19,31c0,0-3.5,13.8-11,23.8
		c-5.6,7.5-27.8,37.3-38.6,44.3c-1.5-2.3,18.5-23.9,21.3-28.1c-14.5,12.5-19.5,17.9-20.4,18.8c-1.5,2.8-16.9,31.3-31.1,46.5
		c8.5-19.8,14.6-28.6,17.9-35c3.6-7,8.1-9.3,13.6-15.5c-3,2.1-9.7,5.9-12.6,8.8c-21.2,42.1-55.7,77.9-92.9,116.3
		c-6.7,6.9-21,21.4-59.5,23.4c26.6,10.5,75.9-24.1,90.5-23.4c-41,75.9-18.4,13.3-23,21.4c-6.6,11.8-13.9,36.4-20.7,47.7
		c15.8-12.8,36.5-51.7,51.2-66.7c15.8-16.1,41.8-42.8,53.9-62.1c-11.4,10.8-39.8,42.7-47,49.5c-6.2,5.9-30.1,10.6-36.9,15.5
		c5.8-8.9,42.8-39,48-48.2c-5,6-44.1,37.8-60.3,50.7c21.1-17.5,37.8-40,45.8-48.6c8.1-8.8,34.9-33.4,44-41
		c0.3,3.9-26,44.6-32.8,56.8c6.9-9.9,43.2-58.2,43.9-59.4c8.2-13.9,42.5-60.8,45.7-62.5c0,0-19.9,38.5-21,43.3
		c-3.2,14-8.3,35.3-8.3,35.3c6.1-19.4,24.2-65,42-98c-7.9,12.4-54.1,72.4-60.8,74.2c11.3-16,46.4-59.1,55.3-72.7
		c2.7-4.2,7-17.2,13.5-26C1325.2,18.9,1332.5,3,1332.5,2.1C1332.5,1.3,1332.5,1.3,1332.5,2.1z"/>
	
		<linearGradient id="SVGID_9_" gradientUnits="userSpaceOnUse" x1="1415.9264" y1="104.8076" x2="1475.6127" y2="193.296" gradientTransform="matrix(1 0 0 -1 0 291.276)">
		<stop  offset="0.2788" style="stop-color:#000000"/>
		<stop  offset="0.415" style="stop-color:#1D1B1E"/>
		<stop  offset="0.6056" style="stop-color:#3F3C42"/>
		<stop  offset="0.7609" style="stop-color:#545158"/>
		<stop  offset="0.8606" style="stop-color:#5C5860"/>
		<stop  offset="0.8774" style="stop-color:#625F66"/>
		<stop  offset="0.9011" style="stop-color:#747177"/>
		<stop  offset="0.9289" style="stop-color:#918F93"/>
		<stop  offset="0.9596" style="stop-color:#B9B9B9"/>
		<stop  offset="0.9636" style="stop-color:#BFBFBF"/>
	</linearGradient>
	<path class="st12" d="M1579.2,224.6c-16.8-3.6-56.4-16.2-68.6-28.2c0,0-0.1-0.1-0.1-0.2c-30.4-14.1-49.1-32.2-60.5-61.6
		c-7-1.7-36-16.9-39-19c5.6,6.2,19.7,20,31.3,23c3.3,8.5,28.7,32.8,28.7,32.8c-20.6-13.4-55.5-42.6-57-45.4
		c-0.9-0.9-23.2-47.8-37.5-65.3c2.8,4.2,20.1,39.1,21.5,43c-26.1-34.3-33.1-51.5-38.4-59.3c-16.7-24.8,1.7-2.7,1.7-2.7
		c-3.4-3.8-24.6-37.3-24.6-37.3c-0.3-0.4-0.8-0.7-1.2-0.8c0,0.8,7.3,16.7,10.5,21c6.5,8.8,15.8,29.3,18.5,33.5
		c8.8,13.6,41.8,68.9,54.5,95.2c-12.1-2.5-57.1-91.8-65-104.2c12,35.2,27.8,75,40,95c0,0-34.8-42-32.4-39.7
		c2.3,2.2,37,78.1,84.9,101.7c-14.2-18.1-13.2-44-24.4-66.9c9.1,7.6,41.6,35.6,51.4,42.5c13,9.3,58.7,34.8,68.6,35.9
		c-8.1-0.9-37.5-5.8-100.5-54c3,5.3,26.2,31.2,42.2,43.7c9.2,5.9,56.7,27.3,95.2,24.2c9.9-0.8-7-0.6,12.8-3.6
		C1590.4,227.8,1580.5,224.8,1579.2,224.6C1576.8,224.2,1581.6,225.1,1579.2,224.6z"/>
	
		<linearGradient id="SVGID_10_" gradientUnits="userSpaceOnUse" x1="1484.3052" y1="-55.1435" x2="1612.3644" y2="77.4657" gradientTransform="matrix(1 0 0 -1 0 291.276)">
		<stop  offset="0.1879" style="stop-color:#000000"/>
		<stop  offset="0.3142" style="stop-color:#040405"/>
		<stop  offset="0.457" style="stop-color:#121112"/>
		<stop  offset="0.6078" style="stop-color:#272629"/>
		<stop  offset="0.7632" style="stop-color:#454248"/>
		<stop  offset="0.8606" style="stop-color:#5C5860"/>
		<stop  offset="1" style="stop-color:#7A7580"/>
	</linearGradient>
	<path class="st13" d="M1536.6,290.7c1.2,1.1,2.3,2.2,3.5,3.2c-1.2-1.9-2.9-3.8-4.7-5.6C1535.8,289.1,1536.2,289.9,1536.6,290.7z"/>
	
		<linearGradient id="SVGID_11_" gradientUnits="userSpaceOnUse" x1="1501.5112" y1="-71.7541" x2="1629.5697" y2="60.8544" gradientTransform="matrix(1 0 0 -1 0 291.276)">
		<stop  offset="0.1879" style="stop-color:#000000"/>
		<stop  offset="0.3142" style="stop-color:#040405"/>
		<stop  offset="0.457" style="stop-color:#121112"/>
		<stop  offset="0.6078" style="stop-color:#272629"/>
		<stop  offset="0.7632" style="stop-color:#454248"/>
		<stop  offset="0.8606" style="stop-color:#5C5860"/>
		<stop  offset="1" style="stop-color:#7A7580"/>
	</linearGradient>
	<path class="st14" d="M1501.1,360.9c0.7,1.4,1.3,2.5,1.7,3.4C1502.4,363.4,1501.8,362.3,1501.1,360.9z"/>
	
		<linearGradient id="SVGID_12_" gradientUnits="userSpaceOnUse" x1="2790.6013" y1="139.0366" x2="2895.8955" y2="248.0719" gradientTransform="matrix(-1 0 0 -1 4060.8828 291.276)">
		<stop  offset="0.1879" style="stop-color:#000000"/>
		<stop  offset="0.2858" style="stop-color:#040405"/>
		<stop  offset="0.3964" style="stop-color:#121112"/>
		<stop  offset="0.5133" style="stop-color:#272629"/>
		<stop  offset="0.6336" style="stop-color:#454248"/>
		<stop  offset="0.7091" style="stop-color:#5C5860"/>
		<stop  offset="0.9636" style="stop-color:#7A7580"/>
	</linearGradient>
	<path class="st15" d="M1261.5,143.9c-3.3-0.2-8.2-28.2-12.1-28.7c-20.5-2.7-37.1-19.1-26.2-11.8c0.9,0.6,12.3,5,7.9,2.8
		c-5.4-2.8-12.3-10.8-14.2-13.9c-2.9-4.6-3.7-5.4-8.4-9.5c-1.5-1.4-5.1-4.2-11.3-13.9c4.2,6.9,3.8,9.3,4.4,9.8
		c0.9,0.9,7.6,6.3,9.5,9.9c1.1,2.2,4,13.3,4,14.1c0,1.4-5.7-5.7-9.9-11.1c-2.8-3.5-4.9-6.3-4.5-5.5c4.9,8.9,19.1,33.6,31.1,40.3
		c-19.8-23.9-14.8-27.7-15.1-29c3.1,8.6,12.1,14.3,19.6,17.8c6.6,3.1,6.7,2.4,12,7.3c6.8,6.4,8.9,28.3,15.7,34.4L1261.5,143.9z"/>
	
		<linearGradient id="SVGID_13_" gradientUnits="userSpaceOnUse" x1="3407.9504" y1="384.2064" x2="3382.8518" y2="289.9409" gradientTransform="matrix(-0.9845 0.1752 -0.1752 -0.9845 4868.8525 -140.3392)">
		<stop  offset="0" style="stop-color:#7A7580"/>
		<stop  offset="3.580363e-03" style="stop-color:#78737E"/>
		<stop  offset="6.348640e-02" style="stop-color:#58545C"/>
		<stop  offset="0.1289" style="stop-color:#3D3A40"/>
		<stop  offset="0.2025" style="stop-color:#262528"/>
		<stop  offset="0.2864" style="stop-color:#151416"/>
		<stop  offset="0.3864" style="stop-color:#090909"/>
		<stop  offset="0.5188" style="stop-color:#020202"/>
		<stop  offset="0.8121" style="stop-color:#000000"/>
	</linearGradient>
	<path class="st16" d="M1476.5,83.3c6.6,5.6,21.8,24,35.7,35.8c-2.2-3.2-7.7-9.2-12.3-14c-2.1-2.2-4-4.1-5.2-5.5
		c-9.4-9.8-26.1-30.2-29.9-29c-5.4,2.2-30.3,35-40.3,40.7c2.7-4.2,30-31.2,30.8-33.7c-5.2,6.1-19.8,19.3-24.3,24.3
		c-3,3.3-6.4,6.3-13.8,14.3c0.3,0.2,1.5,0.8,1.8,1c0,0,4,2.4,5.2,3.2c5.1-4.9,11.3-15.9,13.4-18c20.5-20.8,22.8-24.7,25.5-26.9
		c1.4-1.1-3,9.5-14.3,29.5c7.9-12,15.6-28,16.8-27.7c1.6,0.3,0.4,9.2-1.2,19.7l-4.4,0.4c-1.9,11.5-9.9,22.3-13.5,26.1
		c6.3-5.9,12.7-16.6,14.3-25.3l4.5-0.2c1.5-8.6,2.8-17.4,2.9-20.4c1.3,1.2,10.7,26.1,2.7,1c-0.6-1.8,32.9,41.6,34.7,43
		C1507.3,123.2,1474.2,81.4,1476.5,83.3z"/>
	<rect x="1121" y="-61.3" class="st10" width="450" height="450"/>
	<g>
		<path class="st2" d="M532.5,155.3c16.6-1,35.8-10.3,49.9-24.4c7.6-2.5,10-3,11.8-4.1c13.4-3.2,25.1-37.5,38.5-44.9
			c10.7-6.4,29.3-17.4,31.1-14.1c-1.1,8.1,55.2,57,62.3,59.1c19.6,8.5,70.8-5.4,84.5-7.2c23.8-3.1,21.2,4.3,28.9,9.9
			c8.9,9.1,10.3,3.2,16.2,5.5c6.2,6.4,22.6-16.9,28.9-23.3c27.1-27.6,27.4-31.4,45-41.9c11.6,1.1,39.4,48,86.7,48
			c14.8,0,24,21.6,51.1,37.1"/>
		<path class="st3" d="M532.5,155.3c4.7-0.3,9.4-1.2,13.9-2.6c4.5-1.4,8.9-3.2,13.1-5.3c8.4-4.3,16.2-9.9,22.9-16.5l0,0l0,0l6-1.9
			c1-0.3,2-0.6,3-1c1-0.3,2-0.7,2.8-1.2l0,0l0,0c1.9-0.5,3.6-1.5,5.1-2.7s2.9-2.6,4.2-4.1c2.6-3,4.8-6.3,7-9.6
			c4.3-6.6,8.3-13.5,13.1-19.8c2.4-3.1,5-6.2,8.4-8.4c3.4-2.1,6.8-4.1,10.2-6c3.4-2,6.9-3.9,10.5-5.6c1.8-0.9,3.6-1.7,5.4-2.4
			c0.9-0.4,1.9-0.7,2.9-0.9c0.5-0.1,1-0.2,1.5-0.2s1.2,0.1,1.5,0.7v0.1V68c-0.1,0.8,0.3,1.6,0.7,2.4c0.4,0.8,0.9,1.5,1.4,2.3
			c1,1.5,2.2,2.9,3.3,4.3c2.3,2.8,4.8,5.4,7.3,8c5.1,5.2,10.3,10.1,15.7,15c5.4,4.9,10.8,9.6,16.4,14.2c2.8,2.3,5.6,4.6,8.5,6.8
			c1.4,1.1,2.9,2.2,4.4,3.2c0.7,0.5,1.5,1,2.2,1.5c0.8,0.5,1.5,0.9,2.3,1.2l0,0l0,0c4.5,1.9,9.5,2.4,14.4,2.6
			c4.9,0.2,9.8-0.1,14.7-0.5c9.8-0.9,19.6-2.5,29.2-4.4c4.8-0.9,9.7-1.9,14.5-2.9s9.7-2,14.6-2.5c2.5-0.3,4.9-0.4,7.4-0.4
			c2.5,0.1,5,0.3,7.4,1.1c2.4,0.8,4.5,2.5,6.1,4.4c1.6,1.9,3.2,3.8,5.1,5.2l0,0l0,0l1.6,1.5c0.6,0.5,1.1,1,1.7,1.4
			c1.2,0.9,2.4,1.6,3.8,2c1.4,0.4,2.8,0.1,4.3-0.1c1.5-0.2,3.2-0.1,4.6,0.5h0.1l0.1,0.1c0.7,0.7,1.6,1,2.5,1c1,0,1.9-0.4,2.8-0.9
			c1.8-0.9,3.4-2.3,5-3.6c3.1-2.8,5.9-5.9,8.7-9.1s5.4-6.5,8.2-9.6l8.8-9.1c5.8-6.1,11.5-12.3,17.3-18.4c2.9-3,6-5.9,9.4-8.5
			c3.4-2.6,6.9-4.9,10.6-7l0.1-0.1h0.2c1.9,0.2,3.5,1.2,4.9,2.2c1.5,1,2.8,2.1,4.1,3.2c2.6,2.3,5.1,4.7,7.6,7
			c5,4.7,10.1,9.4,15.4,13.7c2.7,2.2,5.4,4.3,8.3,6.2c1.4,1,2.9,1.9,4.3,2.8c1.5,0.9,2.9,1.8,4.4,2.6c3,1.7,6.1,3.2,9.3,4.5
			c3.2,1.3,6.4,2.5,9.8,3.3c3.3,0.9,6.7,1.5,10.1,2l2.6,0.2c0.9,0.1,1.7,0.2,2.6,0.2c1.7,0.1,3.4,0.1,5.2,0.2
			c3.5,0.4,6.7,2.1,9.5,4.2c2.8,2,5.4,4.4,7.9,6.8c5,4.8,9.8,9.7,15,14.2c5.2,4.5,10.8,8.5,16.8,12v0.1c-6-3.4-11.7-7.4-17-11.9
			c-5.3-4.4-10.2-9.3-15.2-14.1c-2.5-2.4-5-4.7-7.8-6.7c-2.8-2-5.9-3.6-9.3-4c-1.7-0.2-3.4-0.2-5.1-0.2c-0.9,0-1.7-0.1-2.6-0.2
			l-2.6-0.2c-3.4-0.5-6.9-1-10.2-2c-3.4-0.8-6.6-2-9.8-3.3c-3.2-1.4-6.3-2.8-9.3-4.5c-1.5-0.8-3-1.7-4.5-2.6s-2.9-1.8-4.3-2.8
			c-2.9-1.9-5.6-4-8.3-6.2c-5.4-4.3-10.5-9-15.6-13.7c-2.5-2.4-5-4.7-7.6-7c-1.3-1.1-2.6-2.2-4-3.1c-1.4-0.9-2.9-1.8-4.5-2l0.3-0.1
			c-3.6,2.2-7.1,4.4-10.5,7c-3.3,2.5-6.4,5.4-9.3,8.4c-5.8,6-11.5,12.3-17.4,18.4l-8.8,9.1c-2.8,3.1-5.4,6.4-8.2,9.6
			c-2.8,3.2-5.6,6.3-8.8,9.2c-1.6,1.4-3.3,2.8-5.2,3.7c-1,0.5-2,0.9-3.2,1c-1.1,0.1-2.4-0.4-3.2-1.2l0.1,0.1
			c-1.3-0.6-2.8-0.7-4.2-0.5s-3.1,0.5-4.6,0c-1.5-0.4-2.9-1.2-4.1-2.2c-0.6-0.4-1.2-1-1.8-1.5l-1.6-1.6h0.1
			c-2.1-1.5-3.7-3.5-5.3-5.3c-1.6-1.9-3.5-3.4-5.7-4.2c-4.6-1.5-9.6-1.2-14.5-0.7c-4.9,0.4-9.7,1.5-14.6,2.5c-4.8,1-9.7,2-14.5,2.9
			c-9.7,1.8-19.5,3.5-29.3,4.3c-4.9,0.4-9.9,0.7-14.8,0.5c-4.9-0.2-10-0.8-14.6-2.7l0,0c-0.9-0.3-1.7-0.8-2.5-1.3s-1.5-1-2.3-1.5
			c-1.5-1-2.9-2.1-4.4-3.2c-2.9-2.2-5.7-4.5-8.5-6.8c-5.6-4.6-11-9.4-16.4-14.3c-5.3-4.9-10.6-9.9-15.7-15c-2.5-2.6-5-5.2-7.3-8
			c-1.2-1.4-2.3-2.8-3.3-4.3c-0.5-0.8-1-1.5-1.4-2.3c-0.4-0.8-0.8-1.7-0.8-2.7V68c-0.2-0.3-0.6-0.5-1.1-0.5s-0.9,0.1-1.4,0.2
			c-0.9,0.2-1.9,0.5-2.8,0.9c-1.8,0.7-3.6,1.5-5.4,2.4c-3.5,1.7-7,3.6-10.4,5.6c-3.4,2-6.8,4-10.2,6c-3.3,2.1-5.9,5.1-8.3,8.2
			c-4.8,6.3-8.7,13.2-13.1,19.8c-2.2,3.3-4.4,6.6-7,9.6c-1.3,1.5-2.7,2.9-4.2,4.2c-1.6,1.2-3.3,2.3-5.3,2.8l0,0
			c-0.9,0.5-1.9,0.9-2.9,1.2s-2,0.6-3,1l-6,1.9l0,0c-6.7,6.7-14.5,12.2-23,16.5c-4.2,2.1-8.6,3.9-13.1,5.3
			C541.9,154.1,537.2,155.1,532.5,155.3L532.5,155.3z"/>
	</g>
	<g>
		<path class="st2" d="M953.5,180.9c-15.4-7-22.9-20-36.9-48c0,0-33.7-11.8-44.7-24.7c-33.2-64-58.8-80-66-101.3
			c-1.1-3-3.4-6.2-8.7-6C793.8,1,786,17.6,776.5,32c-15.5,48.4-61.1,60.9-59.6,61.9c-1.5-1-12.8,28.2-64.3,84.4"/>
		<path class="st3" d="M953.5,181c-4.7-2.1-9-5.1-12.7-8.7c-3.7-3.6-6.7-7.8-9.5-12.1s-5.3-8.8-7.7-13.4c-2.4-4.6-4.7-9.1-7.1-13.7
			l0.1,0.1c-4-1.4-8-3-12-4.7c-3.9-1.7-7.8-3.5-11.7-5.4c-3.8-1.9-7.6-4-11.2-6.4c-3.6-2.4-7.1-4.9-10-8.2l0,0l0,0
			c-6.6-12.6-13.7-24.9-21.4-36.8c-3.8-6-7.9-11.8-12.1-17.5s-8.5-11.3-13-16.9c-4.4-5.6-8.9-11.1-12.9-17c-1-1.4-1.9-3-2.8-4.5
			c-0.5-0.7-0.9-1.6-1.3-2.4L807,11c-0.7-1.6-1.3-3.4-2-4.9c-0.7-1.6-1.8-2.9-3.3-3.7c-0.7-0.4-1.6-0.7-2.4-0.8
			c-0.4-0.1-0.8-0.1-1.3-0.1h-0.6h-0.3c-0.1,0-0.1,0-0.2,0c-0.7,0.3-1.3,0.9-1.9,1.5c-0.6,0.7-1.1,1.4-1.6,2.1c-2,2.9-3.8,6-5.6,9
			c-3.6,6.1-7.1,12.3-11,18.2l0.1-0.1c-2.3,7.1-5.3,13.9-9.2,20.3c-3.9,6.4-8.5,12.2-13.8,17.5c-5.3,5.3-11.1,9.9-17.4,13.9
			c-3.1,2-6.4,3.9-9.7,5.6c-1.7,0.8-3.3,1.7-5,2.4l-2.3,1.1l-1.2,0.6c-0.2,0.1-0.4,0.2-0.6,0.3c-0.1,0.1-0.2,0.1-0.3,0.2
			c0,0-0.1,0.1-0.1,0l0,0c0,0,0,0,0-0.1s0-0.2,0-0.2c0-0.1-0.1-0.1-0.1-0.1l-0.5,0.8c0.1,0.1,0.3,0,0.3,0s0,0-0.1,0.1
			c-0.1,0.1-0.2,0.2-0.2,0.3c-0.2,0.2-0.3,0.4-0.5,0.6c-0.3,0.4-0.6,0.9-0.9,1.4l-1.7,2.8l-3.5,5.7c-2.3,3.8-4.8,7.5-7.2,11.2
			c-5,7.3-10.2,14.5-15.6,21.5c-10.8,14-22.5,27.5-34.5,40.5l-0.1-0.1c5.9-6.6,11.8-13.2,17.5-20c5.7-6.8,11.3-13.7,16.6-20.7
			c5.4-7,10.6-14.2,15.5-21.6c2.5-3.7,4.9-7.4,7.2-11.2l3.4-5.7l1.7-2.9c0.3-0.5,0.6-1,0.9-1.4c0.2-0.2,0.3-0.5,0.5-0.7
			c0.1-0.1,0.2-0.2,0.3-0.4c0.1-0.1,0.1-0.1,0.3-0.2c0.1-0.1,0.4-0.1,0.7,0l-0.5,0.8c-0.1-0.1-0.1-0.1-0.2-0.2s-0.1-0.3,0-0.3
			c0-0.1,0.1-0.1,0.1-0.2l0.1-0.1c0.1-0.1,0.1-0.1,0.2-0.2s0.2-0.1,0.3-0.2c0.2-0.1,0.4-0.2,0.6-0.3l1.3-0.6l2.5-1.2
			c1.7-0.8,3.3-1.6,5-2.4c3.3-1.7,6.5-3.5,9.6-5.5c6.2-4,12-8.6,17.2-13.8c5.2-5.2,9.8-11,13.6-17.3c3.8-6.3,6.9-13,9.1-20.1V32
			v-0.1c3.9-5.9,7.4-12,11.1-18.2c1.8-3.1,3.6-6.1,5.7-9c0.5-0.7,1.1-1.5,1.7-2.1c0.6-0.7,1.2-1.4,2.2-1.8c0.1,0,0.3-0.1,0.4-0.1
			h0.3h0.7c0.5,0,0.9,0.1,1.4,0.1c0.9,0.2,1.8,0.4,2.6,0.9c1.7,0.9,2.9,2.4,3.6,4.1s1.3,3.3,2,5l1.2,2.4c0.4,0.8,0.8,1.6,1.2,2.3
			c0.9,1.5,1.8,3.1,2.8,4.5c3.9,5.9,8.4,11.4,12.8,17c4.4,5.6,8.7,11.2,12.9,16.9c4.1,5.8,8.2,11.6,12.1,17.6
			c7.7,11.9,14.8,24.3,21.3,36.9l0,0c2.8,3.2,6.3,5.8,9.8,8.1c3.6,2.4,7.3,4.4,11.1,6.4c3.8,1.9,7.7,3.8,11.6,5.4
			c3.9,1.7,7.9,3.3,11.9,4.7h0.1v0.1c2.3,4.6,4.6,9.2,7,13.8c2.4,4.5,4.9,9.1,7.7,13.4c2.8,4.3,5.8,8.5,9.5,12.1
			C944.6,175.8,948.9,178.7,953.5,181L953.5,181z"/>
	</g>
	
		<linearGradient id="SVGID_14_" gradientUnits="userSpaceOnUse" x1="656.4817" y1="238.1853" x2="844.9272" y2="-279.5642" gradientTransform="matrix(1 0 0 -1 0 291.276)">
		<stop  offset="0" style="stop-color:#BFBFBF"/>
		<stop  offset="5.276039e-03" style="stop-color:#B9B9B9"/>
		<stop  offset="4.496755e-02" style="stop-color:#918F93"/>
		<stop  offset="8.092022e-02" style="stop-color:#747177"/>
		<stop  offset="0.1116" style="stop-color:#625F66"/>
		<stop  offset="0.1333" style="stop-color:#5C5860"/>
		<stop  offset="0.1713" style="stop-color:#48454C"/>
		<stop  offset="0.2346" style="stop-color:#2E2C30"/>
		<stop  offset="0.3033" style="stop-color:#1A191B"/>
		<stop  offset="0.3792" style="stop-color:#0B0B0C"/>
		<stop  offset="0.4678" style="stop-color:#030303"/>
		<stop  offset="0.6" style="stop-color:#000000"/>
	</linearGradient>
	<path class="st17" d="M797.5,2.4c-0.5,0.1-0.9,0.3-1.2,0.8c0,0-15.6,27.2-19,31c0,0-3.5,13.8-11,23.8c-5.6,7.5-27.8,37.3-38.6,44.3
		c-1.5-2.3,18.5-23.9,21.3-28.1c-14.5,12.5-19.5,17.8-20.4,18.7c-1.5,2.8-16.9,31.3-31.1,46.5c8.5-19.8,14.6-28.6,17.9-35
		c3.6-7,8.1-9.3,13.6-15.5c-3,2.1-9.7,5.9-12.6,8.8c-21.2,42.1-55.7,77.9-92.9,116.3c-6.7,6.9-21,21.4-59.5,23.4
		c26.6,10.5,75.9-24.1,90.5-23.4c-41,75.9-18.4,13.3-23,21.4c-6.6,11.8-13.9,36.4-20.7,47.7c15.8-12.8,36.5-51.7,51.2-66.7
		c15.8-16.1,41.8-42.8,53.9-62.1c-11.4,10.8-39.8,42.7-47,49.5c-6.2,5.9-30.1,10.6-36.9,15.5c5.8-8.9,42.8-39,48-48.2
		c-5,6-44.1,37.8-60.3,50.7c21.1-17.5,37.8-40,45.8-48.6c8.1-8.8,34.9-33.4,44-41c0.3,3.9-26,44.6-32.8,56.8
		c6.9-9.9,43.2-58.2,43.9-59.4c8.2-13.9,42.5-60.8,45.7-62.5c0,0-19.9,38.5-21,43.3c-3.2,14-8.3,35.3-8.3,35.3
		c6.1-19.4,24.2-65,42-98c-7.9,12.4-54.1,72.4-60.8,74.2c11.3-16,46.4-59.1,55.3-72.7c2.7-4.2,7-17.2,13.5-26
		C790.2,19.1,797.5,3.2,797.5,2.4C797.4,1.6,797.4,1.6,797.5,2.4z"/>
	
		<linearGradient id="SVGID_15_" gradientUnits="userSpaceOnUse" x1="880.8585" y1="104.5068" x2="940.5447" y2="192.9953" gradientTransform="matrix(1 0 0 -1 0 291.276)">
		<stop  offset="0.2788" style="stop-color:#000000"/>
		<stop  offset="0.415" style="stop-color:#1D1B1E"/>
		<stop  offset="0.6056" style="stop-color:#3F3C42"/>
		<stop  offset="0.7609" style="stop-color:#545158"/>
		<stop  offset="0.8606" style="stop-color:#5C5860"/>
		<stop  offset="0.8774" style="stop-color:#625F66"/>
		<stop  offset="0.9011" style="stop-color:#747177"/>
		<stop  offset="0.9289" style="stop-color:#918F93"/>
		<stop  offset="0.9596" style="stop-color:#B9B9B9"/>
		<stop  offset="0.9636" style="stop-color:#BFBFBF"/>
	</linearGradient>
	<path class="st18" d="M1044.2,224.8c-16.8-3.6-56.4-16.2-68.6-28.2c0,0-0.1-0.1-0.1-0.2c-30.4-14.1-49.1-32.2-60.5-61.6
		c-7-1.7-36-16.9-39-19c5.6,6.2,19.7,20,31.3,23c3.3,8.5,28.7,32.8,28.7,32.8c-20.6-13.4-55.5-42.6-57-45.4
		c-0.9-0.9-23.2-47.8-37.5-65.3c2.8,4.2,20.1,39.1,21.5,43c-26.1-34.3-33.1-51.5-38.4-59.3c-16.7-24.8,1.7-2.7,1.7-2.7
		c-3.4-3.8-24.6-37.3-24.6-37.3c-0.3-0.4-0.8-0.7-1.2-0.8c0,0.8,7.3,16.7,10.5,21c6.5,8.8,15.8,29.3,18.5,33.5
		c8.8,13.6,41.8,68.9,54.5,95.2c-12.1-2.5-57.1-91.8-65-104.2c12,35.2,27.8,75,40,95c0,0-34.8-42-32.4-39.7
		c2.3,2.2,37,78.1,84.9,101.7c-14.2-18.1-13.2-44-24.4-66.9c9.1,7.6,41.6,35.6,51.4,42.5c13,9.3,58.7,34.8,68.6,35.9
		c-8.1-0.9-37.5-5.8-100.5-54c3,5.3,26.2,31.2,42.2,43.7c9.2,5.9,56.7,27.3,95.2,24.2c9.9-0.8-7-0.6,12.8-3.6
		C1055.4,228.1,1045.5,225,1044.2,224.8C1041.8,224.5,1046.5,225.4,1044.2,224.8z"/>
	
		<linearGradient id="SVGID_16_" gradientUnits="userSpaceOnUse" x1="949.2678" y1="-55.3822" x2="1077.327" y2="77.227" gradientTransform="matrix(1 0 0 -1 0 291.276)">
		<stop  offset="0.1879" style="stop-color:#000000"/>
		<stop  offset="0.3142" style="stop-color:#040405"/>
		<stop  offset="0.457" style="stop-color:#121112"/>
		<stop  offset="0.6078" style="stop-color:#272629"/>
		<stop  offset="0.7632" style="stop-color:#454248"/>
		<stop  offset="0.8606" style="stop-color:#5C5860"/>
		<stop  offset="1" style="stop-color:#7A7580"/>
	</linearGradient>
	<path class="st19" d="M1001.6,290.9c1.2,1.1,2.3,2.2,3.5,3.2c-1.2-1.9-2.9-3.8-4.7-5.6C1000.8,289.4,1001.2,290.1,1001.6,290.9z"/>
	
		<linearGradient id="SVGID_17_" gradientUnits="userSpaceOnUse" x1="966.4739" y1="-71.9929" x2="1094.5323" y2="60.6156" gradientTransform="matrix(1 0 0 -1 0 291.276)">
		<stop  offset="0.1879" style="stop-color:#000000"/>
		<stop  offset="0.3142" style="stop-color:#040405"/>
		<stop  offset="0.457" style="stop-color:#121112"/>
		<stop  offset="0.6078" style="stop-color:#272629"/>
		<stop  offset="0.7632" style="stop-color:#454248"/>
		<stop  offset="0.8606" style="stop-color:#5C5860"/>
		<stop  offset="1" style="stop-color:#7A7580"/>
	</linearGradient>
	<path class="st20" d="M966.1,361.1c0.7,1.4,1.3,2.5,1.7,3.4C967.4,363.7,966.8,362.5,966.1,361.1z"/>
	
		<linearGradient id="SVGID_18_" gradientUnits="userSpaceOnUse" x1="3325.6421" y1="138.7787" x2="3430.936" y2="247.8139" gradientTransform="matrix(-1 0 0 -1 4060.8828 291.276)">
		<stop  offset="0.1879" style="stop-color:#000000"/>
		<stop  offset="0.2858" style="stop-color:#040405"/>
		<stop  offset="0.3964" style="stop-color:#121112"/>
		<stop  offset="0.5133" style="stop-color:#272629"/>
		<stop  offset="0.6336" style="stop-color:#454248"/>
		<stop  offset="0.7091" style="stop-color:#5C5860"/>
		<stop  offset="0.9636" style="stop-color:#7A7580"/>
	</linearGradient>
	<path class="st21" d="M726.5,144.2c-3.3-0.2-8.2-28.2-12.1-28.7c-20.5-2.7-37.1-19.1-26.2-11.8c0.9,0.6,12.3,5,7.9,2.8
		c-5.4-2.8-12.3-10.8-14.2-13.9c-2.9-4.6-3.7-5.4-8.4-9.5c-1.5-1.4-5.1-4.2-11.3-13.9c4.2,6.9,3.8,9.3,4.4,9.8
		c0.9,0.9,7.6,6.3,9.5,9.9c1.1,2.2,4,13.3,4,14.1c0,1.4-5.7-5.7-9.9-11.1c-2.8-3.5-4.9-6.3-4.5-5.5c4.9,8.9,19.1,33.6,31.1,40.3
		C677,102.8,682,99,681.7,97.7c3.1,8.6,12.1,14.3,19.6,17.8c6.6,3.1,6.7,2.4,12,7.3c6.8,6.4,8.9,28.3,15.7,34.4L726.5,144.2z"/>
	
		<linearGradient id="SVGID_19_" gradientUnits="userSpaceOnUse" x1="3934.7603" y1="477.7076" x2="3909.6614" y2="383.4421" gradientTransform="matrix(-0.9845 0.1752 -0.1752 -0.9845 4868.8525 -140.3392)">
		<stop  offset="0" style="stop-color:#7A7580"/>
		<stop  offset="3.580363e-03" style="stop-color:#78737E"/>
		<stop  offset="6.348640e-02" style="stop-color:#58545C"/>
		<stop  offset="0.1289" style="stop-color:#3D3A40"/>
		<stop  offset="0.2025" style="stop-color:#262528"/>
		<stop  offset="0.2864" style="stop-color:#151416"/>
		<stop  offset="0.3864" style="stop-color:#090909"/>
		<stop  offset="0.5188" style="stop-color:#020202"/>
		<stop  offset="0.8121" style="stop-color:#000000"/>
	</linearGradient>
	<path class="st22" d="M941.5,83.6c6.6,5.6,21.8,24,35.7,35.8c-2.2-3.2-7.7-9.2-12.3-14c-2.1-2.2-4-4.1-5.2-5.5
		c-9.4-9.8-26.1-30.2-29.9-29c-5.4,2.2-30.3,35-40.3,40.7c2.7-4.2,30-31.2,30.8-33.7c-5.2,6.1-19.8,19.3-24.3,24.3
		c-3,3.3-6.4,6.3-13.8,14.3c0.3,0.2,1.5,0.8,1.8,1c0,0,4,2.4,5.2,3.2c5.1-4.9,11.3-15.9,13.4-18c20.5-20.8,22.8-24.7,25.5-26.9
		c1.4-1.1-3,9.5-14.3,29.5c7.9-12,15.6-28,16.8-27.7c1.6,0.3,0.4,9.2-1.2,19.7l-4.4,0.4c-1.9,11.5-9.9,22.3-13.5,26.1
		c6.3-5.9,12.7-16.6,14.3-25.3l4.5-0.2c1.5-8.6,2.8-17.4,2.9-20.4c1.3,1.2,10.7,26.1,2.7,1c-0.6-1.8,32.9,41.6,34.7,43
		C972.3,123.5,939.2,81.6,941.5,83.6z"/>
	<rect x="586" y="-61.1" class="st10" width="450" height="450"/>
	<g>
		<path class="st2" d="M2137.2,154.4c16.6-1,35.8-10.3,49.9-24.4c7.6-2.5,10-3,11.8-4.1c13.4-3.2,25.1-37.5,38.5-44.9
			c10.7-6.4,29.3-17.4,31.1-14.1c-1.1,8.1,55.2,57,62.3,59.1c19.6,8.5,70.8-5.4,84.5-7.2c23.8-3.1,21.2,4.3,28.9,9.9
			c8.9,9.1,10.3,3.2,16.2,5.5c6.2,6.4,22.6-16.9,28.9-23.3c27.1-27.6,27.4-31.4,45-41.9c11.6,1.1,39.4,48,86.7,48
			c14.8,0,24,21.6,51.1,37.1"/>
		<path class="st3" d="M2137.2,154.4c4.7-0.3,9.4-1.2,13.9-2.6c4.5-1.4,8.9-3.2,13.1-5.3c8.4-4.3,16.2-9.9,22.9-16.5l0,0l0,0l6-1.9
			c1-0.3,2-0.6,3-1c1-0.3,2-0.7,2.8-1.2l0,0l0,0c1.9-0.5,3.6-1.5,5.1-2.7s2.9-2.6,4.2-4.1c2.6-3,4.8-6.3,7-9.6
			c4.3-6.6,8.3-13.5,13.1-19.8c2.4-3.1,5-6.2,8.4-8.4c3.4-2.1,6.8-4.1,10.2-6c3.4-2,6.9-3.9,10.5-5.6c1.8-0.9,3.6-1.7,5.4-2.4
			c0.9-0.4,1.9-0.7,2.9-0.9c0.5-0.1,1-0.2,1.5-0.2s1.2,0.1,1.5,0.7V67v0.1c-0.1,0.8,0.3,1.6,0.7,2.4c0.4,0.8,0.9,1.5,1.4,2.3
			c1,1.5,2.2,2.9,3.3,4.3c2.3,2.8,4.8,5.4,7.3,8c5.1,5.2,10.3,10.1,15.7,15c5.4,4.9,10.8,9.6,16.4,14.2c2.8,2.3,5.6,4.6,8.5,6.8
			c1.4,1.1,2.9,2.2,4.4,3.2c0.7,0.5,1.5,1,2.2,1.5c0.8,0.5,1.5,0.9,2.3,1.2l0,0l0,0c4.5,1.9,9.5,2.4,14.4,2.6s9.8-0.1,14.7-0.5
			c9.8-0.9,19.6-2.5,29.2-4.4c4.8-0.9,9.7-1.9,14.5-2.9c4.8-1,9.7-2,14.6-2.5c2.5-0.3,4.9-0.4,7.4-0.4c2.5,0.1,5,0.3,7.4,1.1
			c2.4,0.8,4.5,2.5,6.1,4.4c1.6,1.9,3.2,3.8,5.1,5.2l0,0l0,0l1.6,1.5c0.6,0.5,1.1,1,1.7,1.4c1.2,0.9,2.4,1.6,3.8,2
			c1.4,0.4,2.8,0.1,4.3-0.1c1.5-0.2,3.2-0.1,4.6,0.5h0.1l0.1,0.1c0.7,0.7,1.6,1,2.5,1c1,0,1.9-0.4,2.8-0.9c1.8-0.9,3.4-2.3,5-3.6
			c3.1-2.8,5.9-5.9,8.7-9.1s5.4-6.5,8.2-9.6l8.8-9.1c5.8-6.1,11.5-12.3,17.3-18.4c2.9-3,6-5.9,9.4-8.5c3.4-2.6,6.9-4.9,10.6-7
			l0.1-0.1h0.2c1.9,0.2,3.5,1.2,4.9,2.2c1.5,1,2.8,2.1,4.1,3.2c2.6,2.3,5.1,4.7,7.6,7c5,4.7,10.1,9.4,15.4,13.7
			c2.7,2.2,5.4,4.3,8.3,6.2c1.4,1,2.9,1.9,4.3,2.8c1.5,0.9,2.9,1.8,4.4,2.6c3,1.7,6.1,3.2,9.3,4.5c3.2,1.3,6.4,2.5,9.8,3.3
			c3.3,0.9,6.7,1.5,10.1,2l2.6,0.2c0.9,0.1,1.7,0.2,2.6,0.2c1.7,0.1,3.4,0.1,5.2,0.2c3.5,0.4,6.7,2.1,9.5,4.2c2.8,2,5.4,4.4,7.9,6.8
			c5,4.8,9.8,9.7,15,14.2c5.2,4.5,10.8,8.5,16.8,12v0.1c-6-3.4-11.7-7.4-17-11.9c-5.3-4.4-10.2-9.3-15.2-14.1
			c-2.5-2.4-5-4.7-7.8-6.7c-2.8-2-5.9-3.6-9.3-4c-1.7-0.2-3.4-0.2-5.1-0.2c-0.9,0-1.7-0.1-2.6-0.2l-2.6-0.2c-3.4-0.5-6.9-1-10.2-2
			c-3.4-0.8-6.6-2-9.8-3.3c-3.2-1.4-6.3-2.8-9.3-4.5c-1.5-0.8-3-1.7-4.5-2.6s-2.9-1.8-4.3-2.8c-2.9-1.9-5.6-4-8.3-6.2
			c-5.4-4.3-10.5-9-15.6-13.7c-2.5-2.4-5-4.7-7.6-7c-1.3-1.1-2.6-2.2-4-3.1c-1.4-0.9-2.9-1.8-4.5-2l0.3-0.1c-3.6,2.2-7.1,4.4-10.5,7
			c-3.3,2.5-6.4,5.4-9.3,8.4c-5.8,6-11.5,12.3-17.4,18.4l-8.8,9.1c-2.8,3.1-5.4,6.4-8.2,9.6s-5.6,6.3-8.8,9.2
			c-1.6,1.4-3.3,2.8-5.2,3.7c-1,0.5-2,0.9-3.2,1c-1.1,0.1-2.4-0.4-3.2-1.2l0.1,0.1c-1.3-0.6-2.8-0.7-4.2-0.5c-1.4,0.2-3.1,0.5-4.6,0
			c-1.5-0.4-2.9-1.2-4.1-2.2c-0.6-0.4-1.2-1-1.8-1.5l-1.6-1.6h0.1c-2.1-1.5-3.7-3.5-5.3-5.3c-1.6-1.9-3.5-3.4-5.7-4.2
			c-4.6-1.5-9.6-1.2-14.5-0.7c-4.9,0.4-9.7,1.5-14.6,2.5c-4.8,1-9.7,2-14.5,2.9c-9.7,1.8-19.5,3.5-29.3,4.3
			c-4.9,0.4-9.9,0.7-14.8,0.5c-4.9-0.2-10-0.8-14.6-2.7l0,0c-0.9-0.3-1.7-0.8-2.5-1.3s-1.5-1-2.3-1.5c-1.5-1-2.9-2.1-4.4-3.2
			c-2.9-2.2-5.7-4.5-8.5-6.8c-5.6-4.6-11-9.4-16.4-14.3c-5.3-4.9-10.6-9.9-15.7-15c-2.5-2.6-5-5.2-7.3-8c-1.2-1.4-2.3-2.8-3.3-4.3
			c-0.5-0.8-1-1.5-1.4-2.3c-0.4-0.8-0.8-1.7-0.8-2.7v0.2c-0.2-0.3-0.6-0.5-1.1-0.5s-0.9,0.1-1.4,0.2c-0.9,0.2-1.9,0.5-2.8,0.9
			c-1.8,0.7-3.6,1.5-5.4,2.4c-3.5,1.7-7,3.6-10.4,5.6c-3.4,2-6.8,4-10.2,6c-3.3,2.1-5.9,5.1-8.3,8.2c-4.8,6.3-8.7,13.2-13.1,19.8
			c-2.2,3.3-4.4,6.6-7,9.6c-1.3,1.5-2.7,2.9-4.2,4.2c-1.6,1.2-3.3,2.3-5.3,2.8l0,0c-0.9,0.5-1.9,0.9-2.9,1.2s-2,0.6-3,1l-6,1.9l0,0
			c-6.7,6.7-14.5,12.2-23,16.5c-4.2,2.1-8.6,3.9-13.1,5.3C2146.6,153.2,2141.9,154.2,2137.2,154.4L2137.2,154.4z"/>
	</g>
	<g>
		<path class="st2" d="M2558.2,180c-15.4-7-22.9-20-36.9-48c0,0-33.7-11.8-44.7-24.7c-33.2-64-58.8-80-66-101.3
			c-1.1-3-3.4-6.2-8.7-6c-3.4,0.1-11.2,16.7-20.7,31.1c-15.5,48.4-61.1,60.9-59.6,61.9c-1.5-1-12.8,28.2-64.3,84.4"/>
		<path class="st3" d="M2558.2,180.1c-4.7-2.1-9-5.1-12.7-8.7c-3.7-3.6-6.7-7.8-9.5-12.1s-5.3-8.8-7.7-13.4
			c-2.4-4.6-4.7-9.1-7.1-13.7l0.1,0.1c-4-1.4-8-3-12-4.7c-3.9-1.7-7.8-3.5-11.7-5.4c-3.8-1.9-7.6-4-11.2-6.4
			c-3.6-2.4-7.1-4.9-10-8.2l0,0l0,0c-6.6-12.6-13.7-24.9-21.4-36.8c-3.8-6-7.9-11.8-12.1-17.5c-4.2-5.7-8.5-11.3-13-16.9
			c-4.4-5.6-8.9-11.1-12.9-17c-1-1.4-1.9-3-2.8-4.5c-0.5-0.7-0.9-1.6-1.3-2.4l-1.2-2.4c-0.7-1.6-1.3-3.4-2-4.9
			c-0.7-1.6-1.8-2.9-3.3-3.7c-0.7-0.4-1.6-0.7-2.4-0.8c-0.4-0.1-0.8-0.1-1.3-0.1h-0.6h-0.3c-0.1,0-0.1,0-0.2,0
			c-0.7,0.3-1.3,0.9-1.9,1.5c-0.6,0.7-1.1,1.4-1.6,2.1c-2,2.9-3.8,6-5.6,9c-3.6,6.1-7.1,12.3-11,18.2l0.1-0.1
			c-2.3,7.1-5.3,13.9-9.2,20.3c-3.9,6.4-8.5,12.2-13.8,17.5s-11.1,9.9-17.4,13.9c-3.1,2-6.4,3.9-9.7,5.6c-1.7,0.8-3.3,1.7-5,2.4
			l-2.3,1.1l-1.2,0.6c-0.2,0.1-0.4,0.2-0.6,0.3c-0.1,0.1-0.2,0.1-0.3,0.2c0,0-0.1,0.1-0.1,0l0,0c0,0,0,0,0-0.1s0-0.2,0-0.2
			c0-0.1-0.1-0.1-0.1-0.1l-0.5,0.8c0.1,0.1,0.3,0,0.3,0s0,0-0.1,0.1c-0.1,0.1-0.2,0.2-0.2,0.3c-0.2,0.2-0.3,0.4-0.5,0.6
			c-0.3,0.4-0.6,0.9-0.9,1.4l-1.7,2.8l-3.5,5.7c-2.3,3.8-4.8,7.5-7.2,11.2c-5,7.3-10.2,14.5-15.6,21.5c-10.8,14-22.5,27.5-34.5,40.5
			l-0.1-0.1c5.9-6.6,11.8-13.2,17.5-20c5.7-6.8,11.3-13.7,16.6-20.7c5.4-7,10.6-14.2,15.5-21.6c2.5-3.7,4.9-7.4,7.2-11.2l3.4-5.7
			l1.7-2.9c0.3-0.5,0.6-1,0.9-1.4c0.2-0.2,0.3-0.5,0.5-0.7c0.1-0.1,0.2-0.2,0.3-0.4c0.1-0.1,0.1-0.1,0.3-0.2c0.1-0.1,0.4-0.1,0.7,0
			l-0.5,0.8c-0.1-0.1-0.1-0.1-0.2-0.2s-0.1-0.3,0-0.3c0-0.1,0.1-0.1,0.1-0.2l0.1-0.1c0.1-0.1,0.1-0.1,0.2-0.2
			c0.1-0.1,0.2-0.1,0.3-0.2c0.2-0.1,0.4-0.2,0.6-0.3l1.3-0.6l2.5-1.2c1.7-0.8,3.3-1.6,5-2.4c3.3-1.7,6.5-3.5,9.6-5.5
			c6.2-4,12-8.6,17.2-13.8c5.2-5.2,9.8-11,13.6-17.3s6.9-13,9.1-20.1v-0.1V31c3.9-5.9,7.4-12,11.1-18.2c1.8-3.1,3.6-6.1,5.7-9
			c0.5-0.7,1.1-1.5,1.7-2.1c0.6-0.7,1.2-1.4,2.2-1.8c0.1,0,0.3-0.1,0.4-0.1h0.3h0.7c0.5,0,0.9,0.1,1.4,0.1c0.9,0.2,1.8,0.4,2.6,0.9
			c1.7,0.9,2.9,2.4,3.6,4.1s1.3,3.3,2,5l1.2,2.4c0.4,0.8,0.8,1.6,1.2,2.3c0.9,1.5,1.8,3.1,2.8,4.5c3.9,5.9,8.4,11.4,12.8,17
			s8.7,11.2,12.9,16.9c4.1,5.8,8.2,11.6,12.1,17.6c7.7,11.9,14.8,24.3,21.3,36.9l0,0c2.8,3.2,6.3,5.8,9.8,8.1
			c3.6,2.4,7.3,4.4,11.1,6.4c3.8,1.9,7.7,3.8,11.6,5.4c3.9,1.7,7.9,3.3,11.9,4.7h0.1v0.1c2.3,4.6,4.6,9.2,7,13.8
			c2.4,4.5,4.9,9.1,7.7,13.4c2.8,4.3,5.8,8.5,9.5,12.1C2549.3,174.9,2553.6,177.8,2558.2,180.1L2558.2,180.1z"/>
	</g>
	
		<linearGradient id="SVGID_20_" gradientUnits="userSpaceOnUse" x1="2261.2231" y1="239.0405" x2="2449.6687" y2="-278.709" gradientTransform="matrix(1 0 0 -1 0 291.276)">
		<stop  offset="0" style="stop-color:#BFBFBF"/>
		<stop  offset="5.276039e-03" style="stop-color:#B9B9B9"/>
		<stop  offset="4.496755e-02" style="stop-color:#918F93"/>
		<stop  offset="8.092022e-02" style="stop-color:#747177"/>
		<stop  offset="0.1116" style="stop-color:#625F66"/>
		<stop  offset="0.1333" style="stop-color:#5C5860"/>
		<stop  offset="0.1713" style="stop-color:#48454C"/>
		<stop  offset="0.2346" style="stop-color:#2E2C30"/>
		<stop  offset="0.3033" style="stop-color:#1A191B"/>
		<stop  offset="0.3792" style="stop-color:#0B0B0C"/>
		<stop  offset="0.4678" style="stop-color:#030303"/>
		<stop  offset="0.6" style="stop-color:#000000"/>
	</linearGradient>
	<path class="st23" d="M2402.2,1.5c-0.5,0.1-0.9,0.3-1.2,0.8c0,0-15.6,27.2-19,31c0,0-3.5,13.8-11,23.8
		c-5.6,7.5-27.8,37.3-38.6,44.3c-1.5-2.3,18.5-23.9,21.3-28.1c-14.5,12.5-19.5,17.8-20.4,18.7c-1.5,2.8-16.9,31.3-31.1,46.5
		c8.5-19.8,14.6-28.6,17.9-35c3.6-7,8.1-9.3,13.6-15.5c-3,2.1-9.7,5.9-12.6,8.8c-21.2,42.1-55.7,77.9-92.9,116.3
		c-6.7,6.9-21,21.4-59.5,23.4c26.6,10.5,75.9-24.1,90.5-23.4c-41,75.9-18.4,13.3-23,21.4c-6.6,11.8-13.9,36.4-20.7,47.7
		c15.8-12.8,36.5-51.7,51.2-66.7c15.8-16.1,41.8-42.8,53.9-62.1c-11.4,10.8-39.8,42.7-47,49.5c-6.2,5.9-30.1,10.6-36.9,15.5
		c5.8-8.9,42.8-39,48-48.2c-5,6-44.1,37.8-60.3,50.7c21.1-17.5,37.8-40,45.8-48.6c8.1-8.8,34.9-33.4,44-41
		c0.3,3.9-26,44.6-32.8,56.8c6.9-9.9,43.2-58.2,43.9-59.4c8.2-13.9,42.5-60.8,45.7-62.5c0,0-19.9,38.5-21,43.3
		c-3.2,14-8.3,35.3-8.3,35.3c6.1-19.4,24.2-65,42-98c-7.9,12.4-54.1,72.4-60.8,74.2c11.3-16,46.4-59.1,55.3-72.7
		c2.7-4.2,7-17.2,13.5-26C2394.9,18.2,2402.2,2.3,2402.2,1.5C2402.1,0.7,2402.1,0.7,2402.2,1.5z"/>
	
		<linearGradient id="SVGID_21_" gradientUnits="userSpaceOnUse" x1="2485.5999" y1="105.362" x2="2545.2861" y2="193.8505" gradientTransform="matrix(1 0 0 -1 0 291.276)">
		<stop  offset="0.2788" style="stop-color:#000000"/>
		<stop  offset="0.415" style="stop-color:#1D1B1E"/>
		<stop  offset="0.6056" style="stop-color:#3F3C42"/>
		<stop  offset="0.7609" style="stop-color:#545158"/>
		<stop  offset="0.8606" style="stop-color:#5C5860"/>
		<stop  offset="0.8774" style="stop-color:#625F66"/>
		<stop  offset="0.9011" style="stop-color:#747177"/>
		<stop  offset="0.9289" style="stop-color:#918F93"/>
		<stop  offset="0.9596" style="stop-color:#B9B9B9"/>
		<stop  offset="0.9636" style="stop-color:#BFBFBF"/>
	</linearGradient>
	<path class="st24" d="M2648.9,223.9c-16.8-3.6-56.4-16.2-68.6-28.2c0,0-0.1-0.1-0.1-0.2c-30.4-14.1-49.1-32.2-60.5-61.6
		c-7-1.7-36-16.9-39-19c5.6,6.2,19.7,20,31.3,23c3.3,8.5,28.7,32.8,28.7,32.8c-20.6-13.4-55.5-42.6-57-45.4
		c-0.9-0.9-23.2-47.8-37.5-65.3c2.8,4.2,20.1,39.1,21.5,43c-26.1-34.3-33.1-51.5-38.4-59.3c-16.7-24.8,1.7-2.7,1.7-2.7
		c-3.4-3.8-24.6-37.3-24.6-37.3c-0.3-0.4-0.8-0.7-1.2-0.8c0,0.8,7.3,16.7,10.5,21c6.5,8.8,15.8,29.3,18.5,33.5
		c8.8,13.6,41.8,68.9,54.5,95.2c-12.1-2.5-57.1-91.8-65-104.2c12,35.2,27.8,75,40,95c0,0-34.8-42-32.4-39.7
		c2.3,2.2,37,78.1,84.9,101.7c-14.2-18.1-13.2-44-24.4-66.9c9.1,7.6,41.6,35.6,51.4,42.5c13,9.3,58.7,34.8,68.6,35.9
		c-8.1-0.9-37.5-5.8-100.5-54c3,5.3,26.2,31.2,42.2,43.7c9.2,5.9,56.7,27.3,95.2,24.2c9.9-0.8-7-0.6,12.8-3.6
		C2660.1,227.2,2650.2,224.1,2648.9,223.9C2646.5,223.6,2651.2,224.5,2648.9,223.9z"/>
	
		<linearGradient id="SVGID_22_" gradientUnits="userSpaceOnUse" x1="1720.9005" y1="139.634" x2="1826.1946" y2="248.6692" gradientTransform="matrix(-1 0 0 -1 4060.8828 291.276)">
		<stop  offset="0.1879" style="stop-color:#000000"/>
		<stop  offset="0.2858" style="stop-color:#040405"/>
		<stop  offset="0.3964" style="stop-color:#121112"/>
		<stop  offset="0.5133" style="stop-color:#272629"/>
		<stop  offset="0.6336" style="stop-color:#454248"/>
		<stop  offset="0.7091" style="stop-color:#5C5860"/>
		<stop  offset="0.9636" style="stop-color:#7A7580"/>
	</linearGradient>
	<path class="st25" d="M2331.2,143.3c-3.3-0.2-8.2-28.2-12.1-28.7c-20.5-2.7-37.1-19.1-26.2-11.8c0.9,0.6,12.3,5,7.9,2.8
		c-5.4-2.8-12.3-10.8-14.2-13.9c-2.9-4.6-3.7-5.4-8.4-9.5c-1.5-1.4-5.1-4.2-11.3-13.9c4.2,6.9,3.8,9.3,4.4,9.8
		c0.9,0.9,7.6,6.3,9.5,9.9c1.1,2.2,4,13.3,4,14.1c0,1.4-5.7-5.7-9.9-11.1c-2.8-3.5-4.9-6.3-4.5-5.5c4.9,8.9,19.1,33.6,31.1,40.3
		c-19.8-23.9-14.8-27.7-15.1-29c3.1,8.6,12.1,14.3,19.6,17.8c6.6,3.1,6.7,2.4,12,7.3c6.8,6.4,8.9,28.3,15.7,34.4L2331.2,143.3z"/>
	
		<linearGradient id="SVGID_23_" gradientUnits="userSpaceOnUse" x1="2354.6401" y1="197.3807" x2="2329.5413" y2="103.1152" gradientTransform="matrix(-0.9845 0.1752 -0.1752 -0.9845 4868.8525 -140.3392)">
		<stop  offset="0" style="stop-color:#7A7580"/>
		<stop  offset="3.580363e-03" style="stop-color:#78737E"/>
		<stop  offset="6.348640e-02" style="stop-color:#58545C"/>
		<stop  offset="0.1289" style="stop-color:#3D3A40"/>
		<stop  offset="0.2025" style="stop-color:#262528"/>
		<stop  offset="0.2864" style="stop-color:#151416"/>
		<stop  offset="0.3864" style="stop-color:#090909"/>
		<stop  offset="0.5188" style="stop-color:#020202"/>
		<stop  offset="0.8121" style="stop-color:#000000"/>
	</linearGradient>
	<path class="st26" d="M2546.2,82.7c6.6,5.6,21.8,24,35.7,35.8c-2.2-3.2-7.7-9.2-12.3-14c-2.1-2.2-4-4.1-5.2-5.5
		c-9.4-9.8-26.1-30.2-29.9-29c-5.4,2.2-30.3,35-40.3,40.7c2.7-4.2,30-31.2,30.8-33.7c-5.2,6.1-19.8,19.3-24.3,24.3
		c-3,3.3-6.4,6.3-13.8,14.3c0.3,0.2,1.5,0.8,1.8,1c0,0,4,2.4,5.2,3.2c5.1-4.9,11.3-15.9,13.4-18c20.5-20.8,22.8-24.7,25.5-26.9
		c1.4-1.1-3,9.5-14.3,29.5c7.9-12,15.6-28,16.8-27.7c1.6,0.3,0.4,9.2-1.2,19.7l-4.4,0.4c-1.9,11.5-9.9,22.3-13.5,26.1
		c6.3-5.9,12.7-16.6,14.3-25.3l4.5-0.2c1.5-8.6,2.8-17.4,2.9-20.4c1.3,1.2,10.7,26.1,2.7,1c-0.6-1.8,32.9,41.6,34.7,43
		C2577,122.6,2543.9,80.7,2546.2,82.7z"/>
	<rect x="2190.7" y="-62" class="st10" width="450" height="450"/>
	<g>
		<path class="st2" d="M-2.2,155.6c16.6-1,35.8-10.3,49.9-24.4c7.6-2.5,10-3,11.8-4.1c13.4-3.2,25.1-37.5,38.5-44.9
			c10.7-6.4,29.3-17.4,31.1-14.1c-1.1,8.1,55.2,57,62.3,59.1c19.6,8.5,70.8-5.4,84.5-7.2c23.8-3.1,21.2,4.3,28.9,9.9
			c8.9,9.1,10.3,3.2,16.2,5.5c6.2,6.4,22.6-16.9,28.9-23.3c27.1-27.6,27.4-31.4,45-41.9c11.6,1.1,39.4,48,86.7,48
			c14.8,0,24,21.6,51.1,37.1"/>
		<path class="st3" d="M-2.2,155.6c4.7-0.3,9.4-1.2,13.9-2.6c4.5-1.4,8.9-3.2,13.1-5.3c8.4-4.3,16.2-9.9,22.9-16.5l0,0l0,0l6-1.9
			c1-0.3,2-0.6,3-1c1-0.3,2-0.7,2.8-1.2l0,0l0,0c1.9-0.5,3.6-1.5,5.1-2.7s2.9-2.6,4.2-4.1c2.6-3,4.8-6.3,7-9.6
			c4.3-6.6,8.3-13.5,13.1-19.8c2.4-3.1,5-6.2,8.4-8.4c3.4-2.1,6.8-4.1,10.2-6c3.4-2,6.9-3.9,10.5-5.6c1.8-0.9,3.6-1.7,5.4-2.4
			c0.9-0.4,1.9-0.7,2.9-0.9c0.5-0.1,1-0.2,1.5-0.2s1.2,0.1,1.5,0.7v0.1v0.1c-0.1,0.8,0.3,1.6,0.7,2.4s0.9,1.5,1.4,2.3
			c1,1.5,2.2,2.9,3.3,4.3c2.3,2.8,4.8,5.4,7.3,8c5.1,5.2,10.3,10.1,15.7,15s10.8,9.6,16.4,14.2c2.8,2.3,5.6,4.6,8.5,6.8
			c1.4,1.1,2.9,2.2,4.4,3.2c0.7,0.5,1.5,1,2.2,1.5c0.8,0.5,1.5,0.9,2.3,1.2l0,0l0,0c4.5,1.9,9.5,2.4,14.4,2.6s9.8-0.1,14.7-0.5
			c9.8-0.9,19.6-2.5,29.2-4.4c4.8-0.9,9.7-1.9,14.5-2.9s9.7-2,14.6-2.5c2.5-0.3,4.9-0.4,7.4-0.4c2.5,0.1,5,0.3,7.4,1.1
			c2.4,0.8,4.5,2.5,6.1,4.4s3.2,3.8,5.1,5.2l0,0l0,0l1.6,1.5c0.6,0.5,1.1,1,1.7,1.4c1.2,0.9,2.4,1.6,3.8,2s2.8,0.1,4.3-0.1
			c1.5-0.2,3.2-0.1,4.6,0.5h0.1l0.1,0.1c0.7,0.7,1.6,1,2.5,1c1,0,1.9-0.4,2.8-0.9c1.8-0.9,3.4-2.3,5-3.6c3.1-2.8,5.9-5.9,8.7-9.1
			c2.8-3.2,5.4-6.5,8.2-9.6l8.8-9.1c5.8-6.1,11.5-12.3,17.3-18.4c2.9-3,6-5.9,9.4-8.5s6.9-4.9,10.6-7l0.1-0.1h0.2
			c1.9,0.2,3.5,1.2,4.9,2.2c1.5,1,2.8,2.1,4.1,3.2c2.6,2.3,5.1,4.7,7.6,7c5,4.7,10.1,9.4,15.4,13.7c2.7,2.2,5.4,4.3,8.3,6.2
			c1.4,1,2.9,1.9,4.3,2.8c1.5,0.9,2.9,1.8,4.4,2.6c3,1.7,6.1,3.2,9.3,4.5c3.2,1.3,6.4,2.5,9.8,3.3c3.3,0.9,6.7,1.5,10.1,2l2.6,0.2
			c0.9,0.1,1.7,0.2,2.6,0.2c1.7,0.1,3.4,0.1,5.2,0.2c3.5,0.4,6.7,2.1,9.5,4.2c2.8,2,5.4,4.4,7.9,6.8c5,4.8,9.8,9.7,15,14.2
			c5.2,4.5,10.8,8.5,16.8,12v0.1c-6-3.4-11.7-7.4-17-11.9c-5.3-4.4-10.2-9.3-15.2-14.1c-2.5-2.4-5-4.7-7.8-6.7s-5.9-3.6-9.3-4
			c-1.7-0.2-3.4-0.2-5.1-0.2c-0.9,0-1.7-0.1-2.6-0.2l-2.6-0.2c-3.4-0.5-6.9-1-10.2-2c-3.4-0.8-6.6-2-9.8-3.3
			c-3.2-1.4-6.3-2.8-9.3-4.5c-1.5-0.8-3-1.7-4.5-2.6s-2.9-1.8-4.3-2.8c-2.9-1.9-5.6-4-8.3-6.2c-5.4-4.3-10.5-9-15.6-13.7
			c-2.5-2.4-5-4.7-7.6-7c-1.3-1.1-2.6-2.2-4-3.1s-2.9-1.8-4.5-2l0.3-0.1c-3.6,2.2-7.1,4.4-10.5,7c-3.3,2.5-6.4,5.4-9.3,8.4
			c-5.8,6-11.5,12.3-17.4,18.4l-8.8,9.1c-2.8,3.1-5.4,6.4-8.2,9.6c-2.8,3.2-5.6,6.3-8.8,9.2c-1.6,1.4-3.3,2.8-5.2,3.7
			c-1,0.5-2,0.9-3.2,1c-1.1,0.1-2.4-0.4-3.2-1.2l0.1,0.1c-1.3-0.6-2.8-0.7-4.2-0.5c-1.4,0.2-3.1,0.5-4.6,0c-1.5-0.4-2.9-1.2-4.1-2.2
			c-0.6-0.4-1.2-1-1.8-1.5l-1.6-1.6h0.1c-2.1-1.5-3.7-3.5-5.3-5.3c-1.6-1.9-3.5-3.4-5.7-4.2c-4.6-1.5-9.6-1.2-14.5-0.7
			c-4.9,0.4-9.7,1.5-14.6,2.5c-4.8,1-9.7,2-14.5,2.9c-9.7,1.8-19.5,3.5-29.3,4.3c-4.9,0.4-9.9,0.7-14.8,0.5
			c-4.9-0.2-10-0.8-14.6-2.7l0,0c-0.9-0.3-1.7-0.8-2.5-1.3s-1.5-1-2.3-1.5c-1.5-1-2.9-2.1-4.4-3.2c-2.9-2.2-5.7-4.5-8.5-6.8
			c-5.6-4.6-11-9.4-16.4-14.3c-5.3-4.9-10.6-9.9-15.7-15c-2.5-2.6-5-5.2-7.3-8c-1.2-1.4-2.3-2.8-3.3-4.3c-0.5-0.8-1-1.5-1.4-2.3
			s-0.8-1.7-0.8-2.7v0.2c-0.2-0.3-0.6-0.5-1.1-0.5s-0.9,0.1-1.4,0.2c-0.9,0.2-1.9,0.5-2.8,0.9c-1.8,0.7-3.6,1.5-5.4,2.4
			c-3.5,1.7-7,3.6-10.4,5.6s-6.8,4-10.2,6c-3.3,2.1-5.9,5.1-8.3,8.2c-4.8,6.3-8.7,13.2-13.1,19.8c-2.2,3.3-4.4,6.6-7,9.6
			c-1.3,1.5-2.7,2.9-4.2,4.2c-1.6,1.2-3.3,2.3-5.3,2.8l0,0c-0.9,0.5-1.9,0.9-2.9,1.2s-2,0.6-3,1l-6,1.9l0,0
			c-6.7,6.7-14.5,12.2-23,16.5c-4.2,2.1-8.6,3.9-13.1,5.3C7.2,154.4,2.5,155.4-2.2,155.6L-2.2,155.6z"/>
	</g>
	<g>
		<path class="st2" d="M418.8,181.2c-15.4-7-22.9-20-36.9-48c0,0-33.7-11.8-44.7-24.7c-33.2-64-58.8-80-66-101.3
			c-1.1-3-3.4-6.2-8.7-6c-3.4,0.1-11.2,16.7-20.7,31.1c-15.5,48.4-61.1,60.9-59.6,61.9c-1.5-1-12.8,28.2-64.3,84.4"/>
		<path class="st3" d="M418.8,181.3c-4.7-2.1-9-5.1-12.7-8.7c-3.7-3.6-6.7-7.8-9.5-12.1s-5.3-8.8-7.7-13.4
			c-2.4-4.6-4.7-9.1-7.1-13.7l0.1,0.1c-4-1.4-8-3-12-4.7c-3.9-1.7-7.8-3.5-11.7-5.4c-3.8-1.9-7.6-4-11.2-6.4s-7.1-4.9-10-8.2l0,0
			l0,0c-6.6-12.6-13.7-24.9-21.4-36.8c-3.8-6-7.9-11.8-12.1-17.5s-8.5-11.3-13-16.9c-4.4-5.6-8.9-11.1-12.9-17c-1-1.4-1.9-3-2.8-4.5
			c-0.5-0.7-0.9-1.6-1.3-2.4l-1.2-2.4c-0.7-1.6-1.3-3.4-2-4.9c-0.7-1.6-1.8-2.9-3.3-3.7c-0.7-0.4-1.6-0.7-2.4-0.8
			c-0.4-0.1-0.8-0.1-1.3-0.1h-0.6h-0.3c-0.1,0-0.1,0-0.2,0c-0.7,0.3-1.3,0.9-1.9,1.5c-0.6,0.7-1.1,1.4-1.6,2.1c-2,2.9-3.8,6-5.6,9
			c-3.6,6.1-7.1,12.3-11,18.2l0.1-0.1c-2.3,7.1-5.3,13.9-9.2,20.3s-8.5,12.2-13.8,17.5s-11.1,9.9-17.4,13.9c-3.1,2-6.4,3.9-9.7,5.6
			c-1.7,0.8-3.3,1.7-5,2.4l-2.3,1.1l-1.2,0.6c-0.2,0.1-0.4,0.2-0.6,0.3c-0.1,0.1-0.2,0.1-0.3,0.2c0,0-0.1,0.1-0.1,0l0,0
			c0,0,0,0,0-0.1s0-0.2,0-0.2c0-0.1-0.1-0.1-0.1-0.1l-0.5,0.8c0.1,0.1,0.3,0,0.3,0s0,0-0.1,0.1s-0.2,0.2-0.2,0.3
			c-0.2,0.2-0.3,0.4-0.5,0.6c-0.3,0.4-0.6,0.9-0.9,1.4l-1.7,2.8l-3.5,5.7c-2.3,3.8-4.8,7.5-7.2,11.2c-5,7.3-10.2,14.5-15.6,21.5
			c-10.8,14-22.5,27.5-34.5,40.5l-0.1-0.1c5.9-6.6,11.8-13.2,17.5-20s11.3-13.7,16.6-20.7c5.4-7,10.6-14.2,15.5-21.6
			c2.5-3.7,4.9-7.4,7.2-11.2l3.4-5.7l1.7-2.9c0.3-0.5,0.6-1,0.9-1.4c0.2-0.2,0.3-0.5,0.5-0.7c0.1-0.1,0.2-0.2,0.3-0.4
			c0.1-0.1,0.1-0.1,0.3-0.2c0.1-0.1,0.4-0.1,0.7,0l-0.5,0.8c-0.1-0.1-0.1-0.1-0.2-0.2c-0.1-0.1-0.1-0.3,0-0.3c0-0.1,0.1-0.1,0.1-0.2
			l0.1-0.1c0.1-0.1,0.1-0.1,0.2-0.2c0.1-0.1,0.2-0.1,0.3-0.2c0.2-0.1,0.4-0.2,0.6-0.3l1.3-0.6l2.5-1.2c1.7-0.8,3.3-1.6,5-2.4
			c3.3-1.7,6.5-3.5,9.6-5.5c6.2-4,12-8.6,17.2-13.8c5.2-5.2,9.8-11,13.6-17.3s6.9-13,9.1-20.1v-0.1v-0.1c3.9-5.9,7.4-12,11.1-18.2
			c1.8-3.1,3.6-6.1,5.7-9c0.5-0.7,1.1-1.5,1.7-2.1c0.6-0.7,1.2-1.4,2.2-1.8c0.1,0,0.3-0.1,0.4-0.1h0.3h0.7c0.5,0,0.9,0.1,1.4,0.1
			c0.9,0.2,1.8,0.4,2.6,0.9c1.7,0.9,2.9,2.4,3.6,4.1s1.3,3.3,2,5l1.2,2.4c0.4,0.8,0.8,1.6,1.2,2.3c0.9,1.5,1.8,3.1,2.8,4.5
			c3.9,5.9,8.4,11.4,12.8,17s8.7,11.2,12.9,16.9c4.1,5.8,8.2,11.6,12.1,17.6c7.7,11.9,14.8,24.3,21.3,36.9l0,0
			c2.8,3.2,6.3,5.8,9.8,8.1c3.6,2.4,7.3,4.4,11.1,6.4c3.8,1.9,7.7,3.8,11.6,5.4c3.9,1.7,7.9,3.3,11.9,4.7h0.1v0.1
			c2.3,4.6,4.6,9.2,7,13.8c2.4,4.5,4.9,9.1,7.7,13.4c2.8,4.3,5.8,8.5,9.5,12.1C409.9,176.1,414.2,179,418.8,181.3L418.8,181.3z"/>
	</g>
	
		<linearGradient id="SVGID_24_" gradientUnits="userSpaceOnUse" x1="121.8052" y1="237.8919" x2="310.2507" y2="-279.8576" gradientTransform="matrix(1 0 0 -1 0 291.276)">
		<stop  offset="0" style="stop-color:#BFBFBF"/>
		<stop  offset="5.276039e-03" style="stop-color:#B9B9B9"/>
		<stop  offset="4.496755e-02" style="stop-color:#918F93"/>
		<stop  offset="8.092022e-02" style="stop-color:#747177"/>
		<stop  offset="0.1116" style="stop-color:#625F66"/>
		<stop  offset="0.1333" style="stop-color:#5C5860"/>
		<stop  offset="0.1713" style="stop-color:#48454C"/>
		<stop  offset="0.2346" style="stop-color:#2E2C30"/>
		<stop  offset="0.3033" style="stop-color:#1A191B"/>
		<stop  offset="0.3792" style="stop-color:#0B0B0C"/>
		<stop  offset="0.4678" style="stop-color:#030303"/>
		<stop  offset="0.6" style="stop-color:#000000"/>
	</linearGradient>
	<path class="st27" d="M262.8,2.7c-0.5,0.1-0.9,0.3-1.2,0.8c0,0-15.6,27.2-19,31c0,0-3.5,13.8-11,23.8c-5.6,7.5-27.8,37.3-38.6,44.3
		c-1.5-2.3,18.5-23.9,21.3-28.1c-14.5,12.5-19.5,17.8-20.4,18.7c-1.5,2.8-16.9,31.3-31.1,46.5c8.5-19.8,14.6-28.6,17.9-35
		c3.6-7,8.1-9.3,13.6-15.5c-3,2.1-9.7,5.9-12.6,8.8c-21.2,42.1-55.7,77.9-92.9,116.3c-6.7,6.9-21,21.4-59.5,23.4
		c26.6,10.5,75.9-24.1,90.5-23.4c-41,75.9-18.4,13.3-23,21.4c-6.6,11.8-13.9,36.4-20.7,47.7c15.8-12.8,36.5-51.7,51.2-66.7
		c15.8-16.1,41.8-42.8,53.9-62.1c-11.4,10.8-39.8,42.7-47,49.5c-6.2,5.9-30.1,10.6-36.9,15.5c5.8-8.9,42.8-39,48-48.2
		c-5,6-44.1,37.8-60.3,50.7c21.1-17.5,37.8-40,45.8-48.6c8.1-8.8,34.9-33.4,44-41c0.3,3.9-26,44.6-32.8,56.8
		c6.9-9.9,43.2-58.2,43.9-59.4c8.2-13.9,42.5-60.8,45.7-62.5c0,0-19.9,38.5-21,43.3c-3.2,14-8.3,35.3-8.3,35.3
		c6.1-19.4,24.2-65,42-98c-7.9,12.4-54.1,72.4-60.8,74.2c11.3-16,46.4-59.1,55.3-72.7c2.7-4.2,7-17.2,13.5-26
		C255.5,19.4,262.8,3.5,262.8,2.7C262.7,1.9,262.7,1.9,262.8,2.7z"/>
	
		<linearGradient id="SVGID_25_" gradientUnits="userSpaceOnUse" x1="346.1819" y1="104.2134" x2="405.8682" y2="192.7019" gradientTransform="matrix(1 0 0 -1 0 291.276)">
		<stop  offset="0.2788" style="stop-color:#000000"/>
		<stop  offset="0.415" style="stop-color:#1D1B1E"/>
		<stop  offset="0.6056" style="stop-color:#3F3C42"/>
		<stop  offset="0.7609" style="stop-color:#545158"/>
		<stop  offset="0.8606" style="stop-color:#5C5860"/>
		<stop  offset="0.8774" style="stop-color:#625F66"/>
		<stop  offset="0.9011" style="stop-color:#747177"/>
		<stop  offset="0.9289" style="stop-color:#918F93"/>
		<stop  offset="0.9596" style="stop-color:#B9B9B9"/>
		<stop  offset="0.9636" style="stop-color:#BFBFBF"/>
	</linearGradient>
	<path class="st28" d="M509.5,225.1c-16.8-3.6-56.4-16.2-68.6-28.2c0,0-0.1-0.1-0.1-0.2c-30.4-14.1-49.1-32.2-60.5-61.6
		c-7-1.7-36-16.9-39-19c5.6,6.2,19.7,20,31.3,23c3.3,8.5,28.7,32.8,28.7,32.8c-20.6-13.4-55.5-42.6-57-45.4
		c-0.9-0.9-23.2-47.8-37.5-65.3c2.8,4.2,20.1,39.1,21.5,43c-26.1-34.3-33.1-51.5-38.4-59.3c-16.7-24.8,1.7-2.7,1.7-2.7
		C288.2,38.4,267,4.9,267,4.9c-0.3-0.4-0.8-0.7-1.2-0.8c0,0.8,7.3,16.7,10.5,21c6.5,8.8,15.8,29.3,18.5,33.5
		c8.8,13.6,41.8,68.9,54.5,95.2c-12.1-2.5-57.1-91.8-65-104.2c12,35.2,27.8,75,40,95c0,0-34.8-42-32.4-39.7
		c2.3,2.2,37,78.1,84.9,101.7c-14.2-18.1-13.2-44-24.4-66.9c9.1,7.6,41.6,35.6,51.4,42.5c13,9.3,58.7,34.8,68.6,35.9
		c-8.1-0.9-37.5-5.8-100.5-54c3,5.3,26.2,31.2,42.2,43.7c9.2,5.9,56.7,27.3,95.2,24.2c9.9-0.8-7-0.6,12.8-3.6
		C520.7,228.4,510.8,225.3,509.5,225.1C507.1,224.8,511.8,225.7,509.5,225.1z"/>
	
		<linearGradient id="SVGID_26_" gradientUnits="userSpaceOnUse" x1="3860.3186" y1="138.4853" x2="3965.6128" y2="247.5205" gradientTransform="matrix(-1 0 0 -1 4060.8828 291.276)">
		<stop  offset="0.1879" style="stop-color:#000000"/>
		<stop  offset="0.2858" style="stop-color:#040405"/>
		<stop  offset="0.3964" style="stop-color:#121112"/>
		<stop  offset="0.5133" style="stop-color:#272629"/>
		<stop  offset="0.6336" style="stop-color:#454248"/>
		<stop  offset="0.7091" style="stop-color:#5C5860"/>
		<stop  offset="0.9636" style="stop-color:#7A7580"/>
	</linearGradient>
	<path class="st29" d="M191.8,144.5c-3.3-0.2-8.2-28.2-12.1-28.7c-20.5-2.7-37.1-19.1-26.2-11.8c0.9,0.6,12.3,5,7.9,2.8
		C156,104,149.1,96,147.2,92.9c-2.9-4.6-3.7-5.4-8.4-9.5c-1.5-1.4-5.1-4.2-11.3-13.9c4.2,6.9,3.8,9.3,4.4,9.8
		c0.9,0.9,7.6,6.3,9.5,9.9c1.1,2.2,4,13.3,4,14.1c0,1.4-5.7-5.7-9.9-11.1c-2.8-3.5-4.9-6.3-4.5-5.5c4.9,8.9,19.1,33.6,31.1,40.3
		c-19.8-23.9-14.8-27.7-15.1-29c3.1,8.6,12.1,14.3,19.6,17.8c6.6,3.1,6.7,2.4,12,7.3c6.8,6.4,8.9,28.3,15.7,34.4L191.8,144.5z"/>
	
		<linearGradient id="SVGID_27_" gradientUnits="userSpaceOnUse" x1="4461.2349" y1="571.1002" x2="4436.1357" y2="476.8347" gradientTransform="matrix(-0.9845 0.1752 -0.1752 -0.9845 4868.8525 -140.3392)">
		<stop  offset="0" style="stop-color:#7A7580"/>
		<stop  offset="3.580363e-03" style="stop-color:#78737E"/>
		<stop  offset="6.348640e-02" style="stop-color:#58545C"/>
		<stop  offset="0.1289" style="stop-color:#3D3A40"/>
		<stop  offset="0.2025" style="stop-color:#262528"/>
		<stop  offset="0.2864" style="stop-color:#151416"/>
		<stop  offset="0.3864" style="stop-color:#090909"/>
		<stop  offset="0.5188" style="stop-color:#020202"/>
		<stop  offset="0.8121" style="stop-color:#000000"/>
	</linearGradient>
	<path class="st30" d="M406.8,83.9c6.6,5.6,21.8,24,35.7,35.8c-2.2-3.2-7.7-9.2-12.3-14c-2.1-2.2-4-4.1-5.2-5.5
		c-9.4-9.8-26.1-30.2-29.9-29c-5.4,2.2-30.3,35-40.3,40.7c2.7-4.2,30-31.2,30.8-33.7c-5.2,6.1-19.8,19.3-24.3,24.3
		c-3,3.3-6.4,6.3-13.8,14.3c0.3,0.2,1.5,0.8,1.8,1c0,0,4,2.4,5.2,3.2c5.1-4.9,11.3-15.9,13.4-18c20.5-20.8,22.8-24.7,25.5-26.9
		c1.4-1.1-3,9.5-14.3,29.5c7.9-12,15.6-28,16.8-27.7c1.6,0.3,0.4,9.2-1.2,19.7l-4.4,0.4c-1.9,11.5-9.9,22.3-13.5,26.1
		c6.3-5.9,12.7-16.6,14.3-25.3l4.5-0.2c1.5-8.6,2.8-17.4,2.9-20.4c1.3,1.2,10.7,26.1,2.7,1c-0.6-1.8,32.9,41.6,34.7,43
		C437.6,123.8,404.5,81.9,406.8,83.9z"/>
	<rect x="51.3" y="-60.8" class="st10" width="450" height="450"/>
	<g>
		<path class="st31" d="M1270.4,31.9c0.3,0.6,0.7,1.8,1.2,2.2c0.3,0.1,0.1,0.1,0.3,0.4c-0.3,0.3-0.3,0.4-0.1,0.9
			c0.1,0.6,0.3,1.3,0.7,1.9c0.7,1,0.9,1.6,1.5,2.4c0.6,0.7,1.5,2.1,2.2,2.1c-0.3,2.2-0.4,3.1,0,5.4c-0.3,2.1-1,5.4,0.1,6.9
			c0.9,1.2,2.1,0.9,2.7,0c0.3,0.6,0.1,0,0.4,0.6c-0.1,1.2-0.1,3.4-0.1,4c0,2.1,0.3,5.1,0.1,7c-0.4,8.5,1.8,7.9,0.4,11.8v0.1
			c0,0.1,0,0.3,0,0.4c0.6,0.3,1,0.3,1.6,0.3c0.4,0.3,0.9,0.4,1.3,0c0.3-0.3,0.4-0.6,0.3-1c0-0.1,0.1-0.3,0.1-0.6
			c0.1-0.9-0.1-1.8-0.4-2.7c0-0.7,0.4-0.4,0.4-1c0.1-1.6-0.1-3.9,0-5.5c0-1.6,0-2.5,0-4.2c0-1,0.6-6,0.6-6c0.4,0.7,2.5,2.7,3.1,3.3
			c0.6,0.7,0.6,1,1.2,1.8c0.4,0.6,0.3,0.6,0.7,1.2c0.6,0.9,0.4,1.9,0.6,3c0.3,1.6-0.1,3,0.1,4.6c0.1,0.9,0.3,1.3,0.3,2.1
			c0,0.9,0.1,1.6,0.1,2.5c0.7,0.6,5.8,2.5,5.7,0.3c-1.6-0.1-2.7-1-2.8-2.7l4.2-26.6c0.9,0,0.9-0.1,1.3-1.8c0.1-0.4-0.1-0.9-0.6-1
			c0.3-0.9,0.6-1.8-0.1-2.1c-1.2-0.4-1,1-1,1.9c-0.3,0-0.4,0.1-0.7,0.3c-0.3-0.1-0.4-0.3-0.6-0.3c-0.7-0.3-1.5-0.1-2.1-0.1
			c-0.7-1.8-1.8-3.4-2.7-5.2c0-0.3,0-0.7-0.1-1.2c-0.3-0.6-1.2-0.4-1.5-1.2c0.6-0.7,0.9-1.9,1-2.8c0.6-0.1,0.3,0.1,0.9-0.7
			c-0.9-0.6-0.7-1.3-1.3-2.1s-2.2-0.7-2.8-0.4l0,0c0,0,0,0-0.1,0c-0.1,0-0.1,0.1-0.1,0.1s0,0,0-0.1l0,0c-0.3,0.1-0.4,0.6-0.6,0.9
			c-0.3,0.4-0.7,0.7-1.2,0.7c0.3-0.1,0.4-0.1,0.6-0.4c0.1-0.3,0.3-0.6,0.3-0.9c0.1-0.3,0.3-0.6,0.6-0.7l0.1-0.1
			c-0.3-1.3-0.4-0.7-0.9-0.9c-0.4-0.3-1.2-0.6-1.5-0.4c-0.7-0.1-2.8,0.1-3.9,0.6c-1.5,0.9-1.3,1.8-1.6,3v0.3c0,0.9-0.3,1.9-0.4,2.8
			c0-0.4,0-1.3,0-1.9c0-0.1,0-0.3,0-0.4c-0.9,0-1.9,0.9-1.8,1.9c0,0.3,0.1,0.6,0.1,0.7c-0.7-0.7-1.2-1.2-1.8-1.9
			c-0.3-0.3-0.9-0.6-1.5-0.1c-0.1-0.3,0,0,0.1-0.6c0.3-0.9,0-1.5-0.3-1.9c-0.1,0-0.1,0-0.1,0.1c0,0.3,0.1,0.3,0,0.7
			c-0.1,0-1-1.9-1.2-1.9c-0.1,0-0.1,0.1-0.1,0.4c-0.1-0.3-0.3-0.6-0.3-0.4c-0.3,0.1-0.1,0.6,0,1c-0.1-0.3-0.3-0.4-0.4-0.3
			c0,0.1-0.1,0.3,0,0.7C1270.4,31.3,1270.1,31.3,1270.4,31.9z M1288.6,50.6c0.4-1.8,0.7-3.4,0.7-5.4c0-0.3,0-0.4,0.1-0.7
			c0.4,1,1,2.1,1.6,2.7c0.6,1,1.2,1,2.5,0.7c0.6-0.1,1.8-0.3,2.5-0.7l-3.6,23.2v-0.1c-0.1-0.9,0.1-2.2,0.1-3.1
			c0-1.9,0.1-4.8-0.6-6.4c-0.7-1.8-2.2-3.4-3-5.4C1288.5,53.5,1288.2,52.6,1288.6,50.6z M1277.7,36.4c0.7-0.3,1.5-0.9,2.4-1.2
			c0.9-0.3,1.9,0,2.8,0.1C1281.5,35.1,1278.9,36,1277.7,36.4z M1276.4,49c0.3,1.3,0.6,1.8,1.2,2.8c0.3,0.6,0.6,1.2,1,1.8
			c-0.6,0.6-1.2,0.4-1.8-0.6C1276.4,52.1,1276.5,50,1276.4,49z"/>
	</g>
</g>
</svg>
