<?xml version="1.0" encoding="utf-8"?>
<!-- Generator: Adobe Illustrator 24.0.0, SVG Export Plug-In . SVG Version: 6.00 Build 0)  -->
<svg version="1.1" id="Layer_1" xmlns="http://www.w3.org/2000/svg" xmlns:xlink="http://www.w3.org/1999/xlink" x="0px" y="0px"
	 viewBox="0 0 771 309.3" style="enable-background:new 0 0 771 309.3;" xml:space="preserve">
<style type="text/css">
	.st0{fill:#E8E8E8;stroke:#AAAAAA;stroke-miterlimit:10;}
	.st1{fill:#F2F0F0;stroke:#E8E8E8;stroke-miterlimit:10;}
	.st2{fill:#F2F0F0;stroke:#AAAAAA;stroke-miterlimit:10;}
</style>
<title>hill</title>
<path class="st0" d="M442.7,333.1c0.7,1.4,1.3,2.5,1.7,3.4C444.1,335.6,443.5,334.5,442.7,333.1z"/>
<g>
	<path class="st1" d="M286,132c7.6-2.5,10-3,11.8-4.1c13.4-3.2,25.1-37.5,38.5-44.9c10.7-6.4,29.3-17.4,31.1-14.1
		c-1.1,8.1,55.2,57,62.3,59.1c19.6,8.5,70.8-5.4,84.5-7.2c23.8-3.1,21.2,4.3,28.9,9.9c8.9,9.1,10.3,3.2,16.2,5.6
		c6.2,6.4,22.6-16.9,28.9-23.3c27.1-27.6,27.4-31.4,45-41.9c11.6,1.1,36,50.9,83,45.9c16.8-1.8,22.7,16.5,54.8,22.2V315H236v-65
		c0-44.3,18-86.5,49.6-117.6C285.7,132.3,285.9,132.1,286,132z"/>
	<path class="st1" d="M485.4,159C517,190.1,535,232.3,535,276.6v65H0l0-139.4c0-29.1,21-54.6,49.9-58.5c1.6-0.2,3.2-0.2,4.9-0.1
		c47,5,71.4-44.8,83-45.9c17.6,10.5,17.9,14.3,45,41.9c6.3,6.4,22.7,29.7,28.9,23.3c5.9-2.4,7.3,3.5,16.2-5.6
		c7.7-5.6,5.1-13,28.9-9.9c13.7,1.8,64.9,15.7,84.5,7.2c7.1-2.1,63.4-51,62.3-59.1c1.8-3.3,20.4,7.7,31.1,14.1
		c13.4,7.4,25.1,41.7,38.5,44.9c1.8,1.1,4.2,1.6,11.8,4.1C485.1,158.7,485.3,158.8,485.4,159z"/>
	<path class="st2" d="M657.1,182c-15.5-7-22.9-20-36.9-48c0,0-33.7-11.8-44.7-24.7c-33.2-64-58.8-80-66-101.3c-1.1-3-3.4-6.2-8.7-6
		c-3.4,0.1-11.2,16.7-20.7,31c-15.5,48.5-61.1,60.9-59.6,61.9c-1.5-1-12.8,28.2-64.3,84.4"/>
	<path class="st2" d="M501,3.4c-0.5,0.1-0.9,0.4-1.2,0.8c0,0-15.6,27.1-19,31c0,0-3.5,13.8-11,23.8c-5.6,7.5-27.8,37.3-38.6,44.3
		c-1.5-2.3,18.5-23.9,21.3-28.1C438,87.7,433,93.1,432.1,93.9c-1.5,2.8-16.9,31.3-31.1,46.5c8.5-19.8,14.6-28.6,17.9-35
		c3.6-7,8.1-9.3,13.6-15.5c-3,2.1-9.8,5.9-12.6,8.8c-21.2,42.1-55.7,77.9-92.9,116.3c-6.7,6.9-21,21.4-59.5,23.4
		c26.6,10.5,75.9-24.1,90.5-23.4c-41,75.9-18.4,13.3-23,21.4c-6.6,11.8-13.9,36.4-20.7,47.7c15.8-12.8,36.5-51.7,51.2-66.6
		c15.8-16.1,41.8-42.8,53.9-62.1c-11.4,10.8-39.8,42.6-47,49.5c-6.2,5.8-30.1,10.5-36.9,15.5c5.8-8.9,42.8-39,48-48.2
		c-5,6-44.1,37.8-60.3,50.7c21.1-17.5,37.8-40,45.8-48.6c8.1-8.8,34.9-33.4,44-41c0.3,3.9-26,44.6-32.8,56.8
		c6.9-9.9,43.2-58.2,43.9-59.4c8.2-13.9,42.5-60.8,45.7-62.5c0,0-19.9,38.5-21,43.3c-3.2,14-8.3,35.3-8.3,35.3
		c6.1-19.4,24.2-65,42-98c-8,12.4-54.1,72.4-60.8,74.2c11.3-16,46.5-59.1,55.3-72.7c2.7-4.2,7-17.2,13.5-26
		C493.7,20.2,501,4.3,501,3.4L501,3.4z"/>
	<path class="st2" d="M747.8,225.9c-16.8-3.6-56.4-16.3-68.6-28.2l-0.1-0.1c-30.5-14.1-49.2-32.2-60.5-61.6c-7-1.7-36-16.9-39-19
		c5.6,6.2,19.7,20,31.3,23c3.3,8.5,28.7,32.8,28.7,32.8c-20.6-13.4-55.5-42.6-57-45.4c-0.9-0.9-23.2-47.8-37.5-65.3
		c2.8,4.2,20.1,39.1,21.5,43c-26.1-34.3-33.1-51.5-38.4-59.3c-16.7-24.8,1.7-2.7,1.7-2.7c-3.4-3.8-24.6-37.3-24.6-37.3
		c-0.3-0.4-0.7-0.7-1.2-0.8c0,0.8,7.3,16.7,10.5,21c6.5,8.8,15.8,29.3,18.5,33.5c8.8,13.6,41.8,68.9,54.5,95.2
		c-12.1-2.5-57.1-91.7-65-104.1c12,35.2,27.8,75,40,95c0,0-34.8-42-32.4-39.7s37,78.1,84.9,101.7c-14.2-18.1-13.2-44-24.5-67
		c9.1,7.6,41.6,35.6,51.4,42.5c13,9.3,58.7,34.8,68.5,35.9c-8.1-0.9-37.5-5.8-100.5-54c3,5.3,26.2,31.2,42.2,43.7
		c9.2,5.9,56.7,27.3,95.2,24.2c9.9-0.8-7-0.6,12.8-3.6C758.9,229.1,749,226,747.8,225.9C745.3,225.5,750.1,226.4,747.8,225.9z"/>
	<path class="st0" d="M705.1,292c1.1,1.1,2.3,2.2,3.5,3.2c-1.4-2-2.9-3.9-4.7-5.6C704.4,290.4,704.8,291.2,705.1,292z"/>
	<path class="st0" d="M430.1,145.2c-3.3-0.2-8.2-28.2-12.1-28.7c-20.5-2.7-37-19.1-26.2-11.8c0.9,0.6,12.3,5,7.9,2.8
		c-5.4-2.8-12.3-10.8-14.2-13.9c-2.9-4.6-3.7-5.4-8.4-9.5c-1.5-1.3-5.1-4.2-11.3-13.9c4.2,6.9,3.9,9.3,4.4,9.8
		c0.9,0.9,7.6,6.3,9.5,9.9c1.1,2.2,4,13.3,4,14.1c0,1.4-5.7-5.7-9.9-11.1c-2.8-3.5-4.9-6.3-4.5-5.5c4.9,8.9,19.1,33.6,31.1,40.3
		c-19.8-23.9-14.8-27.7-15.1-29c3.1,8.6,12.1,14.3,19.6,17.8c6.6,3,6.7,2.4,12,7.3c6.8,6.4,8.9,28.3,15.7,34.4L430.1,145.2z"/>
	<path class="st2" d="M645,84.6c6.6,5.6,21.8,24,35.7,35.8c-2.2-3.2-7.7-9.2-12.3-14c-2.1-2.2-4-4.2-5.2-5.5
		c-9.4-9.8-26.1-30.2-29.9-29c-5.4,2.2-30.3,35-40.3,40.7c2.7-4.2,30-31.2,30.8-33.7c-5.2,6.1-19.8,19.3-24.3,24.3
		c-3,3.3-6.4,6.3-13.8,14.3c0.3,0.2,1.5,0.8,1.8,1l5.2,3.2c5.1-4.9,11.3-15.9,13.4-18c20.5-20.8,22.8-24.7,25.5-27
		c1.4-1.2-3,9.5-14.3,29.5c7.9-12,15.6-28,16.8-27.7c1.6,0.3,0.4,9.2-1.2,19.7l-4.4,0.4c-1.9,11.5-9.9,22.3-13.5,26.1
		c6.3-5.9,12.7-16.6,14.3-25.3l4.5-0.2c1.5-8.6,2.8-17.4,2.9-20.4c1.3,1.2,10.7,26.1,2.7,1c-0.6-1.8,32.8,41.6,34.7,43
		S642.8,82.7,645,84.6z"/>
	<path class="st2" d="M147.1,111c6.6,5.6,21.8,24,35.7,35.8c-2.2-3.2-7.7-9.2-12.3-14c-2.1-2.2-4-4.2-5.2-5.5
		c-9.4-9.8-26.1-30.2-29.9-29c-5.4,2.2-30.3,35-40.3,40.7c2.7-4.2,30-31.2,30.8-33.7c-5.2,6.1-19.8,19.3-24.3,24.3
		c-3,3.3-6.4,6.3-13.8,14.3c0.3,0.2,1.5,0.8,1.8,1l5.2,3.2c5.1-4.9,11.3-15.9,13.4-18c20.5-20.8,22.8-24.7,25.5-27
		c1.4-1.2-3,9.5-14.3,29.5c7.9-12,15.6-28,16.8-27.7c1.6,0.3,0.4,9.2-1.2,19.7l-4.4,0.4c-1.9,11.5-9.9,22.3-13.5,26.1
		c6.3-5.9,12.7-16.6,14.3-25.3l4.5-0.2c1.5-8.6,2.8-17.4,2.9-20.4c1.3,1.2,10.7,26.1,2.7,1c-0.6-1.8,32.8,41.6,34.7,43
		C178.1,150.6,144.9,109.1,147.1,111z"/>
	<path class="st2" d="M368,81.2c6.6,5.6,21.8,24,35.7,35.8c-2.2-3.2-7.7-9.2-12.3-14c-2.1-2.2-4-4.2-5.2-5.5
		c-9.4-9.8-26.1-30.2-29.9-29c-5.4,2.2-30.3,35-40.3,40.7c2.7-4.2,30-31.2,30.8-33.7c-5.2,6.1-19.8,19.3-24.3,24.3
		c-3,3.3-6.4,6.3-13.8,14.3c0.3,0.2,1.5,0.8,1.8,1l5.2,3.2c5.1-4.9,11.3-15.9,13.4-18c20.5-20.8,22.8-24.7,25.5-27
		c1.4-1.2-3,9.5-14.3,29.5c7.9-12,15.6-28,16.8-27.7c1.6,0.3,0.4,9.2-1.2,19.7l-4.4,0.4c-1.9,11.5-9.9,22.3-13.5,26.1
		c6.3-5.9,12.7-16.6,14.3-25.3l4.5-0.2c1.5-8.6,2.8-17.4,2.9-20.4c1.3,1.2,10.7,26.1,2.7,1c-0.6-1.8,32.8,41.6,34.7,43
		S365.8,79.3,368,81.2z"/>
</g>
</svg>
