<?xml version="1.0" encoding="utf-8"?>
<!-- Generator: Adobe Illustrator 24.0.0, SVG Export Plug-In . SVG Version: 6.00 Build 0)  -->
<svg version="1.1" id="Layer_3" xmlns="http://www.w3.org/2000/svg" xmlns:xlink="http://www.w3.org/1999/xlink" x="0px" y="0px"
	 viewBox="0 0 1604.8 290.9" style="enable-background:new 0 0 1604.8 290.9;" xml:space="preserve">
<style type="text/css">
	.st0{fill:#EAEAEA;}
	.st1{fill:#CECECE;}
	.st2{fill:url(#SVGID_1_);}
	.st3{fill:url(#SVGID_2_);}
	.st4{fill:url(#SVGID_3_);}
	.st5{fill:url(#SVGID_4_);}
	.st6{fill:url(#SVGID_5_);}
	.st7{fill:url(#SVGID_6_);}
	.st8{fill:none;}
	.st9{fill:url(#SVGID_7_);}
	.st10{fill:url(#SVGID_8_);}
	.st11{fill:url(#SVGID_9_);}
	.st12{fill:url(#SVGID_10_);}
	.st13{fill:url(#SVGID_11_);}
	.st14{fill:url(#SVGID_12_);}
	.st15{fill:url(#SVGID_13_);}
	.st16{fill:url(#SVGID_14_);}
	.st17{fill:url(#SVGID_15_);}
	.st18{fill:url(#SVGID_16_);}
	.st19{fill:url(#SVGID_17_);}
	.st20{fill:url(#SVGID_18_);}
</style>
<g>
	<g>
		<path class="st0" d="M1070.1,154.8c16.6-1,35.8-10.3,49.9-24.4c7.6-2.5,10-3,11.8-4.1c13.4-3.2,25.1-37.5,38.5-44.9
			c10.7-6.4,29.3-17.4,31.1-14.1c-1.1,8.1,55.2,57,62.3,59.1c19.6,8.5,70.8-5.4,84.5-7.2c23.8-3.1,21.2,4.3,28.9,9.9
			c8.9,9.1,10.3,3.2,16.2,5.5c6.2,6.4,22.6-16.9,28.9-23.3c27.1-27.6,27.4-31.4,45-41.9c11.6,1.1,39.4,48,86.7,48
			c14.8,0,24,21.6,51.1,37.1"/>
		<path class="st1" d="M1070.1,154.8c4.7-0.3,9.4-1.2,13.9-2.6c4.5-1.4,8.9-3.2,13.1-5.3c8.4-4.3,16.2-9.9,22.9-16.5l0,0l0,0l6-1.9
			c1-0.3,2-0.6,3-1c1-0.3,2-0.7,2.8-1.2l0,0l0,0c1.9-0.5,3.6-1.5,5.1-2.7c1.5-1.2,2.9-2.6,4.2-4.1c2.6-3,4.8-6.3,7-9.6
			c4.3-6.6,8.3-13.5,13.1-19.8c2.4-3.1,5-6.2,8.4-8.4c3.4-2.1,6.8-4.1,10.2-6c3.4-2,6.9-3.9,10.5-5.6c1.8-0.9,3.6-1.7,5.4-2.4
			c0.9-0.4,1.9-0.7,2.9-0.9c0.5-0.1,1-0.2,1.5-0.2c0.5,0,1.2,0.1,1.5,0.7l0,0.1l0,0.1c-0.1,0.8,0.3,1.6,0.7,2.4
			c0.4,0.8,0.9,1.5,1.4,2.3c1,1.5,2.2,2.9,3.3,4.3c2.3,2.8,4.8,5.4,7.3,8c5.1,5.2,10.3,10.1,15.7,15c5.4,4.9,10.8,9.6,16.4,14.2
			c2.8,2.3,5.6,4.6,8.5,6.8c1.4,1.1,2.9,2.2,4.4,3.2c0.7,0.5,1.5,1,2.2,1.5c0.8,0.5,1.5,0.9,2.3,1.2l0,0l0,0
			c4.5,1.9,9.5,2.4,14.4,2.6c4.9,0.2,9.8-0.1,14.7-0.5c9.8-0.9,19.6-2.5,29.2-4.4c4.8-0.9,9.7-1.9,14.5-2.9c4.8-1,9.7-2,14.6-2.5
			c2.5-0.3,4.9-0.4,7.4-0.4c2.5,0.1,5,0.3,7.4,1.1c2.4,0.8,4.5,2.5,6.1,4.4c1.6,1.9,3.2,3.8,5.1,5.2l0,0l0,0l1.6,1.5
			c0.6,0.5,1.1,1,1.7,1.4c1.2,0.9,2.4,1.6,3.8,2c1.4,0.4,2.8,0.1,4.3-0.1c1.5-0.2,3.2-0.1,4.6,0.5l0.1,0l0.1,0.1
			c0.7,0.7,1.6,1,2.5,1c1,0,1.9-0.4,2.8-0.9c1.8-0.9,3.4-2.3,5-3.6c3.1-2.8,5.9-5.9,8.7-9.1c2.8-3.2,5.4-6.5,8.2-9.6l8.8-9.1
			c5.8-6.1,11.5-12.3,17.3-18.4c2.9-3,6-5.9,9.4-8.5c3.4-2.6,6.9-4.9,10.6-7l0.1-0.1l0.2,0c1.9,0.2,3.5,1.2,4.9,2.2
			c1.5,1,2.8,2.1,4.1,3.2c2.6,2.3,5.1,4.7,7.6,7c5,4.7,10.1,9.4,15.4,13.7c2.7,2.2,5.4,4.3,8.3,6.2c1.4,1,2.9,1.9,4.3,2.8
			c1.5,0.9,2.9,1.8,4.4,2.6c3,1.7,6.1,3.2,9.3,4.5c3.2,1.3,6.4,2.5,9.8,3.3c3.3,0.9,6.7,1.5,10.1,2l2.6,0.2c0.9,0.1,1.7,0.2,2.6,0.2
			c1.7,0.1,3.4,0.1,5.2,0.2c3.5,0.4,6.7,2.1,9.5,4.2c2.8,2,5.4,4.4,7.9,6.8c5,4.8,9.8,9.7,15,14.2c5.2,4.5,10.8,8.5,16.8,12l0,0.1
			c-6-3.4-11.7-7.4-17-11.9c-5.3-4.4-10.2-9.3-15.2-14.1c-2.5-2.4-5-4.7-7.8-6.7c-2.8-2-5.9-3.6-9.3-4c-1.7-0.2-3.4-0.2-5.1-0.2
			c-0.9,0-1.7-0.1-2.6-0.2l-2.6-0.2c-3.4-0.5-6.9-1-10.2-2c-3.4-0.8-6.6-2-9.8-3.3c-3.2-1.4-6.3-2.8-9.3-4.5c-1.5-0.8-3-1.7-4.5-2.6
			c-1.5-0.9-2.9-1.8-4.3-2.8c-2.9-1.9-5.6-4-8.3-6.2c-5.4-4.3-10.5-9-15.6-13.7c-2.5-2.4-5-4.7-7.6-7c-1.3-1.1-2.6-2.2-4-3.1
			c-1.4-0.9-2.9-1.8-4.5-2l0.3-0.1c-3.6,2.2-7.1,4.4-10.5,7c-3.3,2.5-6.4,5.4-9.3,8.4c-5.8,6-11.5,12.3-17.4,18.4l-8.8,9.1
			c-2.8,3.1-5.4,6.4-8.2,9.6c-2.8,3.2-5.6,6.3-8.8,9.2c-1.6,1.4-3.3,2.8-5.2,3.7c-1,0.5-2,0.9-3.2,1c-1.1,0.1-2.4-0.4-3.2-1.2
			l0.1,0.1c-1.3-0.6-2.8-0.7-4.2-0.5c-1.4,0.2-3.1,0.5-4.6,0c-1.5-0.4-2.9-1.2-4.1-2.2c-0.6-0.4-1.2-1-1.8-1.5l-1.6-1.6l0.1,0
			c-2.1-1.5-3.7-3.5-5.3-5.3c-1.6-1.9-3.5-3.4-5.7-4.2c-4.6-1.5-9.6-1.2-14.5-0.7c-4.9,0.4-9.7,1.5-14.6,2.5c-4.8,1-9.7,2-14.5,2.9
			c-9.7,1.8-19.5,3.5-29.3,4.3c-4.9,0.4-9.9,0.7-14.8,0.5c-4.9-0.2-10-0.8-14.6-2.7l0,0c-0.9-0.3-1.7-0.8-2.5-1.3
			c-0.8-0.5-1.5-1-2.3-1.5c-1.5-1-2.9-2.1-4.4-3.2c-2.9-2.2-5.7-4.5-8.5-6.8c-5.6-4.6-11-9.4-16.4-14.3c-5.3-4.9-10.6-9.9-15.7-15
			c-2.5-2.6-5-5.2-7.3-8c-1.2-1.4-2.3-2.8-3.3-4.3c-0.5-0.8-1-1.5-1.4-2.3c-0.4-0.8-0.8-1.7-0.8-2.7l0,0.2c-0.2-0.3-0.6-0.5-1.1-0.5
			c-0.5,0-0.9,0.1-1.4,0.2c-0.9,0.2-1.9,0.5-2.8,0.9c-1.8,0.7-3.6,1.5-5.4,2.4c-3.5,1.7-7,3.6-10.4,5.6c-3.4,2-6.8,4-10.2,6
			c-3.3,2.1-5.9,5.1-8.3,8.2c-4.8,6.3-8.7,13.2-13.1,19.8c-2.2,3.3-4.4,6.6-7,9.6c-1.3,1.5-2.7,2.9-4.2,4.2
			c-1.6,1.2-3.3,2.3-5.3,2.8l0,0c-0.9,0.5-1.9,0.9-2.9,1.2c-1,0.3-2,0.6-3,1l-6,1.9l0,0c-6.7,6.7-14.5,12.2-23,16.5
			c-4.2,2.1-8.6,3.9-13.1,5.3C1079.5,153.6,1074.8,154.6,1070.1,154.8L1070.1,154.8z"/>
	</g>
	<g>
		<path class="st0" d="M1491.1,180.4c-15.4-7-22.9-20-36.9-48c0,0-33.7-11.8-44.7-24.7c-33.2-64-58.8-80-66-101.3
			c-1.1-3-3.4-6.2-8.7-6c-3.4,0.1-11.2,16.7-20.7,31.1c-15.5,48.4-61.1,60.9-59.6,61.9c-1.5-1-12.8,28.2-64.3,84.4"/>
		<path class="st1" d="M1491.1,180.5c-4.7-2.1-9-5.1-12.7-8.7c-3.7-3.6-6.7-7.8-9.5-12.1c-2.8-4.3-5.3-8.8-7.7-13.4
			c-2.4-4.6-4.7-9.1-7.1-13.7l0.1,0.1c-4-1.4-8-3-12-4.7c-3.9-1.7-7.8-3.5-11.7-5.4c-3.8-1.9-7.6-4-11.2-6.4
			c-3.6-2.4-7.1-4.9-10-8.2l0,0l0,0c-6.6-12.6-13.7-24.9-21.4-36.8c-3.8-6-7.9-11.8-12.1-17.5c-4.2-5.7-8.5-11.3-13-16.9
			c-4.4-5.6-8.9-11.1-12.9-17c-1-1.4-1.9-3-2.8-4.5c-0.5-0.7-0.9-1.6-1.3-2.4l-1.2-2.4c-0.7-1.6-1.3-3.4-2-4.9
			c-0.7-1.6-1.8-2.9-3.3-3.7c-0.7-0.4-1.6-0.7-2.4-0.8c-0.4-0.1-0.8-0.1-1.3-0.1l-0.6,0l-0.3,0c-0.1,0-0.1,0-0.2,0
			c-0.7,0.3-1.3,0.9-1.9,1.5c-0.6,0.7-1.1,1.4-1.6,2.1c-2,2.9-3.8,6-5.6,9c-3.6,6.1-7.1,12.3-11,18.2l0.1-0.1
			c-2.3,7.1-5.3,13.9-9.2,20.3c-3.9,6.4-8.5,12.2-13.8,17.5c-5.3,5.3-11.1,9.9-17.4,13.9c-3.1,2-6.4,3.9-9.7,5.6
			c-1.7,0.8-3.3,1.7-5,2.4l-2.5,1.2l-1.2,0.6c-0.2,0.1-0.4,0.2-0.6,0.3c-0.1,0.1-0.2,0.1-0.3,0.2c0,0-0.1,0.1-0.1,0c0,0,0,0,0,0
			c0,0,0,0,0-0.1c0-0.1,0-0.2,0-0.2c0-0.1-0.1-0.1-0.1-0.1l-0.5,0.8c0.1,0.1,0.3,0,0.3,0c0,0,0,0-0.1,0.1c-0.1,0.1-0.2,0.2-0.2,0.3
			c-0.2,0.2-0.3,0.4-0.5,0.6c-0.3,0.4-0.6,0.9-0.9,1.4l-1.7,2.8l-3.5,5.7c-2.3,3.8-4.8,7.5-7.2,11.2c-5,7.3-10.2,14.5-15.6,21.5
			c-10.8,14-22.5,27.5-34.5,40.5l-0.1-0.1c5.9-6.6,11.8-13.2,17.5-20c5.7-6.8,11.3-13.7,16.6-20.7c5.4-7,10.6-14.2,15.5-21.6
			c2.5-3.7,4.9-7.4,7.2-11.2l3.4-5.7l1.7-2.9c0.3-0.5,0.6-1,0.9-1.4c0.2-0.2,0.3-0.5,0.5-0.7c0.1-0.1,0.2-0.2,0.3-0.4
			c0.1-0.1,0.1-0.1,0.3-0.2c0.1-0.1,0.4-0.1,0.7,0l-0.5,0.8c-0.1-0.1-0.1-0.1-0.2-0.2c-0.1-0.1-0.1-0.3,0-0.3c0-0.1,0.1-0.1,0.1-0.2
			c0,0,0.1-0.1,0.1-0.1c0.1-0.1,0.1-0.1,0.2-0.2c0.1-0.1,0.2-0.1,0.3-0.2c0.2-0.1,0.4-0.2,0.6-0.3l1.3-0.6l2.5-1.2
			c1.7-0.8,3.3-1.6,5-2.4c3.3-1.7,6.5-3.5,9.6-5.5c6.2-4,12-8.6,17.2-13.8c5.2-5.2,9.8-11,13.6-17.3c3.8-6.3,6.9-13,9.1-20.1l0-0.1
			l0-0.1c3.9-5.9,7.4-12,11.1-18.2c1.8-3.1,3.6-6.1,5.7-9c0.5-0.7,1.1-1.5,1.7-2.1c0.6-0.7,1.2-1.4,2.2-1.8c0.1,0,0.3-0.1,0.4-0.1
			l0.3,0l0.7,0c0.5,0,0.9,0.1,1.4,0.1c0.9,0.2,1.8,0.4,2.6,0.9c1.7,0.9,2.9,2.4,3.6,4.1c0.7,1.7,1.3,3.3,2,5l1.2,2.4
			c0.4,0.8,0.8,1.6,1.2,2.3c0.9,1.5,1.8,3.1,2.8,4.5c3.9,5.9,8.4,11.4,12.8,17c4.4,5.6,8.7,11.2,12.9,16.9
			c4.1,5.8,8.2,11.6,12.1,17.6c7.7,11.9,14.8,24.3,21.3,36.9l0,0c2.8,3.2,6.3,5.8,9.8,8.1c3.6,2.4,7.3,4.4,11.1,6.4
			c3.8,1.9,7.7,3.8,11.6,5.4c3.9,1.7,7.9,3.3,11.9,4.7l0.1,0l0,0.1c2.3,4.6,4.6,9.2,7,13.8c2.4,4.5,4.9,9.1,7.7,13.4
			c2.8,4.3,5.8,8.5,9.5,12.1C1482.1,175.3,1486.4,178.2,1491.1,180.5L1491.1,180.5z"/>
	</g>
	<linearGradient id="SVGID_1_" gradientUnits="userSpaceOnUse" x1="1194.0585" y1="52.5646" x2="1382.5039" y2="570.3142">
		<stop  offset="0" style="stop-color:#BFBFBF"/>
		<stop  offset="5.276039e-03" style="stop-color:#B9B9B9"/>
		<stop  offset="4.496755e-02" style="stop-color:#918F93"/>
		<stop  offset="8.092022e-02" style="stop-color:#747177"/>
		<stop  offset="0.1116" style="stop-color:#625F66"/>
		<stop  offset="0.1333" style="stop-color:#5C5860"/>
		<stop  offset="0.1713" style="stop-color:#48454C"/>
		<stop  offset="0.2346" style="stop-color:#2E2C30"/>
		<stop  offset="0.3033" style="stop-color:#1A191B"/>
		<stop  offset="0.3792" style="stop-color:#0B0B0C"/>
		<stop  offset="0.4678" style="stop-color:#030303"/>
		<stop  offset="0.6" style="stop-color:#000000"/>
	</linearGradient>
	<path class="st2" d="M1335,1.9c-0.5,0.1-0.9,0.3-1.2,0.8c0,0-15.6,27.2-19,31c0,0-3.5,13.8-11,23.8c-5.6,7.5-27.8,37.3-38.6,44.3
		c-1.5-2.3,18.5-23.9,21.3-28.1c-14.5,12.5-19.5,17.9-20.4,18.7c-1.5,2.8-16.9,31.3-31.1,46.5c8.5-19.8,14.6-28.6,17.9-35
		c3.6-7,8.1-9.3,13.6-15.5c-3,2.1-9.7,5.9-12.6,8.8c-21.2,42.1-55.7,77.9-92.9,116.3c-6.7,6.9-21,21.4-59.5,23.4
		c26.6,10.5,75.9-24.1,90.5-23.4c-41,75.9-18.4,13.3-23,21.4c-6.6,11.8-13.9,36.4-20.7,47.7c15.8-12.8,36.5-51.7,51.2-66.7
		c15.8-16.1,41.8-42.8,53.9-62.1c-11.4,10.8-39.8,42.7-47,49.5c-6.2,5.9-30.1,10.6-36.9,15.5c5.8-8.9,42.8-39,48-48.2
		c-5,6-44.1,37.8-60.3,50.7c21.1-17.5,37.8-40,45.8-48.6c8.1-8.8,34.9-33.4,44-41c0.3,3.9-26,44.6-32.8,56.8
		c6.9-9.9,43.2-58.2,43.9-59.4c8.2-13.9,42.5-60.8,45.7-62.5c0,0-19.9,38.5-21,43.3c-3.2,14-8.3,35.3-8.3,35.3
		c6.1-19.4,24.2-65,42-98c-7.9,12.4-54.1,72.4-60.8,74.2c11.3-16,46.4-59.1,55.3-72.7c2.7-4.2,7-17.2,13.5-26
		C1327.7,18.6,1335,2.7,1335,1.9C1335,1.1,1335,1.1,1335,1.9z"/>
	<linearGradient id="SVGID_2_" gradientUnits="userSpaceOnUse" x1="1418.4331" y1="186.2667" x2="1478.1576" y2="97.7216">
		<stop  offset="0.2788" style="stop-color:#000000"/>
		<stop  offset="0.415" style="stop-color:#1D1B1E"/>
		<stop  offset="0.6056" style="stop-color:#3F3C42"/>
		<stop  offset="0.7609" style="stop-color:#545158"/>
		<stop  offset="0.8606" style="stop-color:#5C5860"/>
		<stop  offset="0.8774" style="stop-color:#625F66"/>
		<stop  offset="0.9011" style="stop-color:#747177"/>
		<stop  offset="0.9289" style="stop-color:#918F93"/>
		<stop  offset="0.9596" style="stop-color:#B9B9B9"/>
		<stop  offset="0.9636" style="stop-color:#BFBFBF"/>
	</linearGradient>
	<path class="st3" d="M1581.8,224.3c-16.8-3.6-56.4-16.2-68.6-28.2c0,0-0.1-0.1-0.1-0.2c-30.4-14.1-49.1-32.2-60.5-61.6
		c-7-1.7-36-16.9-39-19c5.6,6.2,19.7,20,31.3,23c3.3,8.5,28.7,32.8,28.7,32.8c-20.6-13.4-55.5-42.6-57-45.4
		c-0.9-0.9-23.2-47.8-37.5-65.3c2.8,4.2,20.1,39.1,21.5,43c-26.1-34.3-33.1-51.5-38.4-59.3c-16.7-24.8,1.7-2.7,1.7-2.7
		c-3.4-3.8-24.6-37.3-24.6-37.3c-0.3-0.4-0.8-0.7-1.2-0.8c0,0.8,7.3,16.7,10.5,21c6.5,8.8,15.8,29.3,18.5,33.5
		c8.8,13.6,41.8,68.9,54.5,95.2c-12.1-2.5-57.1-91.8-65-104.2c12,35.2,27.8,75,40,95c0,0-34.8-42-32.4-39.7
		c2.3,2.2,37,78.1,84.9,101.7c-14.2-18.1-13.2-44-24.4-66.9c9.1,7.6,41.6,35.6,51.4,42.5c13,9.3,58.7,34.8,68.6,35.9
		c-8.1-0.9-37.5-5.8-100.5-54c3,5.3,26.2,31.2,42.2,43.7c9.2,5.9,56.7,27.3,95.2,24.2c9.9-0.8-7-0.6,12.8-3.6
		C1592.9,227.6,1583,224.5,1581.8,224.3C1579.3,224,1584.1,224.9,1581.8,224.3z"/>
	<linearGradient id="SVGID_3_" gradientUnits="userSpaceOnUse" x1="1486.8907" y1="346.2007" x2="1614.95" y2="213.5915">
		<stop  offset="0.1879" style="stop-color:#000000"/>
		<stop  offset="0.3142" style="stop-color:#040405"/>
		<stop  offset="0.457" style="stop-color:#121112"/>
		<stop  offset="0.6078" style="stop-color:#272629"/>
		<stop  offset="0.7632" style="stop-color:#454248"/>
		<stop  offset="0.8606" style="stop-color:#5C5860"/>
		<stop  offset="1" style="stop-color:#7A7580"/>
	</linearGradient>
	<path class="st4" d="M1539.1,290.4c1.2,1.1,2.3,2.2,3.5,3.2c-1.2-1.9-2.9-3.8-4.7-5.6C1538.4,288.9,1538.8,289.6,1539.1,290.4z"/>
	
		<linearGradient id="SVGID_4_" gradientUnits="userSpaceOnUse" x1="961.0779" y1="151.9683" x2="1066.3719" y2="42.9331" gradientTransform="matrix(-1 0 0 1 2233.9294 0)">
		<stop  offset="0.1879" style="stop-color:#000000"/>
		<stop  offset="0.2858" style="stop-color:#040405"/>
		<stop  offset="0.3964" style="stop-color:#121112"/>
		<stop  offset="0.5133" style="stop-color:#272629"/>
		<stop  offset="0.6336" style="stop-color:#454248"/>
		<stop  offset="0.7091" style="stop-color:#5C5860"/>
		<stop  offset="0.9636" style="stop-color:#7A7580"/>
	</linearGradient>
	<path class="st5" d="M1264.1,143.7c-3.3-0.2-8.2-28.2-12.1-28.7c-20.5-2.7-37.1-19.1-26.2-11.8c0.9,0.6,12.3,5,7.9,2.8
		c-5.4-2.8-12.3-10.8-14.2-13.9c-2.9-4.6-3.7-5.4-8.4-9.5c-1.5-1.4-5.1-4.2-11.3-13.9c4.2,6.9,3.8,9.3,4.4,9.8
		c0.9,0.9,7.6,6.3,9.5,9.9c1.1,2.2,4,13.3,4,14.1c0,1.4-5.7-5.7-9.9-11.1c-2.8-3.5-4.9-6.3-4.5-5.5c4.9,8.9,19.1,33.6,31.1,40.3
		c-19.8-23.9-14.8-27.7-15.1-29c3.1,8.6,12.1,14.3,19.6,17.8c6.6,3.1,6.7,2.4,12,7.3c6.8,6.4,8.9,28.3,15.7,34.4L1264.1,143.7z"/>
	
		<linearGradient id="SVGID_5_" gradientUnits="userSpaceOnUse" x1="1565.9554" y1="69.678" x2="1540.8567" y2="163.9436" gradientTransform="matrix(-0.9845 0.1752 0.1752 0.9845 2978.3962 -264.7033)">
		<stop  offset="0" style="stop-color:#7A7580"/>
		<stop  offset="3.580363e-03" style="stop-color:#78737E"/>
		<stop  offset="6.348640e-02" style="stop-color:#58545C"/>
		<stop  offset="0.1289" style="stop-color:#3D3A40"/>
		<stop  offset="0.2025" style="stop-color:#262528"/>
		<stop  offset="0.2864" style="stop-color:#151416"/>
		<stop  offset="0.3864" style="stop-color:#090909"/>
		<stop  offset="0.5188" style="stop-color:#020202"/>
		<stop  offset="0.8121" style="stop-color:#000000"/>
	</linearGradient>
	<path class="st6" d="M1479,83.1c6.6,5.6,21.8,24,35.7,35.8c-2.2-3.2-7.7-9.2-12.3-14c-2.1-2.2-4-4.1-5.2-5.5
		c-9.4-9.8-26.1-30.2-29.9-29c-5.4,2.2-30.3,35-40.3,40.7c2.7-4.2,30-31.2,30.8-33.7c-5.2,6.1-19.8,19.3-24.3,24.3
		c-3,3.3-6.4,6.3-13.8,14.3c0.3,0.2,1.5,0.8,1.8,1c0,0,4,2.4,5.2,3.2c5.1-4.9,11.3-15.9,13.4-18c20.5-20.8,22.8-24.7,25.5-26.9
		c1.4-1.1-3,9.5-14.3,29.5c7.9-12,15.6-28,16.8-27.7c1.6,0.3,0.4,9.2-1.2,19.7l-4.4,0.4c-1.9,11.5-9.9,22.3-13.5,26.1
		c6.3-5.9,12.7-16.6,14.3-25.3l4.5-0.2c1.5-8.6,2.8-17.4,2.9-20.4c1.3,1.2,10.7,26.1,2.7,1c-0.6-1.8,32.9,41.6,34.7,43
		C1509.8,123,1476.8,81.1,1479,83.1z"/>
	<rect x="1123.5" y="-61.6" class="st8" width="450" height="450"/>
</g>
<g>
	<g>
		<path class="st0" d="M535,155.1c16.6-1,35.8-10.3,49.9-24.4c7.6-2.5,10-3,11.8-4.1c13.4-3.2,25.1-37.5,38.5-44.9
			c10.7-6.4,29.3-17.4,31.1-14.1c-1.1,8.1,55.2,57,62.3,59.1c19.6,8.5,70.8-5.4,84.5-7.2c23.8-3.1,21.2,4.3,28.9,9.9
			c8.9,9.1,10.3,3.2,16.2,5.5c6.2,6.4,22.6-16.9,28.9-23.3c27.1-27.6,27.4-31.4,45-41.9c11.6,1.1,39.4,48,86.7,48
			c14.8,0,24,21.6,51.1,37.1"/>
		<path class="st1" d="M535,155c4.7-0.3,9.4-1.2,13.9-2.6c4.5-1.4,8.9-3.2,13.1-5.3c8.4-4.3,16.2-9.9,22.9-16.5l0,0l0,0l6-1.9
			c1-0.3,2-0.6,3-1c1-0.3,2-0.7,2.8-1.2l0,0l0,0c1.9-0.5,3.6-1.5,5.1-2.7c1.5-1.2,2.9-2.6,4.2-4.1c2.6-3,4.8-6.3,7-9.6
			c4.3-6.6,8.3-13.5,13.1-19.8c2.4-3.1,5-6.2,8.4-8.4c3.4-2.1,6.8-4.1,10.2-6c3.4-2,6.9-3.9,10.5-5.6c1.8-0.9,3.6-1.7,5.4-2.4
			c0.9-0.4,1.9-0.7,2.9-0.9c0.5-0.1,1-0.2,1.5-0.2c0.5,0,1.2,0.1,1.5,0.7l0,0.1l0,0.1c-0.1,0.8,0.3,1.6,0.7,2.4
			c0.4,0.8,0.9,1.5,1.4,2.3c1,1.5,2.2,2.9,3.3,4.3c2.3,2.8,4.8,5.4,7.3,8c5.1,5.2,10.3,10.1,15.7,15c5.4,4.9,10.8,9.6,16.4,14.2
			c2.8,2.3,5.6,4.6,8.5,6.8c1.4,1.1,2.9,2.2,4.4,3.2c0.7,0.5,1.5,1,2.2,1.5c0.8,0.5,1.5,0.9,2.3,1.2l0,0l0,0
			c4.5,1.9,9.5,2.4,14.4,2.6c4.9,0.2,9.8-0.1,14.7-0.5c9.8-0.9,19.6-2.5,29.2-4.4c4.8-0.9,9.7-1.9,14.5-2.9c4.8-1,9.7-2,14.6-2.5
			c2.5-0.3,4.9-0.4,7.4-0.4c2.5,0.1,5,0.3,7.4,1.1c2.4,0.8,4.5,2.5,6.1,4.4c1.6,1.9,3.2,3.8,5.1,5.2l0,0l0,0l1.6,1.5
			c0.6,0.5,1.1,1,1.7,1.4c1.2,0.9,2.4,1.6,3.8,2c1.4,0.4,2.8,0.1,4.3-0.1c1.5-0.2,3.2-0.1,4.6,0.5l0.1,0l0.1,0.1
			c0.7,0.7,1.6,1,2.5,1c1,0,1.9-0.4,2.8-0.9c1.8-0.9,3.4-2.3,5-3.6c3.1-2.8,5.9-5.9,8.7-9.1c2.8-3.2,5.4-6.5,8.2-9.6l8.8-9.1
			c5.8-6.1,11.5-12.3,17.3-18.4c2.9-3,6-5.9,9.4-8.5c3.4-2.6,6.9-4.9,10.6-7l0.1-0.1l0.2,0c1.9,0.2,3.5,1.2,4.9,2.2
			c1.5,1,2.8,2.1,4.1,3.2c2.6,2.3,5.1,4.7,7.6,7c5,4.7,10.1,9.4,15.4,13.7c2.7,2.2,5.4,4.3,8.3,6.2c1.4,1,2.9,1.9,4.3,2.8
			c1.5,0.9,2.9,1.8,4.4,2.6c3,1.7,6.1,3.2,9.3,4.5c3.2,1.3,6.4,2.5,9.8,3.3c3.3,0.9,6.7,1.5,10.1,2l2.6,0.2c0.9,0.1,1.7,0.2,2.6,0.2
			c1.7,0.1,3.4,0.1,5.2,0.2c3.5,0.4,6.7,2.1,9.5,4.2c2.8,2,5.4,4.4,7.9,6.8c5,4.8,9.8,9.7,15,14.2c5.2,4.5,10.8,8.5,16.8,12l0,0.1
			c-6-3.4-11.7-7.4-17-11.9c-5.3-4.4-10.2-9.3-15.2-14.1c-2.5-2.4-5-4.7-7.8-6.7c-2.8-2-5.9-3.6-9.3-4c-1.7-0.2-3.4-0.2-5.1-0.2
			c-0.9,0-1.7-0.1-2.6-0.2l-2.6-0.2c-3.4-0.5-6.9-1-10.2-2c-3.4-0.8-6.6-2-9.8-3.3c-3.2-1.4-6.3-2.8-9.3-4.5c-1.5-0.8-3-1.7-4.5-2.6
			c-1.5-0.9-2.9-1.8-4.3-2.8c-2.9-1.9-5.6-4-8.3-6.2c-5.4-4.3-10.5-9-15.6-13.7c-2.5-2.4-5-4.7-7.6-7c-1.3-1.1-2.6-2.2-4-3.1
			c-1.4-0.9-2.9-1.8-4.5-2l0.3-0.1c-3.6,2.2-7.1,4.4-10.5,7c-3.3,2.5-6.4,5.4-9.3,8.4c-5.8,6-11.5,12.3-17.4,18.4l-8.8,9.1
			c-2.8,3.1-5.4,6.4-8.2,9.6c-2.8,3.2-5.6,6.3-8.8,9.2c-1.6,1.4-3.3,2.8-5.2,3.7c-1,0.5-2,0.9-3.2,1c-1.1,0.1-2.4-0.4-3.2-1.2
			l0.1,0.1c-1.3-0.6-2.8-0.7-4.2-0.5c-1.4,0.2-3.1,0.5-4.6,0c-1.5-0.4-2.9-1.2-4.1-2.2c-0.6-0.4-1.2-1-1.8-1.5l-1.6-1.6l0.1,0
			c-2.1-1.5-3.7-3.5-5.3-5.3c-1.6-1.9-3.5-3.4-5.7-4.2c-4.6-1.5-9.6-1.2-14.5-0.7c-4.9,0.4-9.7,1.5-14.6,2.5c-4.8,1-9.7,2-14.5,2.9
			c-9.7,1.8-19.5,3.5-29.3,4.3c-4.9,0.4-9.9,0.7-14.8,0.5c-4.9-0.2-10-0.8-14.6-2.7l0,0c-0.9-0.3-1.7-0.8-2.5-1.3
			c-0.8-0.5-1.5-1-2.3-1.5c-1.5-1-2.9-2.1-4.4-3.2c-2.9-2.2-5.7-4.5-8.5-6.8c-5.6-4.6-11-9.4-16.4-14.3c-5.3-4.9-10.6-9.9-15.7-15
			c-2.5-2.6-5-5.2-7.3-8c-1.2-1.4-2.3-2.8-3.3-4.3c-0.5-0.8-1-1.5-1.4-2.3c-0.4-0.8-0.8-1.7-0.8-2.7l0,0.2c-0.2-0.3-0.6-0.5-1.1-0.5
			c-0.5,0-0.9,0.1-1.4,0.2c-0.9,0.2-1.9,0.5-2.8,0.9c-1.8,0.7-3.6,1.5-5.4,2.4c-3.5,1.7-7,3.6-10.4,5.6c-3.4,2-6.8,4-10.2,6
			c-3.3,2.1-5.9,5.1-8.3,8.2c-4.8,6.3-8.7,13.2-13.1,19.8c-2.2,3.3-4.4,6.6-7,9.6c-1.3,1.5-2.7,2.9-4.2,4.2
			c-1.6,1.2-3.3,2.3-5.3,2.8l0,0c-0.9,0.5-1.9,0.9-2.9,1.2c-1,0.3-2,0.6-3,1l-6,1.9l0,0c-6.7,6.7-14.5,12.2-23,16.5
			c-4.2,2.1-8.6,3.9-13.1,5.3C544.4,153.9,539.8,154.8,535,155L535,155z"/>
	</g>
	<g>
		<path class="st0" d="M956.1,180.7c-15.4-7-22.9-20-36.9-48c0,0-33.7-11.8-44.7-24.7c-33.2-64-58.8-80-66-101.3
			c-1.1-3-3.4-6.2-8.7-6c-3.4,0.1-11.2,16.7-20.7,31.1c-15.5,48.4-61.1,60.9-59.6,61.9c-1.5-1-12.8,28.2-64.3,84.4"/>
		<path class="st1" d="M956,180.7c-4.7-2.1-9-5.1-12.7-8.7c-3.7-3.6-6.7-7.8-9.5-12.1c-2.8-4.3-5.3-8.8-7.7-13.4
			c-2.4-4.6-4.7-9.1-7.1-13.7l0.1,0.1c-4-1.4-8-3-12-4.7c-3.9-1.7-7.8-3.5-11.7-5.4c-3.8-1.9-7.6-4-11.2-6.4
			c-3.6-2.4-7.1-4.9-10-8.2l0,0l0,0c-6.6-12.6-13.7-24.9-21.4-36.8c-3.8-6-7.9-11.8-12.1-17.5c-4.2-5.7-8.5-11.3-13-16.9
			c-4.4-5.6-8.9-11.1-12.9-17c-1-1.4-1.9-3-2.8-4.5c-0.5-0.7-0.9-1.6-1.3-2.4l-1.2-2.4c-0.7-1.6-1.3-3.4-2-4.9
			c-0.7-1.6-1.8-2.9-3.3-3.7c-0.7-0.4-1.6-0.7-2.4-0.8c-0.4-0.1-0.8-0.1-1.3-0.1l-0.6,0l-0.3,0c-0.1,0-0.1,0-0.2,0
			c-0.7,0.3-1.3,0.9-1.9,1.5c-0.6,0.7-1.1,1.4-1.6,2.1c-2,2.9-3.8,6-5.6,9c-3.6,6.1-7.1,12.3-11,18.2l0.1-0.1
			c-2.3,7.1-5.3,13.9-9.2,20.3c-3.9,6.4-8.5,12.2-13.8,17.5c-5.3,5.3-11.1,9.9-17.4,13.9c-3.1,2-6.4,3.9-9.7,5.6
			c-1.7,0.8-3.3,1.7-5,2.4l-2.5,1.2l-1.2,0.6c-0.2,0.1-0.4,0.2-0.6,0.3c-0.1,0.1-0.2,0.1-0.3,0.2c0,0-0.1,0.1-0.1,0c0,0,0,0,0,0
			c0,0,0,0,0-0.1c0-0.1,0-0.2,0-0.2c0-0.1-0.1-0.1-0.1-0.1l-0.5,0.8c0.1,0.1,0.3,0,0.3,0c0,0,0,0-0.1,0.1c-0.1,0.1-0.2,0.2-0.2,0.3
			c-0.2,0.2-0.3,0.4-0.5,0.6c-0.3,0.4-0.6,0.9-0.9,1.4l-1.7,2.8l-3.5,5.7c-2.3,3.8-4.8,7.5-7.2,11.2c-5,7.3-10.2,14.5-15.6,21.5
			c-10.8,14-22.5,27.5-34.5,40.5l-0.1-0.1c5.9-6.6,11.8-13.2,17.5-20c5.7-6.8,11.3-13.7,16.6-20.7c5.4-7,10.6-14.2,15.5-21.6
			c2.5-3.7,4.9-7.4,7.2-11.2l3.4-5.7l1.7-2.9c0.3-0.5,0.6-1,0.9-1.4c0.2-0.2,0.3-0.5,0.5-0.7c0.1-0.1,0.2-0.2,0.3-0.4
			c0.1-0.1,0.1-0.1,0.3-0.2c0.1-0.1,0.4-0.1,0.7,0l-0.5,0.8c-0.1-0.1-0.1-0.1-0.2-0.2c-0.1-0.1-0.1-0.3,0-0.3c0-0.1,0.1-0.1,0.1-0.2
			c0,0,0.1-0.1,0.1-0.1c0.1-0.1,0.1-0.1,0.2-0.2c0.1-0.1,0.2-0.1,0.3-0.2c0.2-0.1,0.4-0.2,0.6-0.3l1.3-0.6l2.5-1.2
			c1.7-0.8,3.3-1.6,5-2.4c3.3-1.7,6.5-3.5,9.6-5.5c6.2-4,12-8.6,17.2-13.8c5.2-5.2,9.8-11,13.6-17.3c3.8-6.3,6.9-13,9.1-20.1l0-0.1
			l0-0.1c3.9-5.9,7.4-12,11.1-18.2c1.8-3.1,3.6-6.1,5.7-9c0.5-0.7,1.1-1.5,1.7-2.1c0.6-0.7,1.2-1.4,2.2-1.8c0.1,0,0.3-0.1,0.4-0.1
			l0.3,0l0.7,0c0.5,0,0.9,0.1,1.4,0.1c0.9,0.2,1.8,0.4,2.6,0.9c1.7,0.9,2.9,2.4,3.6,4.1c0.7,1.7,1.3,3.3,2,5l1.2,2.4
			c0.4,0.8,0.8,1.6,1.2,2.3c0.9,1.5,1.8,3.1,2.8,4.5c3.9,5.9,8.4,11.4,12.8,17c4.4,5.6,8.7,11.2,12.9,16.9
			c4.1,5.8,8.2,11.6,12.1,17.6c7.7,11.9,14.8,24.3,21.3,36.9l0,0c2.8,3.2,6.3,5.8,9.8,8.1c3.6,2.4,7.3,4.4,11.1,6.4
			c3.8,1.9,7.7,3.8,11.6,5.4c3.9,1.7,7.9,3.3,11.9,4.7l0.1,0l0,0.1c2.3,4.6,4.6,9.2,7,13.8c2.4,4.5,4.9,9.1,7.7,13.4
			c2.8,4.3,5.8,8.5,9.5,12.1C947.1,175.5,951.4,178.5,956,180.7L956,180.7z"/>
	</g>
	<linearGradient id="SVGID_6_" gradientUnits="userSpaceOnUse" x1="659.0309" y1="52.817" x2="847.4764" y2="570.5665">
		<stop  offset="0" style="stop-color:#BFBFBF"/>
		<stop  offset="5.276039e-03" style="stop-color:#B9B9B9"/>
		<stop  offset="4.496755e-02" style="stop-color:#918F93"/>
		<stop  offset="8.092022e-02" style="stop-color:#747177"/>
		<stop  offset="0.1116" style="stop-color:#625F66"/>
		<stop  offset="0.1333" style="stop-color:#5C5860"/>
		<stop  offset="0.1713" style="stop-color:#48454C"/>
		<stop  offset="0.2346" style="stop-color:#2E2C30"/>
		<stop  offset="0.3033" style="stop-color:#1A191B"/>
		<stop  offset="0.3792" style="stop-color:#0B0B0C"/>
		<stop  offset="0.4678" style="stop-color:#030303"/>
		<stop  offset="0.6" style="stop-color:#000000"/>
	</linearGradient>
	<path class="st7" d="M800,2.1c-0.5,0.1-0.9,0.3-1.2,0.8c0,0-15.6,27.2-19,31c0,0-3.5,13.8-11,23.8c-5.6,7.5-27.8,37.3-38.6,44.3
		c-1.5-2.3,18.5-23.9,21.3-28.1C737,86.4,732,91.8,731.1,92.7c-1.5,2.8-16.9,31.3-31.1,46.5c8.5-19.8,14.6-28.6,17.9-35
		c3.6-7,8.1-9.3,13.6-15.5c-3,2.1-9.7,5.9-12.6,8.8c-21.2,42.1-55.7,77.9-92.9,116.3c-6.7,6.9-21,21.4-59.5,23.4
		c26.6,10.5,75.9-24.1,90.5-23.4c-41,75.9-18.4,13.3-23,21.4c-6.6,11.8-13.9,36.4-20.7,47.7c15.8-12.8,36.5-51.7,51.2-66.7
		c15.8-16.1,41.8-42.8,53.9-62.1c-11.4,10.8-39.8,42.7-47,49.5c-6.2,5.9-30.1,10.6-36.9,15.5c5.8-8.9,42.8-39,48-48.2
		c-5,6-44.1,37.8-60.3,50.7c21.1-17.5,37.8-40,45.8-48.6c8.1-8.8,34.9-33.4,44-41c0.3,3.9-26,44.6-32.8,56.8
		c6.9-9.9,43.2-58.2,43.9-59.4c8.2-13.9,42.5-60.8,45.7-62.5c0,0-19.9,38.5-21,43.3c-3.2,14-8.3,35.3-8.3,35.3
		c6.1-19.4,24.2-65,42-98c-7.9,12.4-54.1,72.4-60.8,74.2c11.3-16,46.4-59.1,55.3-72.7c2.7-4.2,7-17.2,13.5-26
		C792.7,18.9,800,3,800,2.1C800,1.3,800,1.3,800,2.1z"/>
	<linearGradient id="SVGID_7_" gradientUnits="userSpaceOnUse" x1="883.4056" y1="186.5191" x2="943.1301" y2="97.9739">
		<stop  offset="0.2788" style="stop-color:#000000"/>
		<stop  offset="0.415" style="stop-color:#1D1B1E"/>
		<stop  offset="0.6056" style="stop-color:#3F3C42"/>
		<stop  offset="0.7609" style="stop-color:#545158"/>
		<stop  offset="0.8606" style="stop-color:#5C5860"/>
		<stop  offset="0.8774" style="stop-color:#625F66"/>
		<stop  offset="0.9011" style="stop-color:#747177"/>
		<stop  offset="0.9289" style="stop-color:#918F93"/>
		<stop  offset="0.9596" style="stop-color:#B9B9B9"/>
		<stop  offset="0.9636" style="stop-color:#BFBFBF"/>
	</linearGradient>
	<path class="st9" d="M1046.7,224.6c-16.8-3.6-56.4-16.2-68.6-28.2c0,0-0.1-0.1-0.1-0.2c-30.4-14.1-49.1-32.2-60.5-61.6
		c-7-1.7-36-16.9-39-19c5.6,6.2,19.7,20,31.3,23c3.3,8.5,28.7,32.8,28.7,32.8c-20.6-13.4-55.5-42.6-57-45.4
		c-0.9-0.9-23.2-47.8-37.5-65.3c2.8,4.2,20.1,39.1,21.5,43c-26.1-34.3-33.1-51.5-38.4-59.3c-16.7-24.8,1.7-2.7,1.7-2.7
		c-3.4-3.8-24.6-37.3-24.6-37.3c-0.3-0.4-0.8-0.7-1.2-0.8c0,0.8,7.3,16.7,10.5,21c6.5,8.8,15.8,29.3,18.5,33.5
		c8.8,13.6,41.8,68.9,54.5,95.2c-12.1-2.5-57.1-91.8-65-104.2c12,35.2,27.8,75,40,95c0,0-34.8-42-32.4-39.7
		c2.3,2.2,37,78.1,84.9,101.7c-14.2-18.1-13.2-44-24.4-66.9c9.1,7.6,41.6,35.6,51.4,42.5c13,9.3,58.7,34.8,68.6,35.9
		c-8.1-0.9-37.5-5.8-100.5-54c3,5.3,26.2,31.2,42.2,43.7c9.2,5.9,56.7,27.3,95.2,24.2c9.9-0.8-7-0.6,12.8-3.6
		C1057.9,227.8,1048,224.8,1046.7,224.6C1044.3,224.2,1049.1,225.1,1046.7,224.6z"/>
	<linearGradient id="SVGID_8_" gradientUnits="userSpaceOnUse" x1="951.8632" y1="346.453" x2="1079.9225" y2="213.8438">
		<stop  offset="0.1879" style="stop-color:#000000"/>
		<stop  offset="0.3142" style="stop-color:#040405"/>
		<stop  offset="0.457" style="stop-color:#121112"/>
		<stop  offset="0.6078" style="stop-color:#272629"/>
		<stop  offset="0.7632" style="stop-color:#454248"/>
		<stop  offset="0.8606" style="stop-color:#5C5860"/>
		<stop  offset="1" style="stop-color:#7A7580"/>
	</linearGradient>
	<path class="st10" d="M1004.1,290.7c1.2,1.1,2.3,2.2,3.5,3.2c-1.2-1.9-2.9-3.8-4.7-5.6C1003.3,289.1,1003.7,289.9,1004.1,290.7z"/>
	
		<linearGradient id="SVGID_9_" gradientUnits="userSpaceOnUse" x1="1496.1053" y1="152.2207" x2="1601.3995" y2="43.1854" gradientTransform="matrix(-1 0 0 1 2233.9294 0)">
		<stop  offset="0.1879" style="stop-color:#000000"/>
		<stop  offset="0.2858" style="stop-color:#040405"/>
		<stop  offset="0.3964" style="stop-color:#121112"/>
		<stop  offset="0.5133" style="stop-color:#272629"/>
		<stop  offset="0.6336" style="stop-color:#454248"/>
		<stop  offset="0.7091" style="stop-color:#5C5860"/>
		<stop  offset="0.9636" style="stop-color:#7A7580"/>
	</linearGradient>
	<path class="st11" d="M729,143.9c-3.3-0.2-8.2-28.2-12.1-28.7c-20.5-2.7-37.1-19.1-26.2-11.8c0.9,0.6,12.3,5,7.9,2.8
		c-5.4-2.8-12.3-10.8-14.2-13.9c-2.9-4.6-3.7-5.4-8.4-9.5c-1.5-1.4-5.1-4.2-11.3-13.9c4.2,6.9,3.8,9.3,4.4,9.8
		c0.9,0.9,7.6,6.3,9.5,9.9c1.1,2.2,4,13.3,4,14.1c0,1.4-5.7-5.7-9.9-11.1c-2.8-3.5-4.9-6.3-4.5-5.5c4.9,8.9,19.1,33.6,31.1,40.3
		c-19.8-23.9-14.8-27.7-15.1-29c3.1,8.6,12.1,14.3,19.6,17.8c6.6,3.1,6.7,2.4,12,7.3c6.8,6.4,8.9,28.3,15.7,34.4L729,143.9z"/>
	
		<linearGradient id="SVGID_10_" gradientUnits="userSpaceOnUse" x1="2092.7683" y1="-23.8164" x2="2067.6697" y2="70.4491" gradientTransform="matrix(-0.9845 0.1752 0.1752 0.9845 2978.3962 -264.7033)">
		<stop  offset="0" style="stop-color:#7A7580"/>
		<stop  offset="3.580363e-03" style="stop-color:#78737E"/>
		<stop  offset="6.348640e-02" style="stop-color:#58545C"/>
		<stop  offset="0.1289" style="stop-color:#3D3A40"/>
		<stop  offset="0.2025" style="stop-color:#262528"/>
		<stop  offset="0.2864" style="stop-color:#151416"/>
		<stop  offset="0.3864" style="stop-color:#090909"/>
		<stop  offset="0.5188" style="stop-color:#020202"/>
		<stop  offset="0.8121" style="stop-color:#000000"/>
	</linearGradient>
	<path class="st12" d="M944,83.3c6.6,5.6,21.8,24,35.7,35.8c-2.2-3.2-7.7-9.2-12.3-14c-2.1-2.2-4-4.1-5.2-5.5
		c-9.4-9.8-26.1-30.2-29.9-29c-5.4,2.2-30.3,35-40.3,40.7c2.7-4.2,30-31.2,30.8-33.7c-5.2,6.1-19.8,19.3-24.3,24.3
		c-3,3.3-6.4,6.3-13.8,14.3c0.3,0.2,1.5,0.8,1.8,1c0,0,4,2.4,5.2,3.2c5.1-4.9,11.3-15.9,13.4-18c20.5-20.8,22.8-24.7,25.5-26.9
		c1.4-1.1-3,9.5-14.3,29.5c7.9-12,15.6-28,16.8-27.7c1.6,0.3,0.4,9.2-1.2,19.7l-4.4,0.4c-1.9,11.5-9.9,22.3-13.5,26.1
		c6.3-5.9,12.7-16.6,14.3-25.3l4.5-0.2c1.5-8.6,2.8-17.4,2.9-20.4c1.3,1.2,10.7,26.1,2.7,1c-0.6-1.8,32.9,41.6,34.7,43
		C974.8,123.2,941.7,81.4,944,83.3z"/>
	<rect x="588.5" y="-61.3" class="st8" width="450" height="450"/>
</g>
<g>
	<g>
		<path class="st0" d="M0,155.3c16.6-1,35.8-10.3,49.9-24.4c7.6-2.5,10-3,11.8-4.1c13.4-3.2,25.1-37.5,38.5-44.9
			c10.7-6.4,29.3-17.4,31.1-14.1c-1.1,8.1,55.2,57,62.3,59.1c19.6,8.5,70.8-5.4,84.5-7.2c23.8-3.1,21.2,4.3,28.9,9.9
			c8.9,9.1,10.3,3.2,16.2,5.5c6.2,6.4,22.6-16.9,28.9-23.3c27.1-27.6,27.4-31.4,45-41.9c11.6,1.1,39.4,48,86.7,48
			c14.8,0,24,21.6,51.1,37.1"/>
		<path class="st1" d="M0,155.3c4.7-0.3,9.4-1.2,13.9-2.6c4.5-1.4,8.9-3.2,13.1-5.3c8.4-4.3,16.2-9.9,22.9-16.5l0,0l0,0l6-1.9
			c1-0.3,2-0.6,3-1c1-0.3,2-0.7,2.8-1.2l0,0l0,0c1.9-0.5,3.6-1.5,5.1-2.7c1.5-1.2,2.9-2.6,4.2-4.1c2.6-3,4.8-6.3,7-9.6
			c4.3-6.6,8.3-13.5,13.1-19.8c2.4-3.1,5-6.2,8.4-8.4c3.4-2.1,6.8-4.1,10.2-6c3.4-2,6.9-3.9,10.5-5.6c1.8-0.9,3.6-1.7,5.4-2.4
			c0.9-0.4,1.9-0.7,2.9-0.9c0.5-0.1,1-0.2,1.5-0.2c0.5,0,1.2,0.1,1.5,0.7l0,0.1l0,0.1c-0.1,0.8,0.3,1.6,0.7,2.4
			c0.4,0.8,0.9,1.5,1.4,2.3c1,1.5,2.2,2.9,3.3,4.3c2.3,2.8,4.8,5.4,7.3,8c5.1,5.2,10.3,10.1,15.7,15c5.4,4.9,10.8,9.6,16.4,14.2
			c2.8,2.3,5.6,4.6,8.5,6.8c1.4,1.1,2.9,2.2,4.4,3.2c0.7,0.5,1.5,1,2.2,1.5c0.8,0.5,1.5,0.9,2.3,1.2l0,0l0,0
			c4.5,1.9,9.5,2.4,14.4,2.6c4.9,0.2,9.8-0.1,14.7-0.5c9.8-0.9,19.6-2.5,29.2-4.4c4.8-0.9,9.7-1.9,14.5-2.9c4.8-1,9.7-2,14.6-2.5
			c2.5-0.3,4.9-0.4,7.4-0.4c2.5,0.1,5,0.3,7.4,1.1c2.4,0.8,4.5,2.5,6.1,4.4c1.6,1.9,3.2,3.8,5.1,5.2l0,0l0,0l1.6,1.5
			c0.6,0.5,1.1,1,1.7,1.4c1.2,0.9,2.4,1.6,3.8,2c1.4,0.4,2.8,0.1,4.3-0.1c1.5-0.2,3.2-0.1,4.6,0.5l0.1,0l0.1,0.1
			c0.7,0.7,1.6,1,2.5,1c1,0,1.9-0.4,2.8-0.9c1.8-0.9,3.4-2.3,5-3.6c3.1-2.8,5.9-5.9,8.7-9.1c2.8-3.2,5.4-6.5,8.2-9.6l8.8-9.1
			c5.8-6.1,11.5-12.3,17.3-18.4c2.9-3,6-5.9,9.4-8.5c3.4-2.6,6.9-4.9,10.6-7l0.1-0.1l0.2,0c1.9,0.2,3.5,1.2,4.9,2.2
			c1.5,1,2.8,2.1,4.1,3.2c2.6,2.3,5.1,4.7,7.6,7c5,4.7,10.1,9.4,15.4,13.7c2.7,2.2,5.4,4.3,8.3,6.2c1.4,1,2.9,1.9,4.3,2.8
			c1.5,0.9,2.9,1.8,4.4,2.6c3,1.7,6.1,3.2,9.3,4.5c3.2,1.3,6.4,2.5,9.8,3.3c3.3,0.9,6.7,1.5,10.1,2l2.6,0.2c0.9,0.1,1.7,0.2,2.6,0.2
			c1.7,0.1,3.4,0.1,5.2,0.2c3.5,0.4,6.7,2.1,9.5,4.2c2.8,2,5.4,4.4,7.9,6.8c5,4.8,9.8,9.7,15,14.2c5.2,4.5,10.8,8.5,16.8,12l0,0.1
			c-6-3.4-11.7-7.4-17-11.9c-5.3-4.4-10.2-9.3-15.2-14.1c-2.5-2.4-5-4.7-7.8-6.7c-2.8-2-5.9-3.6-9.3-4c-1.7-0.2-3.4-0.2-5.1-0.2
			c-0.9,0-1.7-0.1-2.6-0.2l-2.6-0.2c-3.4-0.5-6.9-1-10.2-2c-3.4-0.8-6.6-2-9.8-3.3c-3.2-1.4-6.3-2.8-9.3-4.5c-1.5-0.8-3-1.7-4.5-2.6
			c-1.5-0.9-2.9-1.8-4.3-2.8c-2.9-1.9-5.6-4-8.3-6.2c-5.4-4.3-10.5-9-15.6-13.7c-2.5-2.4-5-4.7-7.6-7c-1.3-1.1-2.6-2.2-4-3.1
			c-1.4-0.9-2.9-1.8-4.5-2l0.3-0.1c-3.6,2.2-7.1,4.4-10.5,7c-3.3,2.5-6.4,5.4-9.3,8.4c-5.8,6-11.5,12.3-17.4,18.4l-8.8,9.1
			c-2.8,3.1-5.4,6.4-8.2,9.6c-2.8,3.2-5.6,6.3-8.8,9.2c-1.6,1.4-3.3,2.8-5.2,3.7c-1,0.5-2,0.9-3.2,1c-1.1,0.1-2.4-0.4-3.2-1.2
			l0.1,0.1c-1.3-0.6-2.8-0.7-4.2-0.5c-1.4,0.2-3.1,0.5-4.6,0c-1.5-0.4-2.9-1.2-4.1-2.2c-0.6-0.4-1.2-1-1.8-1.5l-1.6-1.6l0.1,0
			c-2.1-1.5-3.7-3.5-5.3-5.3c-1.6-1.9-3.5-3.4-5.7-4.2c-4.6-1.5-9.6-1.2-14.5-0.7c-4.9,0.4-9.7,1.5-14.6,2.5c-4.8,1-9.7,2-14.5,2.9
			c-9.7,1.8-19.5,3.5-29.3,4.3c-4.9,0.4-9.9,0.7-14.8,0.5c-4.9-0.2-10-0.8-14.6-2.7l0,0c-0.9-0.3-1.7-0.8-2.5-1.3
			c-0.8-0.5-1.5-1-2.3-1.5c-1.5-1-2.9-2.1-4.4-3.2c-2.9-2.2-5.7-4.5-8.5-6.8c-5.6-4.6-11-9.4-16.4-14.3c-5.3-4.9-10.6-9.9-15.7-15
			c-2.5-2.6-5-5.2-7.3-8c-1.2-1.4-2.3-2.8-3.3-4.3c-0.5-0.8-1-1.5-1.4-2.3c-0.4-0.8-0.8-1.7-0.8-2.7l0,0.2c-0.2-0.3-0.6-0.5-1.1-0.5
			c-0.5,0-0.9,0.1-1.4,0.2c-0.9,0.2-1.9,0.5-2.8,0.9c-1.8,0.7-3.6,1.5-5.4,2.4c-3.5,1.7-7,3.6-10.4,5.6c-3.4,2-6.8,4-10.2,6
			c-3.3,2.1-5.9,5.1-8.3,8.2c-4.8,6.3-8.7,13.2-13.1,19.8c-2.2,3.3-4.4,6.6-7,9.6c-1.3,1.5-2.7,2.9-4.2,4.2
			c-1.6,1.2-3.3,2.3-5.3,2.8l0,0c-0.9,0.5-1.9,0.9-2.9,1.2c-1,0.3-2,0.6-3,1l-6,1.9l0,0c-6.7,6.7-14.5,12.2-23,16.5
			c-4.2,2.1-8.6,3.9-13.1,5.3C9.4,154.1,4.7,155.1,0,155.3L0,155.3z"/>
	</g>
	<g>
		<path class="st0" d="M421,180.9c-15.4-7-22.9-20-36.9-48c0,0-33.7-11.8-44.7-24.7c-33.2-64-58.8-80-66-101.3c-1.1-3-3.4-6.2-8.7-6
			c-3.4,0.1-11.2,16.7-20.7,31.1c-15.5,48.4-61.1,60.9-59.6,61.9c-1.5-1-12.8,28.2-64.3,84.4"/>
		<path class="st1" d="M421,181c-4.7-2.1-9-5.1-12.7-8.7c-3.7-3.6-6.7-7.8-9.5-12.1c-2.8-4.3-5.3-8.8-7.7-13.4
			c-2.4-4.6-4.7-9.1-7.1-13.7l0.1,0.1c-4-1.4-8-3-12-4.7c-3.9-1.7-7.8-3.5-11.7-5.4c-3.8-1.9-7.6-4-11.2-6.4
			c-3.6-2.4-7.1-4.9-10-8.2l0,0l0,0c-6.6-12.6-13.7-24.9-21.4-36.8c-3.8-6-7.9-11.8-12.1-17.5c-4.2-5.7-8.5-11.3-13-16.9
			c-4.4-5.6-8.9-11.1-12.9-17c-1-1.4-1.9-3-2.8-4.5c-0.5-0.7-0.9-1.6-1.3-2.4l-1.2-2.4c-0.7-1.6-1.3-3.4-2-4.9
			c-0.7-1.6-1.8-2.9-3.3-3.7c-0.7-0.4-1.6-0.7-2.4-0.8c-0.4-0.1-0.8-0.1-1.3-0.1l-0.6,0l-0.3,0c-0.1,0-0.1,0-0.2,0
			c-0.7,0.3-1.3,0.9-1.9,1.5c-0.6,0.7-1.1,1.4-1.6,2.1c-2,2.9-3.8,6-5.6,9c-3.6,6.1-7.1,12.3-11,18.2l0.1-0.1
			c-2.3,7.1-5.3,13.9-9.2,20.3c-3.9,6.4-8.5,12.2-13.8,17.5c-5.3,5.3-11.1,9.9-17.4,13.9c-3.1,2-6.4,3.9-9.7,5.6
			c-1.7,0.8-3.3,1.7-5,2.4L187,93l-1.2,0.6c-0.2,0.1-0.4,0.2-0.6,0.3c-0.1,0.1-0.2,0.1-0.3,0.2c0,0-0.1,0.1-0.1,0c0,0,0,0,0,0
			c0,0,0,0,0-0.1c0-0.1,0-0.2,0-0.2c0-0.1-0.1-0.1-0.1-0.1l-0.5,0.8c0.1,0.1,0.3,0,0.3,0c0,0,0,0-0.1,0.1c-0.1,0.1-0.2,0.2-0.2,0.3
			c-0.2,0.2-0.3,0.4-0.5,0.6c-0.3,0.4-0.6,0.9-0.9,1.4l-1.7,2.8l-3.5,5.7c-2.3,3.8-4.8,7.5-7.2,11.2c-5,7.3-10.2,14.5-15.6,21.5
			c-10.8,14-22.5,27.5-34.5,40.5l-0.1-0.1c5.9-6.6,11.8-13.2,17.5-20c5.7-6.8,11.3-13.7,16.6-20.7c5.4-7,10.6-14.2,15.5-21.6
			c2.5-3.7,4.9-7.4,7.2-11.2l3.4-5.7l1.7-2.9c0.3-0.5,0.6-1,0.9-1.4c0.2-0.2,0.3-0.5,0.5-0.7c0.1-0.1,0.2-0.2,0.3-0.4
			c0.1-0.1,0.1-0.1,0.3-0.2c0.1-0.1,0.4-0.1,0.7,0l-0.5,0.8c-0.1-0.1-0.1-0.1-0.2-0.2c-0.1-0.1-0.1-0.3,0-0.3c0-0.1,0.1-0.1,0.1-0.2
			c0,0,0.1-0.1,0.1-0.1c0.1-0.1,0.1-0.1,0.2-0.2c0.1-0.1,0.2-0.1,0.3-0.2c0.2-0.1,0.4-0.2,0.6-0.3l1.3-0.6l2.5-1.2
			c1.7-0.8,3.3-1.6,5-2.4c3.3-1.7,6.5-3.5,9.6-5.5c6.2-4,12-8.6,17.2-13.8c5.2-5.2,9.8-11,13.6-17.3c3.8-6.3,6.9-13,9.1-20.1l0-0.1
			l0-0.1c3.9-5.9,7.4-12,11.1-18.2c1.8-3.1,3.6-6.1,5.7-9c0.5-0.7,1.1-1.5,1.7-2.1c0.6-0.7,1.2-1.4,2.2-1.8c0.1,0,0.3-0.1,0.4-0.1
			l0.3,0l0.7,0c0.5,0,0.9,0.1,1.4,0.1c0.9,0.2,1.8,0.4,2.6,0.9c1.7,0.9,2.9,2.4,3.6,4.1c0.7,1.7,1.3,3.3,2,5l1.2,2.4
			c0.4,0.8,0.8,1.6,1.2,2.3c0.9,1.5,1.8,3.1,2.8,4.5c3.9,5.9,8.4,11.4,12.8,17c4.4,5.6,8.7,11.2,12.9,16.9
			c4.1,5.8,8.2,11.6,12.1,17.6c7.7,11.9,14.8,24.3,21.3,36.9l0,0c2.8,3.2,6.3,5.8,9.8,8.1c3.6,2.4,7.3,4.4,11.1,6.4
			c3.8,1.9,7.7,3.8,11.6,5.4c3.9,1.7,7.9,3.3,11.9,4.7l0.1,0l0,0.1c2.3,4.6,4.6,9.2,7,13.8c2.4,4.5,4.9,9.1,7.7,13.4
			c2.8,4.3,5.8,8.5,9.5,12.1C412.1,175.8,416.4,178.7,421,181L421,181z"/>
	</g>
	<linearGradient id="SVGID_11_" gradientUnits="userSpaceOnUse" x1="124.0019" y1="53.0636" x2="312.4474" y2="570.8132">
		<stop  offset="0" style="stop-color:#BFBFBF"/>
		<stop  offset="5.276039e-03" style="stop-color:#B9B9B9"/>
		<stop  offset="4.496755e-02" style="stop-color:#918F93"/>
		<stop  offset="8.092022e-02" style="stop-color:#747177"/>
		<stop  offset="0.1116" style="stop-color:#625F66"/>
		<stop  offset="0.1333" style="stop-color:#5C5860"/>
		<stop  offset="0.1713" style="stop-color:#48454C"/>
		<stop  offset="0.2346" style="stop-color:#2E2C30"/>
		<stop  offset="0.3033" style="stop-color:#1A191B"/>
		<stop  offset="0.3792" style="stop-color:#0B0B0C"/>
		<stop  offset="0.4678" style="stop-color:#030303"/>
		<stop  offset="0.6" style="stop-color:#000000"/>
	</linearGradient>
	<path class="st13" d="M265,2.4c-0.5,0.1-0.9,0.3-1.2,0.8c0,0-15.6,27.2-19,31c0,0-3.5,13.8-11,23.8c-5.6,7.5-27.8,37.3-38.6,44.3
		c-1.5-2.3,18.5-23.9,21.3-28.1C202,86.7,197,92,196.1,92.9c-1.5,2.8-16.9,31.3-31.1,46.5c8.5-19.8,14.6-28.6,17.9-35
		c3.6-7,8.1-9.3,13.6-15.5c-3,2.1-9.7,5.9-12.6,8.8C162.7,139.8,128.2,175.6,91,214c-6.7,6.9-21,21.4-59.5,23.4
		c26.6,10.5,75.9-24.1,90.5-23.4c-41,75.9-18.4,13.3-23,21.4c-6.6,11.8-13.9,36.4-20.7,47.7c15.8-12.8,36.5-51.7,51.2-66.7
		c15.8-16.1,41.8-42.8,53.9-62.1c-11.4,10.8-39.8,42.7-47,49.5c-6.2,5.9-30.1,10.6-36.9,15.5c5.8-8.9,42.8-39,48-48.2
		c-5,6-44.1,37.8-60.3,50.7c21.1-17.5,37.8-40,45.8-48.6c8.1-8.8,34.9-33.4,44-41c0.3,3.9-26,44.6-32.8,56.8
		c6.9-9.9,43.2-58.2,43.9-59.4c8.2-13.9,42.5-60.8,45.7-62.5c0,0-19.9,38.5-21,43.3c-3.2,14-8.3,35.3-8.3,35.3
		c6.1-19.4,24.2-65,42-98c-7.9,12.4-54.1,72.4-60.8,74.2c11.3-16,46.4-59.1,55.3-72.7c2.7-4.2,7-17.2,13.5-26
		C257.7,19.1,265,3.2,265,2.4C264.9,1.6,264.9,1.6,265,2.4z"/>
	<linearGradient id="SVGID_12_" gradientUnits="userSpaceOnUse" x1="348.3766" y1="186.7657" x2="408.101" y2="98.2206">
		<stop  offset="0.2788" style="stop-color:#000000"/>
		<stop  offset="0.415" style="stop-color:#1D1B1E"/>
		<stop  offset="0.6056" style="stop-color:#3F3C42"/>
		<stop  offset="0.7609" style="stop-color:#545158"/>
		<stop  offset="0.8606" style="stop-color:#5C5860"/>
		<stop  offset="0.8774" style="stop-color:#625F66"/>
		<stop  offset="0.9011" style="stop-color:#747177"/>
		<stop  offset="0.9289" style="stop-color:#918F93"/>
		<stop  offset="0.9596" style="stop-color:#B9B9B9"/>
		<stop  offset="0.9636" style="stop-color:#BFBFBF"/>
	</linearGradient>
	<path class="st14" d="M511.7,224.8c-16.8-3.6-56.4-16.2-68.6-28.2c0,0-0.1-0.1-0.1-0.2c-30.4-14.1-49.1-32.2-60.5-61.6
		c-7-1.7-36-16.9-39-19c5.6,6.2,19.7,20,31.3,23c3.3,8.5,28.7,32.8,28.7,32.8c-20.6-13.4-55.5-42.6-57-45.4
		c-0.9-0.9-23.2-47.8-37.5-65.3c2.8,4.2,20.1,39.1,21.5,43c-26.1-34.3-33.1-51.5-38.4-59.3c-16.7-24.8,1.7-2.7,1.7-2.7
		c-3.4-3.8-24.6-37.3-24.6-37.3c-0.3-0.4-0.8-0.7-1.2-0.8c0,0.8,7.3,16.7,10.5,21c6.5,8.8,15.8,29.3,18.5,33.5
		c8.8,13.6,41.8,68.9,54.5,95.2c-12.1-2.5-57.1-91.8-65-104.2c12,35.2,27.8,75,40,95c0,0-34.8-42-32.4-39.7
		c2.3,2.2,37,78.1,84.9,101.7c-14.2-18.1-13.2-44-24.4-66.9c9.1,7.6,41.6,35.6,51.4,42.5c13,9.3,58.7,34.8,68.6,35.9
		c-8.1-0.9-37.5-5.8-100.5-54c3,5.3,26.2,31.2,42.2,43.7c9.2,5.9,56.7,27.3,95.2,24.2c9.9-0.8-7-0.6,12.8-3.6
		C522.9,228.1,513,225,511.7,224.8C509.3,224.5,514,225.4,511.7,224.8z"/>
	<linearGradient id="SVGID_13_" gradientUnits="userSpaceOnUse" x1="416.8341" y1="346.6997" x2="544.8934" y2="214.0905">
		<stop  offset="0.1879" style="stop-color:#000000"/>
		<stop  offset="0.3142" style="stop-color:#040405"/>
		<stop  offset="0.457" style="stop-color:#121112"/>
		<stop  offset="0.6078" style="stop-color:#272629"/>
		<stop  offset="0.7632" style="stop-color:#454248"/>
		<stop  offset="0.8606" style="stop-color:#5C5860"/>
		<stop  offset="1" style="stop-color:#7A7580"/>
	</linearGradient>
	<path class="st15" d="M469.1,290.9c1.2,1.1,2.3,2.2,3.5,3.2c-1.2-1.9-2.9-3.8-4.7-5.6C468.3,289.4,468.7,290.1,469.1,290.9z"/>
	
		<linearGradient id="SVGID_14_" gradientUnits="userSpaceOnUse" x1="2031.1344" y1="152.4673" x2="2136.4285" y2="43.4321" gradientTransform="matrix(-1 0 0 1 2233.9294 0)">
		<stop  offset="0.1879" style="stop-color:#000000"/>
		<stop  offset="0.2858" style="stop-color:#040405"/>
		<stop  offset="0.3964" style="stop-color:#121112"/>
		<stop  offset="0.5133" style="stop-color:#272629"/>
		<stop  offset="0.6336" style="stop-color:#454248"/>
		<stop  offset="0.7091" style="stop-color:#5C5860"/>
		<stop  offset="0.9636" style="stop-color:#7A7580"/>
	</linearGradient>
	<path class="st16" d="M194,144.2c-3.3-0.2-8.2-28.2-12.1-28.7c-20.5-2.7-37.1-19.1-26.2-11.8c0.9,0.6,12.3,5,7.9,2.8
		c-5.4-2.8-12.3-10.8-14.2-13.9c-2.9-4.6-3.7-5.4-8.4-9.5c-1.5-1.4-5.1-4.2-11.3-13.9c4.2,6.9,3.8,9.3,4.4,9.8
		c0.9,0.9,7.6,6.3,9.5,9.9c1.1,2.2,4,13.3,4,14.1c0,1.4-5.7-5.7-9.9-11.1c-2.8-3.5-4.9-6.3-4.5-5.5c4.9,8.9,19.1,33.6,31.1,40.3
		c-19.8-23.9-14.8-27.7-15.1-29c3.1,8.6,12.1,14.3,19.6,17.8c6.6,3.1,6.7,2.4,12,7.3c6.8,6.4,8.9,28.3,15.7,34.4L194,144.2z"/>
	
		<linearGradient id="SVGID_15_" gradientUnits="userSpaceOnUse" x1="2619.5818" y1="-117.3167" x2="2594.4829" y2="-23.0512" gradientTransform="matrix(-0.9845 0.1752 0.1752 0.9845 2978.3962 -264.7033)">
		<stop  offset="0" style="stop-color:#7A7580"/>
		<stop  offset="3.580363e-03" style="stop-color:#78737E"/>
		<stop  offset="6.348640e-02" style="stop-color:#58545C"/>
		<stop  offset="0.1289" style="stop-color:#3D3A40"/>
		<stop  offset="0.2025" style="stop-color:#262528"/>
		<stop  offset="0.2864" style="stop-color:#151416"/>
		<stop  offset="0.3864" style="stop-color:#090909"/>
		<stop  offset="0.5188" style="stop-color:#020202"/>
		<stop  offset="0.8121" style="stop-color:#000000"/>
	</linearGradient>
	<path class="st17" d="M409,83.6c6.6,5.6,21.8,24,35.7,35.8c-2.2-3.2-7.7-9.2-12.3-14c-2.1-2.2-4-4.1-5.2-5.5
		c-9.4-9.8-26.1-30.2-29.9-29c-5.4,2.2-30.3,35-40.3,40.7c2.7-4.2,30-31.2,30.8-33.7c-5.2,6.1-19.8,19.3-24.3,24.3
		c-3,3.3-6.4,6.3-13.8,14.3c0.3,0.2,1.5,0.8,1.8,1c0,0,4,2.4,5.2,3.2c5.1-4.9,11.3-15.9,13.4-18c20.5-20.8,22.8-24.7,25.5-26.9
		c1.4-1.1-3,9.5-14.3,29.5c7.9-12,15.6-28,16.8-27.7c1.6,0.3,0.4,9.2-1.2,19.7l-4.4,0.4c-1.9,11.5-9.9,22.3-13.5,26.1
		c6.3-5.9,12.7-16.6,14.3-25.3l4.5-0.2c1.5-8.6,2.8-17.4,2.9-20.4c1.3,1.2,10.7,26.1,2.7,1c-0.6-1.8,32.9,41.6,34.7,43
		C439.8,123.5,406.7,81.6,409,83.6z"/>
	<rect x="53.5" y="-61.1" class="st8" width="450" height="450"/>
</g>
<polygon class="st0" points="0,155.3 1604.8,155.1 1604.8,292.9 0,292.9 "/>
</svg>
