<?xml version="1.0" encoding="UTF-8"?>
<svg xmlns="http://www.w3.org/2000/svg" xmlns:xlink="http://www.w3.org/1999/xlink" xmlns:svgjs="http://svgjs.com/svgjs" version="1.1" width="512" height="512" x="0" y="0" viewBox="0 0 512 512" style="enable-background:new 0 0 512 512" xml:space="preserve" class="">
  <g>
    <g xmlns="http://www.w3.org/2000/svg">
      <g>
        <g>
          <path d="m54.832 308.648h63.843c5.522 0 10-4.478 10-10v-64.306c0-5.522-4.478-10-10-10h-35.676c-3.972 0-7.566 2.35-9.16 5.988l-28.167 64.306c-1.354 3.092-1.057 6.658.79 9.483s4.994 4.529 8.37 4.529zm34.704-64.305h19.139v44.306h-38.545z" fill="#ff4a3c" data-original="#000000" style="" class=""/>
          <path d="m502 60.084h-123.972c-5.522 0-10 4.478-10 10s4.478 10 10 10h113.972v93.166h-107.115v-36.724c0-3.729-2.075-7.149-5.384-8.871-3.307-1.721-7.299-1.46-10.354.682l-117.048 82.007c-2.671 1.871-4.262 4.928-4.262 8.189s1.591 6.318 4.262 8.189l117.048 82.007c1.714 1.201 3.722 1.811 5.739 1.811 1.578 0 3.163-.373 4.615-1.129 3.309-1.722 5.384-5.142 5.384-8.871v-36.724h107.115v126.677h-53.922c.068-1.22.103-2.449.103-3.686 0-35.901-29.182-65.109-65.05-65.109s-65.05 29.208-65.05 65.109c0 1.237.035 2.466.103 3.686h-134.677v-310.409h113.972c5.522 0 10-4.478 10-10s-4.478-10-10-10h-123.972c-5.522 0-10 4.478-10 10v109.379h-99.803c-3.972 0-7.566 2.351-9.16 5.988l-43.704 99.779c-.554 1.265-.84 2.631-.84 4.012v111.251c0 5.522 4.478 10 10 10h29.555c4.336 23.537 24.993 41.423 49.745 41.423 24.751 0 45.408-17.886 49.744-41.423h173.492c9.485 24.224 33.071 41.423 60.595 41.423s51.11-17.199 60.595-41.423h68.274c5.522 0 10-4.478 10-10v-330.409c0-5.522-4.478-10-10-10zm-482 231.252 40.241-91.873h93.266v191.03h-14.782c-4.956-22.746-25.234-39.829-49.424-39.829s-44.469 17.083-49.425 39.829h-19.876zm69.301 140.58c-16.863 0-30.583-13.738-30.583-30.626s13.72-30.626 30.583-30.626 30.582 13.738 30.582 30.626-13.719 30.626-30.582 30.626zm283.831 0c-24.841 0-45.05-20.235-45.05-45.108s20.209-45.109 45.05-45.109 45.05 20.236 45.05 45.109-20.209 45.108-45.05 45.108zm1.753-188.1c-5.522 0-10 4.478-10 10v27.507l-89.62-62.79 89.62-62.79v27.507c0 5.522 4.478 10 10 10h117.115v50.566z" fill="#ff4a3c" data-original="#000000" style="" class=""/>
          <path d="m323.7 73.91c1.632 3.915 5.659 6.419 9.892 6.149 4.229-.269 7.895-3.302 8.998-7.384 1.085-4.017-.526-8.459-3.964-10.814-3.301-2.261-7.708-2.335-11.085-.189-4.029 2.561-5.674 7.835-3.841 12.238z" fill="#ff4a3c" data-original="#000000" style="" class=""/>
        </g>
      </g>
    </g>
  </g>
</svg>
