<?xml version="1.0" encoding="utf-8"?>
<!-- Generator: Adobe Illustrator 24.0.0, SVG Export Plug-In . SVG Version: 6.00 Build 0)  -->
<svg version="1.1" id="Layer_1" xmlns:svgjs="http://svgjs.com/svgjs"
	 xmlns="http://www.w3.org/2000/svg" xmlns:xlink="http://www.w3.org/1999/xlink" x="0px" y="0px" viewBox="0 0 512 512"
	 style="enable-background:new 0 0 512 512;" xml:space="preserve">
<style type="text/css">
	.st0{fill:#0D2331;}
</style>
<g>
	<g id="Buy">
		<path class="st0" d="M488,16h-48c-4.4,0-8,3.6-8,8v3.1l-17-8.5c-3.3-1.7-7-2.5-10.7-2.5H287c-5.4,0-10.7,1.9-15,5.3L238.6,48H104
			c-4.4,0-8,3.6-8,8v128c0,4.4,3.6,8,8,8h240c4.4,0,8-3.6,8-8v-60.4c20.8,8.2,44.3,6.3,63.5-5.2l10.7-6.4h5.8v8c0,4.4,3.6,8,8,8h48
			c4.4,0,8-3.6,8-8V24C496,19.6,492.4,16,488,16z M112,176V64h191.4l-9,9c-9.2,9.5-8.9,24.7,0.6,33.9c9.3,9,24,9,33.3,0l7.6-7.6V176
			H112z M424,96c-1.4,0-2.8,0.4-4.1,1.1l-12.6,7.5c-15.1,9-33.6,10.5-49.9,3.9l-5.4-2.2v-23l10.2-10.2l4.1,1.4
			c11.5,3.8,23.9,3.8,35.4,0l8.8-2.9c4.2-1.4,6.5-5.9,5.1-10.1s-5.9-6.5-10.1-5.1l-8.8,2.9c-8.2,2.7-17.1,2.7-25.3,0l-8.8-2.9
			c-2.9-1-6-0.2-8.2,1.9l-16,16l0,0l-21.3,21.3c-3.1,3.1-8.2,3.1-11.3,0c-3.1-3.1-3.1-8.2,0-11.3l31.1-31.1c3.1-3.2,3-8.2-0.2-11.3
			c-3.1-3-8-3-11.1,0l-6.1,6.1h-55.3L282,33.8c1.4-1.1,3.2-1.8,5-1.8h117.2c1.2,0,2.5,0.3,3.6,0.8L432,44.9v51L424,96z M480,112h-32
			V32h32V112z"/>
		<path class="st0" d="M224,96c4.4,0,8,3.6,8,8h16c0-10.1-6.4-19.1-16-22.5V72h-16v9.5c-12.5,4.4-19,18.1-14.6,30.5
			c3.4,9.6,12.5,16,22.6,16c4.4,0,8,3.6,8,8s-3.6,8-8,8s-8-3.6-8-8h-16c0,10.1,6.4,19.1,16,22.5v9.5h16v-9.5
			c12.5-4.4,19-18.1,14.6-30.5c-3.4-9.6-12.5-16-22.6-16c-4.4,0-8-3.6-8-8S219.6,96,224,96z"/>
		<path class="st0" d="M176,112h-16c-4.4,0-8,3.6-8,8s3.6,8,8,8h16c4.4,0,8-3.6,8-8S180.4,112,176,112z"/>
		<path class="st0" d="M288,112h-16c-4.4,0-8,3.6-8,8s3.6,8,8,8h16c4.4,0,8-3.6,8-8S292.4,112,288,112z"/>
		<path class="st0" d="M347.7,398.2c-6.6-11.5-21.2-15.5-32.6-8.9c-0.1,0-0.1,0.1-0.2,0.1L263.4,419c-2.4-11.1-12.1-19-23.4-19
			h-61.6l-1.6-1.1c-29.2-19.6-67.3-19.8-96.8-0.5V392c0-4.4-3.6-8-8-8H24c-4.4,0-8,3.6-8,8v96c0,4.4,3.6,8,8,8h48c4.4,0,8-3.6,8-8
			v-1.1l7.5,5c4,2.7,8.6,4.1,13.4,4.1h118.8c4.2,0,8.4-1.1,12-3.2L338.9,431c7.4-4.3,12-12.3,12-20.8
			C350.9,405.9,349.8,401.8,347.7,398.2z M64,480H32v-80h32V480z M330.9,417.1L223.6,479c-1.2,0.7-2.5,1-3.9,1H100.9
			c-1.6,0-3.1-0.5-4.5-1.4L80,467.7V416c1.6,0,3.1-0.5,4.4-1.3l3.6-2.4c24.2-16.2,55.7-16.2,79.9,0l3.6,2.4c1.3,0.9,2.9,1.3,4.4,1.3
			h64c4.4,0,8,3.6,8,8s-3.6,8-8,8h-48c-4.4,0-8,3.6-8,8s3.6,8,8,8h48c5.9,0,11.5-2.2,15.8-6.1l67.1-38.7c1.8-1.1,4-1.3,6-0.8
			c2.1,0.5,3.8,1.9,4.9,3.8c0.7,1.2,1.1,2.5,1.1,3.9C334.9,413,333.4,415.6,330.9,417.1z"/>
		<path class="st0" d="M328,224H120c-4.4,0-8,3.6-8,8v144c0,4.4,3.6,8,8,8h208c4.4,0,8-3.6,8-8V232C336,227.6,332.4,224,328,224z
			 M232,240v32h-16v-32H232z M320,368H128V240h72v40c0,4.4,3.6,8,8,8h32c4.4,0,8-3.6,8-8v-40h72V368z"/>
		<path class="st0" d="M176,320h-32c-4.4,0-8,3.6-8,8s3.6,8,8,8h32c4.4,0,8-3.6,8-8S180.4,320,176,320z"/>
		<path class="st0" d="M208,320h-8c-4.4,0-8,3.6-8,8s3.6,8,8,8h8c4.4,0,8-3.6,8-8S212.4,320,208,320z"/>
		<path class="st0" d="M176,344h-32c-4.4,0-8,3.6-8,8s3.6,8,8,8h32c4.4,0,8-3.6,8-8S180.4,344,176,344z"/>
		<path class="st0" d="M208,344h-8c-4.4,0-8,3.6-8,8s3.6,8,8,8h8c4.4,0,8-3.6,8-8S212.4,344,208,344z"/>
	</g>
</g>
</svg>
