<?xml version="1.0" encoding="utf-8"?>
<!-- Generator: Adobe Illustrator 24.0.0, SVG Export Plug-In . SVG Version: 6.00 Build 0)  -->
<svg version="1.1" id="Layer_1" xmlns="http://www.w3.org/2000/svg" xmlns:xlink="http://www.w3.org/1999/xlink" x="0px" y="0px"
	 viewBox="0 0 64 64" style="enable-background:new 0 0 64 64;" xml:space="preserve">
<style type="text/css">
	.st0{fill:none;stroke:#F94539;stroke-width:4;stroke-linecap:round;stroke-linejoin:round;stroke-miterlimit:10;}
	.st1{fill:#F94539;}
	.st2{fill:none;stroke:#F94539;stroke-width:4;stroke-linecap:round;}
</style>
<path class="st0" d="M40,40.1c5.9-2.9,10-9,10-16.1c0-9.9-8.1-18-18-18s-18,8.1-18,18c0,7.1,4.1,13.2,10,16.1V46h16"/>
<path class="st0" d="M24,52h16"/>
<path class="st0" d="M28,58h8"/>
<path class="st0" d="M24,46v6"/>
<path class="st0" d="M40,46v6"/>
<rect x="30" y="34" class="st1" width="4" height="10"/>
<path class="st2" d="M38,28c0,0.8-0.2,1.6-0.5,2.3c-0.3,0.7-0.7,1.4-1.3,1.9c-0.6,0.6-1.2,1-1.9,1.3C33.6,33.8,32.8,34,32,34
	c-0.8,0-1.6-0.2-2.3-0.5c-0.7-0.3-1.4-0.7-1.9-1.3c-0.6-0.6-1-1.2-1.3-1.9C26.2,29.6,26,28.8,26,28"/>
</svg>
