<?xml version="1.0" encoding="utf-8"?>
<!-- Generator: Adobe Illustrator 24.0.0, SVG Export Plug-In . SVG Version: 6.00 Build 0)  -->
<svg version="1.1" id="Layer_1" xmlns="http://www.w3.org/2000/svg" xmlns:xlink="http://www.w3.org/1999/xlink" x="0px" y="0px"
	 viewBox="0 0 64 48" style="enable-background:new 0 0 64 48;" xml:space="preserve">
<style type="text/css">
	.st0{display:none;fill:none;stroke:#FFFFFF;stroke-width:2;stroke-miterlimit:10;}
	.st1{fill:#ED4C21;}
	.st2{fill:#0D2331;}
</style>
<title>Online Shop</title>
<line class="st0" x1="-3.7" y1="-116" x2="40.3" y2="-116"/>
<g>
	<polygon class="st1" points="49.5,6.5 39.7,6.5 39.7,14.1 49.9,14.1 	"/>
	<path class="st1" d="M44.8,19.8c2.3,0,4.3-1.4,4.9-3.3h-9.9C40.2,18.8,42.6,19.8,44.8,19.8z"/>
	<path class="st1" d="M32.1,19.8c2.3,0,4.3-1.4,4.9-3.3h-9.9C27.5,18.8,29.9,19.8,32.1,19.8z"/>
	<rect x="27" y="6.5" class="st1" width="10.2" height="7.6"/>
	<polygon class="st1" points="24.5,6.5 14.8,6.5 14.4,14.1 24.5,14.1 	"/>
	<path class="st1" d="M19.4,19.8c2.3,0,4.3-1.4,4.9-3.3h-9.9C14.8,18.8,17.2,19.8,19.4,19.8z"/>
	<path class="st2" d="M57,22.3c-2.6-0.1-4.7-1.2-5.9-2.9c-1.4,1.8-3.6,2.9-6.2,2.9c-2.9,0-5.2-1.1-6.5-2.9c-1.4,1.8-3.6,2.9-6.2,2.9
		c-2.9,0-5.2-1.1-6.5-2.9c-1.4,1.8-3.6,2.9-6.2,2.9c-2.9,0-5.2-1.1-6.5-2.9c-1.3,1.7-3.4,2.8-5.9,2.9v20.4H57V22.3L57,22.3z
		 M25.3,37.3H14.6V26.5h10.7V37.3z M40,34.9h-8c-0.9,0-1.6-0.7-1.6-1.6c0-0.9,0.7-1.6,1.6-1.6h7.9c0.9,0,1.6,0.7,1.6,1.6
		C41.5,34.2,40.8,34.9,40,34.9z M46.7,34.9h-2.3c-0.9,0-1.6-0.7-1.6-1.6c0-0.9,0.7-1.6,1.6-1.6h2.3c0.9,0,1.6,0.7,1.6,1.6
		C48.3,34.2,47.5,34.9,46.7,34.9z M50.4,29.4H32c-0.9,0-1.6-0.7-1.6-1.6s0.7-1.6,1.6-1.6h18.4c0.9,0,1.6,0.7,1.6,1.6
		C52,28.7,51.3,29.4,50.4,29.4z"/>
	<polygon class="st1" points="11.9,14.1 12.3,6.5 6.6,6.5 2.4,14.1 	"/>
	<path class="st1" d="M62.5,16.5h-9.9c0.4,2.2,2.8,3.3,5,3.3C59.9,19.8,61.8,18.4,62.5,16.5z"/>
	<path class="st2" d="M0.5,46.4c0.8,0.5,2.1,1.2,2.8,1.2h57.3c0.8,0,2-0.7,2.8-1.2v-1.3h-63L0.5,46.4L0.5,46.4z"/>
	<path class="st1" d="M6.7,19.8c2.3,0,4.3-1.4,4.9-3.3H1.8C2.4,18.4,4.4,19.8,6.7,19.8z"/>
	<polygon class="st1" points="51.9,6.5 52.4,14.1 61.8,14.1 57.6,6.5 	"/>
	<path class="st2" d="M7,1v2.8c0,0,0,0.1,0,0.2h50V1.2c0-0.1,0-0.5-0.2-0.7c-0.1-0.1-0.3-0.2-0.6-0.2H7.6C7.3,0.4,7,0.6,7,1z"/>
</g>
</svg>
