<?xml version="1.0" encoding="utf-8"?>
<!-- Generator: Adobe Illustrator 24.0.0, SVG Export Plug-In . SVG Version: 6.00 Build 0)  -->
<svg version="1.1" id="Layer_3" xmlns="http://www.w3.org/2000/svg" xmlns:xlink="http://www.w3.org/1999/xlink" x="0px" y="0px"
	 viewBox="0 0 512 512" style="enable-background:new 0 0 512 512;" xml:space="preserve">
<style type="text/css">
	.st0{fill:#0D2331;}
</style>
<g>
	<path class="st0" d="M62.3,231.8l72,16c0.6,0.1,1.2,0.2,1.7,0.2c0.3,0,0.7,0,1-0.1l59.7-7.5c5.6,9.3,15.7,15.5,27.3,15.5
		c17.6,0,32-14.4,32-32c0-11.5-6.1-21.5-15.2-27.1l7.1-35.3c0.2-1.2,0.2-2.5-0.2-3.8l-0.6-1.9c0.4,0.1,0.9,0.2,1.3,0.4l5.5-15
		c-3.9-1.4-7.8-2.4-11.9-3.3l-10.3-36.2c-1-3.4-4.1-5.8-7.7-5.8s-6.7,2.4-7.7,5.8l-16,56c-0.3,1.2-0.4,2.5-0.2,3.8l7.1,35.3
		c-4.3,2.7-7.9,6.3-10.5,10.6l-41.3-5.2c0.6-1.8,1.2-3.6,1.9-5.4l-14.8-6c-1.2,3.1-2.3,6.2-3.2,9.4l-2.3-0.3
		c-0.9-0.1-1.8-0.1-2.7,0.1l-72,16c-3.7,0.8-6.3,4.1-6.3,7.8S58.6,231,62.3,231.8L62.3,231.8z M224,240c-8.8,0-16-7.2-16-16
		s7.2-16,16-16s16,7.2,16,16S232.8,240,224,240z M216.2,160.3l7.8-27.2l7.8,27.2l-6.4,31.8c-0.5,0-0.9-0.1-1.4-0.1s-0.9,0.1-1.4,0.1
		L216.2,160.3z M136.4,216.1l55.7,7c0,0.3-0.1,0.6-0.1,0.9s0.1,0.6,0.1,0.9l-55.7,7l-35.5-7.9L136.4,216.1z"/>
	<path class="st0" d="M288,416h-40v-16h32c4.4,0,8-3.6,8-8v-32c0-4.4-3.6-8-8-8h-48v16h40v16h-32c-4.4,0-8,3.6-8,8v32
		c0,4.4,3.6,8,8,8h48V416z"/>
	<path class="st0" d="M304,400h32v32h16v-32h8v-16h-8v-32h-16v32h-24v-32h-16v40C296,396.4,299.6,400,304,400z"/>
	<path class="st0" d="M360,416h16v16h-16V416z"/>
	<path class="st0" d="M488,400h-18l-14.3-50.2c-1-3.4-4.1-5.8-7.7-5.8h-41.5c-3.3-9.3-12.1-16-22.5-16H224c-13.2,0-24,10.8-24,24
		v38.1c-34.5-4.9-65.4-19.8-89.6-41.8l23.2-23.2l-11.3-11.3l-23.2,23.2C72.2,307.1,56,267.5,56,224c0-43.4,16.7-83,43.9-112.8
		l22.5,22.5l11.3-11.3l-22.5-22.5c28-25.5,64.5-41.6,104.8-43.5V80h16V56.4c40.1,1.9,76.6,17.9,104.5,43.2l-22.2,22.2l11.3,11.3
		l22.2-22.2c25.6,28.1,42,64.7,43.9,105.2H368c-3,0-5.8,1.7-7.2,4.4c-1.4,2.7-1.1,6,0.8,8.4l48,64c3,4,9.8,4,12.8,0l48-64
		c1.8-2.4,2.1-5.7,0.8-8.4c-1.4-2.7-4.1-4.4-7.2-4.4h-24.2C435.6,100.6,340.4,8,224,8C104.9,8,8,104.9,8,224
		c0,109.8,83.8,202.6,192,214.6v9.4c0,4.4,3.6,8,8,8v8c0,8.8,7.2,16,16,16h9.1c3.6,13.8,16,24,30.9,24s27.3-10.2,30.9-24h74.3
		c3.6,13.8,16,24,30.9,24s27.3-10.2,30.9-24H456c0,4.4,3.6,8,8,8h16c13.2,0,24-10.8,24-24v-16v-32C504,407.2,496.8,400,488,400
		L488,400z M488,416v24h-80v-80h8v48c0,4.4,3.6,8,8,8h40H488z M291.6,456h80.9c-1.4,2.5-2.6,5.2-3.3,8h-74.3
		C294.1,461.2,293,458.5,291.6,456L291.6,456z M453.4,400H432v-40h10L453.4,400z M216,352c0-4.4,3.6-8,8-8h160c4.4,0,8,3.6,8,8v88
		H216V352z M24,224c0-110.3,89.7-200,200-200s200,89.7,200,200c0,4.4,3.6,8,8,8h16l-32,42.7L384,232h16c4.4,0,8-3.6,8-8
		c0-101.5-82.5-184-184-184S40,122.5,40,224c0,93.4,68.3,170.4,160,182.2v16.3C100.6,410.6,24,325,24,224z M224,456h12.4
		c-1.4,2.5-2.6,5.2-3.3,8H224V456z M264,488c-8.8,0-16-7.2-16-16s7.2-16,16-16s16,7.2,16,16S272.8,488,264,488z M400,488
		c-8.8,0-16-7.2-16-16s7.2-16,16-16s16,7.2,16,16S408.8,488,400,488z M430.9,464c-0.7-2.8-1.9-5.5-3.3-8H456v8H430.9z M480,472h-8
		v-16h16v8C488,468.4,484.4,472,480,472z"/>
	<path class="st0" d="M164,184.2c2.6-4,5.7-7.7,9.1-11.1l-11.3-11.3c-4.2,4.2-7.9,8.7-11.1,13.6L164,184.2z"/>
	<path class="st0" d="M184.2,164c4-2.6,8.3-4.9,12.7-6.7l-6-14.8c-5.4,2.2-10.6,5-15.5,8.2L184.2,164z"/>
	<path class="st0" d="M309.8,204.4l-15.6,3.5c1.1,4.6,1.6,9.4,1.8,14.3l16-0.4C311.8,215.9,311.1,210.1,309.8,204.4L309.8,204.4z"/>
	<path class="st0" d="M183.1,283.3c-3.9-2.7-7.6-5.9-11-9.3l-11.5,11.1c4.1,4.2,8.6,8,13.4,11.4L183.1,283.3z"/>
	<path class="st0" d="M189.4,305c5.4,2.3,11,4.1,16.8,5.2l3.2-15.7c-4.7-1-9.3-2.4-13.7-4.3L189.4,305z"/>
	<path class="st0" d="M223.7,296l0.3,16h0.1c5.7,0,11.5-0.6,17-1.7l-3.1-15.7c-4.6,0.9-9.2,1.4-14.2,1.4
		C223.8,296,223.7,296,223.7,296L223.7,296z"/>
	<path class="st0" d="M141.9,255.6c2.1,5.4,4.8,10.7,7.9,15.7l13.5-8.6c-2.6-4.1-4.8-8.4-6.5-12.8L141.9,255.6z"/>
	<path class="st0" d="M310.7,239.3l-15.8-2.8c-0.8,4.7-2.2,9.4-3.9,13.8l14.9,5.9C308,250.8,309.6,245.1,310.7,239.3z"/>
	<path class="st0" d="M304.2,187.7c-2.4-5.3-5.4-10.4-8.8-15.2l-13,9.4c2.8,3.9,5.2,8.1,7.2,12.4L304.2,187.7z"/>
	<path class="st0" d="M269.7,148.8l-8.3,13.7c4.1,2.5,7.9,5.4,11.5,8.7l10.9-11.7C279.5,155.4,274.7,151.8,269.7,148.8z"/>
	<path class="st0" d="M251.8,290.4l6.2,14.8c5.4-2.3,10.6-5.1,15.5-8.4l-9-13.2C260.4,286.3,256.2,288.6,251.8,290.4L251.8,290.4z"
		/>
	<path class="st0" d="M297.9,271.9l-13.4-8.7c-2.6,4-5.6,7.8-9,11.2l11.4,11.2C291,281.4,294.7,276.8,297.9,271.9z"/>
</g>
</svg>
