<?xml version="1.0" encoding="utf-8"?>
<!-- Generator: Adobe Illustrator 24.0.0, SVG Export Plug-In . SVG Version: 6.00 Build 0)  -->
<svg version="1.1" id="Layer_1" xmlns:svgjs="http://svgjs.com/svgjs"
	 xmlns="http://www.w3.org/2000/svg" xmlns:xlink="http://www.w3.org/1999/xlink" x="0px" y="0px" viewBox="0 0 512 512"
	 style="enable-background:new 0 0 512 512;" xml:space="preserve">
<style type="text/css">
	.st0{fill:#0D2331;}
</style>
<g>
	<g>
		<g>
			<g>
				<path class="st0" d="M54.8,308.6h63.8c5.5,0,10-4.5,10-10v-64.3c0-5.5-4.5-10-10-10H83c-4,0-7.6,2.4-9.2,6l-28.2,64.3
					c-1.4,3.1-1.1,6.7,0.8,9.5S51.5,308.6,54.8,308.6z M89.5,244.3h19.1v44.3H70.1L89.5,244.3z"/>
				<path class="st0" d="M502,60.1H378c-5.5,0-10,4.5-10,10s4.5,10,10,10h114v93.2H384.9v-36.7c0-3.7-2.1-7.1-5.4-8.9
					c-3.3-1.7-7.3-1.5-10.4,0.7l-117,82c-2.7,1.9-4.3,4.9-4.3,8.2s1.6,6.3,4.3,8.2l117,82c1.7,1.2,3.7,1.8,5.7,1.8
					c1.6,0,3.2-0.4,4.6-1.1c3.3-1.7,5.4-5.1,5.4-8.9v-36.7H492v126.7h-53.9c0.1-1.2,0.1-2.4,0.1-3.7c0-35.9-29.2-65.1-65.1-65.1
					s-65,29.2-65,65.1c0,1.2,0,2.5,0.1,3.7H173.5V80.1h114c5.5,0,10-4.5,10-10s-4.5-10-10-10h-124c-5.5,0-10,4.5-10,10v109.4H53.7
					c-4,0-7.6,2.4-9.2,6L0.8,285.2c-0.6,1.3-0.8,2.6-0.8,4v111.3c0,5.5,4.5,10,10,10h29.6c4.3,23.5,25,41.4,49.7,41.4
					c24.8,0,45.4-17.9,49.7-41.4h173.5c9.5,24.2,33.1,41.4,60.6,41.4s51.1-17.2,60.6-41.4H502c5.5,0,10-4.5,10-10V70.1
					C512,64.6,507.5,60.1,502,60.1L502,60.1z M20,291.3l40.2-91.9h93.3v191h-14.8c-5-22.7-25.2-39.8-49.4-39.8s-44.5,17.1-49.4,39.8
					H20L20,291.3z M89.3,431.9c-16.9,0-30.6-13.7-30.6-30.6s13.7-30.6,30.6-30.6s30.6,13.7,30.6,30.6S106.2,431.9,89.3,431.9z
					 M373.1,431.9c-24.8,0-45-20.2-45-45.1s20.2-45.1,45-45.1s45,20.2,45,45.1S398,431.9,373.1,431.9z M374.9,243.8
					c-5.5,0-10,4.5-10,10v27.5l-89.6-62.8l89.6-62.8v27.5c0,5.5,4.5,10,10,10H492v50.6L374.9,243.8z"/>
				<path class="st0" d="M323.7,73.9c1.6,3.9,5.7,6.4,9.9,6.1c4.2-0.3,7.9-3.3,9-7.4c1.1-4-0.5-8.5-4-10.8
					c-3.3-2.3-7.7-2.3-11.1-0.2C323.5,64.2,321.9,69.5,323.7,73.9z"/>
			</g>
		</g>
	</g>
</g>
</svg>
