<?xml version="1.0" encoding="utf-8"?>
<!-- Generator: Adobe Illustrator 24.0.0, SVG Export Plug-In . SVG Version: 6.00 Build 0)  -->
<svg version="1.1" id="Layer_1" xmlns:svgjs="http://svgjs.com/svgjs"
	 xmlns="http://www.w3.org/2000/svg" xmlns:xlink="http://www.w3.org/1999/xlink" x="0px" y="0px" viewBox="0 0 512 512"
	 style="enable-background:new 0 0 512 512;" xml:space="preserve">
<style type="text/css">
	.st0{fill:#0D2331;}
</style>
<g>
	<path class="st0" d="M232.2,279.4c-0.9-0.2-1.9-0.2-2.9-0.1c-9.6-1.1-16.9-9.3-16.9-18.9c0-4.6-3.8-8.4-8.4-8.4
		c-4.6,0-8.4,3.8-8.4,8.4c0,16.2,10.8,30.3,26.4,34.6v8.4c0,4.6,3.8,8.4,8.4,8.4s8.4-3.8,8.4-8.4v-7.9c18-3.8,30.2-20.5,28.3-38.8
		c-1.9-18.3-17.3-32.2-35.7-32.2c-10.5,0-19.1-8.5-19.1-19.1s8.5-19.1,19.1-19.1s19.1,8.5,19.1,19.1c0,4.6,3.8,8.4,8.4,8.4
		c4.6,0,8.4-3.8,8.4-8.4c0-17-11.9-31.6-28.5-35.1v-7.6c0-4.6-3.8-8.4-8.4-8.4s-8.4,3.8-8.4,8.4v8.2c-17.3,4.7-28.5,21.6-26.1,39.4
		c2.4,17.8,17.6,31.1,35.5,31.1c10.4,0,18.9,8.3,19.1,18.7C250.8,270.4,242.6,279.1,232.2,279.4z"/>
	<path class="st0" d="M109.8,233.6c0,67.3,54.5,121.8,121.8,121.8s121.8-54.5,121.8-121.8s-54.5-121.8-121.8-121.8
		C164.3,111.9,109.8,166.3,109.8,233.6z M231.5,128.6c58,0,105,47,105,105s-47,105-105,105s-105-47-105-105
		C126.6,175.6,173.6,128.7,231.5,128.6z"/>
	<path class="st0" d="M394.7,376.1l-65.8,31.1c-9.1-16.9-26.5-27.6-45.7-28.2l-60.7-1.7c-9.6-0.3-19.1-2.7-27.6-7.1l-6.2-3.2
		c-31.6-16.5-69.4-16.5-101,0.1l0.4-14c0.1-4.6-3.5-8.5-8.2-8.6l-66.6-1.8c-4.6-0.1-8.5,3.5-8.6,8.2l-4,146.1
		c-0.1,4.6,3.5,8.5,8.2,8.6l66.6,1.8h0.2c4.6,0,8.3-3.6,8.4-8.2l0.2-7l17.3-9.3c6.8-3.7,14.7-4.5,22.1-2.4l103.3,29
		c0.2,0.1,0.4,0.1,0.5,0.1c7.5,1.6,15.1,2.3,22.7,2.3c16.2,0,32.1-3.5,46.8-10.2c0.4-0.2,0.7-0.4,1-0.6L448,404.3
		c3.7-2.4,4.9-7.3,2.8-11.2C439.6,373.4,415,365.9,394.7,376.1z M17.8,489l3.6-129.4l49.8,1.4l-3.6,129.4L17.8,489z M289.6,486.8
		c-18.2,8.2-38.6,10.5-58.2,6.5l-103-28.9c-11.6-3.3-24-1.9-34.6,3.8l-8.8,4.7l2.4-86c28-18.6,63.9-20.5,93.8-5l6.2,3.2
		c10.8,5.6,22.7,8.7,34.9,9l60.7,1.7c17.1,0.5,31.5,12.6,35,29.4l-90.5-2.5c-4.6-0.1-8.5,3.5-8.6,8.2c-0.1,4.6,3.5,8.5,8.2,8.6
		l99.8,2.7h0.2c4.5,0,8.3-3.6,8.4-8.2c0.1-3.6-0.2-7.3-0.8-10.9l67.5-31.9c0.1,0,0.1-0.1,0.2-0.1c9.6-4.8,21.1-3.2,29,4.1
		L289.6,486.8z"/>
	<path class="st0" d="M239.9,88.2V8.4c0-4.6-3.8-8.4-8.4-8.4c-4.6,0-8.4,3.8-8.4,8.4v79.8c0,4.6,3.8,8.4,8.4,8.4
		C236.2,96.6,239.9,92.8,239.9,88.2z"/>
	<path class="st0" d="M302.9,88.2V50.4c0-4.6-3.8-8.4-8.4-8.4c-4.6,0-8.4,3.8-8.4,8.4v37.8c0,4.6,3.8,8.4,8.4,8.4
		C299.2,96.6,302.9,92.8,302.9,88.2z"/>
	<path class="st0" d="M177,88.2V50.4c0-4.6-3.8-8.4-8.4-8.4c-4.6,0-8.4,3.8-8.4,8.4v37.8c0,4.6,3.8,8.4,8.4,8.4
		C173.2,96.6,177,92.8,177,88.2z"/>
</g>
</svg>
