<?xml version="1.0" encoding="utf-8"?>
<!-- Generator: Adobe Illustrator 24.0.0, SVG Export Plug-In . SVG Version: 6.00 Build 0)  -->
<svg version="1.1" id="Layer_1" xmlns="http://www.w3.org/2000/svg" xmlns:xlink="http://www.w3.org/1999/xlink" x="0px" y="0px"
	 viewBox="0 0 64 64" style="enable-background:new 0 0 64 64;" xml:space="preserve">
<style type="text/css">
	.st0{fill:none;stroke:#F94539;stroke-width:4;stroke-linejoin:round;stroke-miterlimit:10;}
</style>
<path class="st0" d="M4,16h34v30H26"/>
<path class="st0" d="M48,50c2.2,0,4-1.8,4-4s-1.8-4-4-4s-4,1.8-4,4S45.8,50,48,50z"/>
<path class="st0" d="M16,50c2.2,0,4-1.8,4-4s-1.8-4-4-4s-4,1.8-4,4S13.8,50,16,50z"/>
<path class="st0" d="M38,46V24h12l8,10v12h-6"/>
<path class="st0" d="M8,24h18"/>
<path class="st0" d="M4,32h18"/>
</svg>
