<?xml version="1.0" encoding="utf-8"?>
<!-- Generator: Adobe Illustrator 24.0.0, SVG Export Plug-In . SVG Version: 6.00 Build 0)  -->
<svg version="1.1" id="Layer_1" xmlns="http://www.w3.org/2000/svg" xmlns:xlink="http://www.w3.org/1999/xlink" x="0px" y="0px"
	 viewBox="0 0 64 64" style="enable-background:new 0 0 64 64;" xml:space="preserve">
<style type="text/css">
	.st0{fill:none;stroke:#F94539;stroke-width:4;}
	.st1{fill:#F94539;}
	.st2{fill-rule:evenodd;clip-rule:evenodd;fill:#F94539;}
</style>
<rect x="23" y="54" class="st0" width="33" height="7"/>
<path class="st0" d="M24,46.5c0,2.5,4,4.5,4.5,6.5"/>
<path class="st0" d="M37,17c12.5,12,14.5,12.3,14.5,23.5v13"/>
<circle class="st1" cx="24" cy="9" r="2"/>
<path class="st0" d="M32.3,24.1c0,1-0.1,1.9-0.5,2.8c-1.4,0.2-2.5,0.6-3.3,1.7c-0.4,0.6-0.7,1.2-0.8,1.7c-0.1,0.2-0.1,0.3-0.1,0.4
	c0,0.1,0,0.1-0.1,0.2c-0.6,0.2-1.3,0.3-2,0.3c-3.9,0.1-7.1-2.9-7.2-6.8c-0.1-3.9,2.9-7.1,6.8-7.2C28.9,17.2,32.1,20.2,32.3,24.1z"/>
<circle class="st1" cx="24" cy="39" r="2"/>
<path class="st2" d="M35,5H13v38h19v4H13H9v-4V5V1h4h22h4v4v26l-4-3.8V5z"/>
<path class="st0" d="M43.5,38c0,0-10-10.8-11.5-11c-1.5-0.2-5.5-1-4.5,5c3.6,4,4.8,5.3,5,5.5c-0.8,2.5-1.2,8.1,4,10.5"/>
</svg>
