<?xml version="1.0" encoding="utf-8"?>
<!-- Generator: Adobe Illustrator 24.0.0, SVG Export Plug-In . SVG Version: 6.00 Build 0)  -->
<svg version="1.1" id="Layer_1" xmlns="http://www.w3.org/2000/svg" xmlns:xlink="http://www.w3.org/1999/xlink" x="0px" y="0px"
	 viewBox="0 0 64 64" style="enable-background:new 0 0 64 64;" xml:space="preserve">
<style type="text/css">
	.st0{fill:#F94539;}
</style>
<path class="st0" d="M59.8,56L53.9,43c-0.5-1-1.7-1.5-2.8-1c-1,0.5-1.5,1.7-1,2.8l4.6,10H37c5.5-6.8,16.3-21.4,16.3-29.9
	C53.3,13.3,43.9,4,32.5,4C21,4,11.6,13.3,11.6,24.9c0,8.6,10.9,23.1,16.3,29.9H10.4l4.6-10c0.5-1,0-2.3-1-2.8c-1-0.5-2.3,0-2.8,1
	L5.2,56c-0.3,0.7-0.2,1.4,0.1,2.1C5.7,58.8,6.4,59,7,59h50.8c0.7,0,1.4-0.3,1.8-0.9C60.1,57.5,60.1,56.7,59.8,56z M32.5,8.2
	c9.2,0,16.6,7.4,16.6,16.6c0,7.1-10.8,21.8-16.6,28.8C26.8,46.5,15.9,32,15.9,24.9C15.9,15.7,23.3,8.2,32.5,8.2z"/>
<path class="st0" d="M40.2,24.9c0-4.2-3.4-7.7-7.7-7.7s-7.7,3.4-7.7,7.7c0,4.2,3.4,7.7,7.7,7.7S40.2,29.1,40.2,24.9z M29,24.9
	c0-1.9,1.5-3.4,3.4-3.4c1.9,0,3.4,1.5,3.4,3.4c0,1.9-1.5,3.4-3.4,3.4C30.5,28.3,29,26.7,29,24.9z"/>
</svg>
