<?xml version="1.0" encoding="utf-8"?>
<!-- Generator: Adobe Illustrator 24.0.0, SVG Export Plug-In . SVG Version: 6.00 Build 0)  -->
<svg version="1.1" id="Layer_1" xmlns:v="https://vecta.io/nano"
	 xmlns="http://www.w3.org/2000/svg" xmlns:xlink="http://www.w3.org/1999/xlink" x="0px" y="0px" viewBox="0 0 48 55"
	 style="enable-background:new 0 0 48 55;" xml:space="preserve">
<style type="text/css">
	.st0{fill:#F94539;}
</style>
<path class="st0" d="M43.2,54.3l-1.9,0c-0.5,0-1-0.4-1.1-0.9L36.8,40h-2.3l-1.1,0L33,40c-0.9,0-1.4-0.3-1.9-0.9L29.9,38v6.2
	c0,0.6-0.5,1.1-1.1,1.1c-0.5,0-1,0.1-1.6,0.2c-0.8,0.1-1.5,0.3-2.1,0.3c-0.6,0-1.1-0.5-1.2-1.1v-1.2H23v1.6c0,0.5-0.4,1-0.9,1.1
	l-4.1,0.8c-0.6,0.1-1.2-0.3-1.4-0.9l-0.4-1.9l-2.8-10.9l-0.2-0.7l0,0l-0.9,0c-0.6,0-1.2-0.5-1.2-1.1v-8L4.9,22
	c-0.3-0.1-0.6-0.3-0.8-0.6c-0.1-0.3-0.1-0.7,0-1l1-1.9l0.4-0.9C6,16.5,6.5,16,7.9,16l0.8,0l0.8,0v-0.6c0-0.6,0.5-1.1,1.2-1.1h2.4
	l0-1.7L6.5,9.4C6,9.2,5.8,8.6,5.9,8.1C6,7.6,6.4,7,6.9,5.9l0.8-1.5V1.1C7.7,0.5,8.2,0,8.8,0h3.5c0.6,0,1.1,0.4,2.7,2
	c0.2-0.4,0.6-0.7,1.1-0.7h3.5c0.3,0,0.6,0.1,0.9,0.4s0.3,0.6,0.3,0.9l-0.3,2.8h1.4V4.7c0-0.4,0.2-0.7,0.5-0.9
	c0.3-0.2,0.7-0.3,1.1-0.1l3.3,1.3C27,5,27.2,5.2,27.3,5.5l0.5,0.9c0.1,0.2,0.1,0.3,0.1,0.5l0,6l2.8,1.3h14.4c0.6,0,1.2,0.5,1.2,1.1
	l0,0.8c0,1.4-0.1,1.6-0.9,2.7l-0.6,0.8l-4.1,5.5c-0.2,0.3-0.6,0.5-0.9,0.5h-2.9l-0.6,1.2l-0.7,1.4V34h1.5l0-0.1l0.2-0.8l1.3-5.3
	c0.1-0.5,0.6-0.9,1.1-0.9h3.7c0.6,0,1,0.4,1.1,1l0.9,5.4l0.4,2.4l0.5,3.1l1.1,6.6l0.5,2.8l0.1,0.4c0.1,0.3,0.1,0.6,0.2,1l0,0.1
	c0,0.6-0.5,1.1-1.2,1.1h-2.5v2.4c0,0.3-0.1,0.6-0.3,0.8C43.9,54.1,43.6,54.2,43.2,54.3L43.2,54.3z M34.6,37.7h3.2
	c0.5,0,1,0.4,1.1,0.9l3.2,12.7v-1.8c0-0.6,0.5-1.1,1.2-1.1h2.2L45,45.7L43.4,36L43,33.6l-0.7-4.5h-1.8l-1.1,4.4l-0.2,0.9l-0.2,0.9
	c-0.1,0.5-0.6,0.9-1.1,0.9h-3.5c-0.6,0-1.2-0.5-1.2-1.1v-7c0-0.6,0.3-1.2,1-2.4l0.7-1.5c0.1-0.5,0.6-0.9,1.1-0.9h3.1l3.8-5l0.7-0.8
	l0.4-0.5c0,0,0-0.2,0-0.4H30.6c-0.3,0-0.7,0-4.4-1.9c-0.4-0.2-0.6-0.6-0.6-1l0-6.5l-0.1-0.3l-1.3-0.5v0.1c0,0.6-0.5,1.1-1.2,1.1
	h-3.9c-0.3,0-0.6-0.1-0.9-0.4S18,6.7,18,6.4l0.3-2.8h-1v1c0,0.4-0.2,0.8-0.6,1c-0.4,0.2-0.8,0.2-1.2-0.1c-0.4-0.2-0.9-0.7-1.7-1.6
	L12,2.3H10v2.2c0,0.6-0.4,1.3-1,2.5L8.5,7.8l6.2,3c0.4,0.2,0.6,0.6,0.6,1l0,3.5c0,0.3-0.1,0.6-0.3,0.8s-0.5,0.3-0.8,0.3h-2.4v0.6
	c0,0.6-0.5,1.1-1.2,1.1c-0.9,0-1.5,0-2,0l-0.7,0l-0.1,0l-0.1,0.2l-0.5,1l-0.3,0.6l5.8,1.4c0.5,0.1,0.9,0.6,0.9,1.1v7.8l0.1,0
	c1.5,0,1.8,1,1.9,1.7l0.2,0.8l2.8,10.9l0.2,0.8l2-0.4v-1.8c0-0.6,0.5-1.1,1.2-1.1h3.2c0.6,0,1.2,0.5,1.2,1.1v1l0.6-0.1l0.7-0.1v-7.9
	c0-0.5,0.3-0.9,0.7-1.1c0.4-0.2,0.9-0.1,1.3,0.2l3.4,3.3l0.1,0l0.4,0L34.6,37.7L34.6,37.7z M19.6,27.6c-2.5,0-4.6-2-4.6-4.6
	s2.1-4.6,4.6-4.6s4.6,2,4.6,4.6S22.1,27.6,19.6,27.6z M19.6,20.7c-1.3,0-2.3,1-2.3,2.3s1,2.3,2.3,2.3s2.3-1,2.3-2.3
	S20.9,20.7,19.6,20.7z M34.6,51.6H1.2c-0.6,0-1.2-0.5-1.2-1.1c0,0,0,0,0,0c0-0.6,0.5-1.1,1.2-1.1h33.4c0.6,0,1.2,0.5,1.2,1.1
	S35.2,51.6,34.6,51.6L34.6,51.6z M34.6,55H1.2C0.5,55,0,54.5,0,53.9s0.5-1.1,1.2-1.1h33.4c0.6,0,1.2,0.5,1.2,1.1S35.2,55,34.6,55
	L34.6,55z"/>
</svg>
