<?xml version="1.0" encoding="utf-8"?>
<!-- Generator: Adobe Illustrator 24.0.0, SVG Export Plug-In . SVG Version: 6.00 Build 0)  -->
<svg version="1.1" id="Layer_1" xmlns="http://www.w3.org/2000/svg" xmlns:xlink="http://www.w3.org/1999/xlink" x="0px" y="0px"
	 viewBox="0 0 64 64" style="enable-background:new 0 0 64 64;" xml:space="preserve">
<style type="text/css">
	.st0{fill:#F94539;}
</style>
<path class="st0" d="M32.5,60c-0.2,0-0.6,0-0.8-0.1L6.5,50.1C5.6,49.8,5,49,5,48V15.7c0-0.7,0.4-1.4,0.9-1.9
	c0.6-0.5,1.4-0.5,2.1-0.2l25.2,9.7c0.9,0.4,1.5,1.2,1.5,2.1v32.3c0,0.7-0.4,1.4-0.9,1.9C33.4,59.9,33,60,32.5,60z M9.6,46.4l20.6,8
	V27L9.6,19.1V46.4z"/>
<path class="st0" d="M32.5,60c-0.5,0-0.9-0.1-1.3-0.4c-0.6-0.5-0.9-1.2-0.9-1.9V25.4c0-0.9,0.6-1.8,1.5-2.1L57,13.6
	c0.7-0.2,1.5-0.2,2.1,0.2c0.6,0.5,0.9,1.2,0.9,1.9V48c0,0.9-0.6,1.8-1.5,2.1l-25.2,9.7C33.1,60,32.7,60,32.5,60z M34.8,27v27.4
	l20.6-8V19.1L34.8,27z"/>
<path class="st0" d="M32.5,27.7c-0.2,0-0.6,0-0.8-0.1L6.5,18C5.6,17.6,5,16.8,5,15.7c0-0.9,0.6-1.9,1.5-2.1l25.2-8.5
	c0.5-0.1,0.9-0.1,1.5,0l25.2,8.5c0.9,0.4,1.5,1.2,1.5,2.1c0,0.9-0.6,1.9-1.5,2.2l-25.2,9.7C33.1,27.7,32.7,27.7,32.5,27.7z M14,15.9
	l18.5,7l18.5-7L32.5,9.7L14,15.9z"/>
<path class="st0" d="M42.1,44.1c-0.7,0-1.4-0.4-1.9-0.9l-3-4.2c-0.7-1.1-0.5-2.5,0.6-3.2c1.1-0.7,2.5-0.5,3.2,0.6l0.8,1.1
	c1.6-2.8,4.4-6.4,8.7-7.7c1.2-0.4,2.5,0.2,2.9,1.5c0.4,1.2-0.2,2.5-1.5,2.9c-4.8,1.5-7.5,8.5-7.5,8.5c-0.4,0.8-1.1,1.4-1.9,1.5
	C42.3,43.9,42.2,44.1,42.1,44.1z"/>
</svg>
