<?xml version="1.0" encoding="utf-8"?>
<!-- Generator: Adobe Illustrator 24.0.0, SVG Export Plug-In . SVG Version: 6.00 Build 0)  -->
<svg version="1.1" id="Layer_1" xmlns:svgjs="http://svgjs.com/svgjs"
	 xmlns="http://www.w3.org/2000/svg" xmlns:xlink="http://www.w3.org/1999/xlink" x="0px" y="0px" viewBox="0 0 512 512"
	 style="enable-background:new 0 0 512 512;" xml:space="preserve">
<style type="text/css">
	.st0{fill:#0D2331;}
</style>
<g>
	<g>
		<g>
			<path class="st0" d="M487.2,115.6H297.3V41.3C297.3,18.5,278.8,0,256,0H41.3C18.5,0,0,18.5,0,41.3v429.4
				C0,493.5,18.5,512,41.3,512H256c22.8,0,41.3-18.5,41.3-41.3V346.8h-16.5v82.6H16.5V82.6h264.3v33h-74.3
				c-13.7,0-24.8,11.1-24.8,24.8v120.5l-69.5,69.5h375c13.7,0,24.8-11.1,24.8-24.8V140.4C512,126.7,500.9,115.6,487.2,115.6z
				 M280.8,445.9v24.8c0,13.7-11.1,24.8-24.8,24.8H41.3c-13.7,0-24.8-11.1-24.8-24.8v-24.8H280.8z M16.5,66.1V41.3
				c0-13.7,11.1-24.8,24.8-24.8H256c13.7,0,24.8,11.1,24.8,24.8v24.8H16.5z M495.5,305.5c0,4.6-3.7,8.3-8.3,8.3H152.1l46.1-46.1
				V140.4c0-4.6,3.7-8.3,8.3-8.3h280.8c4.6,0,8.3,3.7,8.3,8.3V305.5z"/>
		</g>
	</g>
	<g>
		<g>
			<path class="st0" d="M429.4,214.7c-9.1,0-16.5-7.4-16.5-16.5c0-9.1,7.4-16.5,16.5-16.5s16.5,7.4,16.5,16.5h16.5
				c0-18.2-14.8-33-33-33s-33,14.8-33,33s14.8,33,33,33c9.1,0,16.5,7.4,16.5,16.5s-7.4,16.5-16.5,16.5s-16.5-7.4-16.5-16.5h-16.5
				c0,18.2,14.8,33,33,33s33-14.8,33-33S447.6,214.7,429.4,214.7z"/>
		</g>
	</g>
	<g>
		<g>
			<path class="st0" d="M264.3,214.7c-9.1,0-16.5-7.4-16.5-16.5c0-9.1,7.4-16.5,16.5-16.5s16.5,7.4,16.5,16.5h16.5
				c0-18.2-14.8-33-33-33s-33,14.8-33,33s14.8,33,33,33c9.1,0,16.5,7.4,16.5,16.5s-7.4,16.5-16.5,16.5s-16.5-7.4-16.5-16.5h-16.5
				c0,18.2,14.8,33,33,33s33-14.8,33-33S282.5,214.7,264.3,214.7z"/>
		</g>
	</g>
	<g>
		<g>
			<polygon class="st0" points="356.9,165.2 346.8,205.4 336.8,165.2 313.8,165.2 313.8,272.5 330.3,272.5 330.3,207.5 346.8,273.5 
				363.4,207.5 363.4,272.5 379.9,272.5 379.9,165.2 			"/>
		</g>
	</g>
	<g>
		<g>
			<rect x="115.6" y="462.5" class="st0" width="66.1" height="16.5"/>
		</g>
	</g>
	<g>
		<g>
			<rect x="247.7" y="346.8" class="st0" width="16.5" height="16.5"/>
		</g>
	</g>
	<g>
		<g>
			<rect x="214.7" y="346.8" class="st0" width="16.5" height="16.5"/>
		</g>
	</g>
	<g>
		<g>
			<rect x="181.7" y="346.8" class="st0" width="16.5" height="16.5"/>
		</g>
	</g>
	<g>
		<g>
			<rect x="148.6" y="346.8" class="st0" width="16.5" height="16.5"/>
		</g>
	</g>
</g>
</svg>
